<svg xmlns="http://www.w3.org/2000/svg" xmlns:xlink="http://www.w3.org/1999/xlink" preserveAspectRatio="xMidYMid" width="44" height="44" viewBox="0 0 44 44">
  <defs>
    <style>
      .cls-1 {
        mix-blend-mode: screen;
      }

      .cls-2 {
        fill: #e62e46;
      }

      .cls-2, .cls-4 {
        stroke: #666;
        stroke-linejoin: round;
        stroke-width: 2px;
        fill-opacity: 0;
      }

      .cls-2, .cls-3 {
        fill-rule: evenodd;
      }

      .cls-3, .cls-4 {
        fill: #666;
      }
    </style>
  </defs>
  <g>
    <path d="M42.000,20.000 C42.000,22.209 40.209,24.000 38.000,24.000 C35.791,24.000 34.000,22.209 34.000,20.000 C34.000,19.653 34.058,19.321 34.141,19.000 L33.859,19.000 C33.942,19.321 34.000,19.653 34.000,20.000 C34.000,22.209 32.209,24.000 30.000,24.000 C27.791,24.000 26.000,22.209 26.000,20.000 C26.000,19.653 26.058,19.321 26.141,19.000 L25.859,19.000 C25.942,19.321 26.000,19.653 26.000,20.000 C26.000,22.209 24.209,24.000 22.000,24.000 C19.791,24.000 18.000,22.209 18.000,20.000 C18.000,19.653 18.058,19.321 18.141,19.000 L17.859,19.000 C17.942,19.321 18.000,19.653 18.000,20.000 C18.000,22.209 16.209,24.000 14.000,24.000 C11.791,24.000 10.000,22.209 10.000,20.000 C10.000,19.653 10.058,19.321 10.141,19.000 L9.859,19.000 C9.942,19.321 10.000,19.653 10.000,20.000 C10.000,22.209 8.209,24.000 6.000,24.000 C3.791,24.000 2.000,22.209 2.000,20.000 C2.000,19.059 2.338,18.206 2.882,17.523 C2.820,17.354 2.830,17.181 3.000,17.000 C4.254,15.667 8.579,11.375 10.000,10.000 L34.000,10.000 C35.350,11.187 41.000,17.000 41.000,17.000 C41.000,17.079 40.925,17.155 40.878,17.232 C41.570,17.951 42.000,18.923 42.000,20.000 Z" class="cls-2"/>
    <path d="M23.000,42.000 L23.000,33.000 C23.000,32.448 22.552,32.000 22.000,32.000 L16.000,32.000 C15.448,32.000 15.000,32.448 15.000,33.000 L15.000,42.000 L13.000,42.000 L13.000,32.000 C13.000,30.895 13.895,30.000 15.000,30.000 L23.000,30.000 C24.105,30.000 25.000,30.895 25.000,32.000 L25.000,42.000 L23.000,42.000 Z" class="cls-3"/>
    <path d="M13.000,44.000 L7.000,44.000 C5.895,44.000 5.000,43.105 5.000,42.000 L5.000,31.000 C5.000,30.796 5.039,30.603 5.098,30.418 C5.038,30.290 5.000,30.151 5.000,30.000 L5.000,28.000 C5.000,27.448 5.448,27.000 6.000,27.000 C6.552,27.000 7.000,27.448 7.000,28.000 L7.000,30.000 L7.000,41.000 C7.000,41.552 7.448,42.000 8.000,42.000 L12.000,42.000 C12.552,42.000 13.000,41.552 13.000,41.000 L13.000,30.000 L14.723,30.000 C14.894,30.295 15.000,30.634 15.000,31.000 L15.000,42.000 C15.000,43.105 14.105,44.000 13.000,44.000 Z" class="cls-3"/>
    <path d="M37.000,44.000 L25.000,44.000 C23.895,44.000 23.000,43.105 23.000,42.000 L23.000,32.000 L25.000,32.000 L25.000,41.000 C25.000,41.552 25.448,42.000 26.000,42.000 L36.000,42.000 C36.552,42.000 37.000,41.552 37.000,41.000 L37.000,32.000 L37.000,28.000 C37.000,27.448 37.448,27.000 38.000,27.000 C38.552,27.000 39.000,27.448 39.000,28.000 L39.000,32.000 L39.000,42.000 C39.000,43.105 38.105,44.000 37.000,44.000 Z" class="cls-3"/>
    <circle cx="31" cy="32" r="2" class="cls-4"/>
    <path d="M12.000,5.000 L32.000,5.000 C32.552,5.000 33.000,5.448 33.000,6.000 C33.000,6.552 32.552,7.000 32.000,7.000 L12.000,7.000 C11.448,7.000 11.000,6.552 11.000,6.000 C11.000,5.448 11.448,5.000 12.000,5.000 Z" class="cls-3"/>
  </g>
</svg>
