<svg xmlns="http://www.w3.org/2000/svg" xmlns:xlink="http://www.w3.org/1999/xlink" preserveAspectRatio="xMidYMid" width="44" height="44" viewBox="0 0 44 44">
  <defs>
    <style>
      .cls-1 {
        fill: #666;
        fill-rule: evenodd;
      }
    </style>
  </defs>
  <g>
    <path d="M20.000,21.000 L10.000,21.000 C9.448,21.000 9.000,20.552 9.000,20.000 C9.000,19.448 9.448,19.000 10.000,19.000 L20.000,19.000 C20.552,19.000 21.000,19.448 21.000,20.000 C21.000,20.552 20.552,21.000 20.000,21.000 ZM10.000,25.000 L15.000,25.000 C15.552,25.000 16.000,25.448 16.000,26.000 C16.000,26.552 15.552,27.000 15.000,27.000 L10.000,27.000 C9.448,27.000 9.000,26.552 9.000,26.000 C9.000,25.448 9.448,25.000 10.000,25.000 ZM10.000,31.000 L14.000,31.000 C14.552,31.000 15.000,31.448 15.000,32.000 C15.000,32.552 14.552,33.000 14.000,33.000 L10.000,33.000 C9.448,33.000 9.000,32.552 9.000,32.000 C9.000,31.448 9.448,31.000 10.000,31.000 ZM10.000,36.000 L15.000,36.000 C15.552,36.000 16.000,36.448 16.000,37.000 C16.000,37.552 15.552,38.000 15.000,38.000 L10.000,38.000 C9.448,38.000 9.000,37.552 9.000,37.000 C9.000,36.448 9.448,36.000 10.000,36.000 Z" class="cls-1"/>
    <path d="M37.000,21.000 L37.000,16.000 L7.000,16.000 L7.000,39.000 C7.000,40.105 7.895,41.000 9.000,41.000 L19.000,41.000 L19.000,43.000 L9.000,43.000 C6.791,43.000 5.000,41.209 5.000,39.000 L5.000,15.333 L5.000,14.000 L5.000,11.000 C5.000,7.686 7.686,5.000 11.000,5.000 L33.000,5.000 C36.314,5.000 39.000,7.686 39.000,11.000 L39.000,21.000 L37.000,21.000 ZM37.000,11.000 C37.000,8.791 35.209,7.000 33.000,7.000 L11.000,7.000 C8.791,7.000 7.000,8.791 7.000,11.000 L7.000,14.000 L37.000,14.000 L37.000,11.000 Z" class="cls-1"/>
    <path d="M37.442,39.027 L39.599,41.184 C39.989,41.575 39.989,42.208 39.599,42.599 C39.208,42.989 38.575,42.989 38.184,42.599 L36.027,40.442 C31.706,44.048 25.271,43.827 21.214,39.770 C16.918,35.474 16.918,28.510 21.214,24.214 C25.510,19.918 32.474,19.918 36.770,24.214 C40.827,28.271 41.048,34.706 37.442,39.027 ZM35.356,25.628 C31.841,22.113 26.143,22.113 22.628,25.628 C19.113,29.143 19.113,34.841 22.628,38.356 C26.143,41.871 31.841,41.871 35.356,38.356 C38.871,34.841 38.871,29.143 35.356,25.628 Z" class="cls-1"/>
  </g>
</svg>
