<svg xmlns="http://www.w3.org/2000/svg" xmlns:xlink="http://www.w3.org/1999/xlink" preserveAspectRatio="xMidYMid" width="44" height="44" viewBox="0 0 44 44">
  <defs>
    <style>
      .cls-1 {
        fill: #e62e46;
        fill-rule: evenodd;
      }
    </style>
  </defs>
  <g>
    <path d="M35.000,32.000 C34.375,32.459 33.552,33.000 33.000,33.000 L13.000,33.000 C10.791,33.000 9.000,31.209 9.000,29.000 L9.000,19.000 C9.000,17.895 9.895,17.000 11.000,17.000 L41.000,22.000 C42.292,22.281 43.000,22.677 43.000,24.000 L35.000,32.000 ZM12.000,19.000 C11.448,19.000 11.000,19.448 11.000,20.000 L11.000,28.000 C11.000,29.657 12.343,31.000 14.000,31.000 L32.000,31.000 C32.552,31.000 33.156,30.959 34.000,30.000 L40.000,24.000 L12.000,19.000 Z" class="cls-1"/>
    <path d="M7.000,34.000 L37.000,34.000 C37.552,34.000 38.000,34.448 38.000,35.000 C38.000,35.552 37.552,36.000 37.000,36.000 L7.000,36.000 C6.448,36.000 6.000,35.552 6.000,35.000 C6.000,34.448 6.448,34.000 7.000,34.000 Z" class="cls-1"/>
    <path d="M5.988,15.024 C6.539,14.998 7.008,15.423 7.035,15.975 L7.951,34.953 C7.977,35.505 7.552,35.973 7.000,36.000 C6.448,36.027 5.980,35.601 5.953,35.049 L5.037,16.071 C5.011,15.520 5.436,15.051 5.988,15.024 Z" class="cls-1"/>
    <path d="M12.000,43.000 C10.343,43.000 9.000,41.657 9.000,40.000 C9.000,38.343 10.343,37.000 12.000,37.000 C13.657,37.000 15.000,38.343 15.000,40.000 C15.000,41.657 13.657,43.000 12.000,43.000 ZM12.000,39.000 C11.448,39.000 11.000,39.448 11.000,40.000 C11.000,40.552 11.448,41.000 12.000,41.000 C12.552,41.000 13.000,40.552 13.000,40.000 C13.000,39.448 12.552,39.000 12.000,39.000 Z" class="cls-1"/>
    <path d="M32.000,43.000 C30.343,43.000 29.000,41.657 29.000,40.000 C29.000,38.343 30.343,37.000 32.000,37.000 C33.657,37.000 35.000,38.343 35.000,40.000 C35.000,41.657 33.657,43.000 32.000,43.000 ZM32.000,39.000 C31.448,39.000 31.000,39.448 31.000,40.000 C31.000,40.552 31.448,41.000 32.000,41.000 C32.552,41.000 33.000,40.552 33.000,40.000 C33.000,39.448 32.552,39.000 32.000,39.000 Z" class="cls-1"/>
    <path d="M-0.000,27.000 C-0.002,27.000 -0.004,26.999 -0.007,26.999 C-0.009,26.302 -0.007,25.571 -0.005,24.999 C-0.003,24.999 -0.002,25.000 -0.000,25.000 C0.552,25.000 1.000,24.552 1.000,24.000 C1.000,24.000 1.000,24.000 1.000,24.000 L1.000,21.184 C2.163,21.597 3.000,22.696 3.000,24.000 C3.000,25.657 1.657,27.000 -0.000,27.000 Z" class="cls-1"/>
    <path d="M25.000,18.333 L25.000,13.000 C25.000,11.895 24.105,11.000 23.000,11.000 L22.000,11.000 L22.000,10.000 C22.000,8.895 22.895,8.000 24.000,8.000 L34.000,8.000 C35.105,8.000 36.000,8.895 36.000,10.000 L36.000,20.167 L25.000,18.333 ZM24.000,14.000 L24.000,18.000 C24.000,18.056 23.988,18.109 23.983,18.164 L14.000,16.500 L14.000,14.000 C14.000,12.895 14.895,12.000 16.000,12.000 L22.000,12.000 C23.105,12.000 24.000,12.895 24.000,14.000 Z" class="cls-1"/>
    <path d="M4.000,16.000 C3.448,16.000 3.000,16.448 3.000,17.000 L1.000,17.000 C1.000,15.343 2.343,14.000 4.000,14.000 C5.657,14.000 7.000,15.343 7.000,17.000 L5.000,17.000 C5.000,16.448 4.552,16.000 4.000,16.000 Z" class="cls-1"/>
    <path d="M2.000,16.000 C2.552,16.000 3.000,16.448 3.000,17.000 L3.000,23.000 C3.000,23.552 2.552,24.000 2.000,24.000 C1.448,24.000 1.000,23.552 1.000,23.000 L1.000,17.000 C1.000,16.448 1.448,16.000 2.000,16.000 Z" class="cls-1"/>
  </g>
</svg>
