<svg xmlns="http://www.w3.org/2000/svg" xmlns:xlink="http://www.w3.org/1999/xlink" preserveAspectRatio="xMidYMid" width="44" height="44" viewBox="0 0 44 44">
  <defs>
    <style>
      .cls-1 {
        fill: #666;
        fill-rule: evenodd;
      }
    </style>
  </defs>
  <g>
    <path d="M37.000,17.000 L35.000,17.000 C33.343,17.000 32.000,15.657 32.000,14.000 L30.500,14.000 C30.224,14.000 30.000,13.776 30.000,13.500 L30.000,12.500 C30.000,12.224 30.224,12.000 30.500,12.000 L32.000,12.000 C32.000,10.343 33.343,9.000 35.000,9.000 L37.000,9.000 C38.657,9.000 40.000,10.343 40.000,12.000 L40.000,14.000 C40.000,15.657 38.657,17.000 37.000,17.000 ZM36.000,11.000 C34.895,11.000 34.000,11.895 34.000,13.000 C34.000,14.105 34.895,15.000 36.000,15.000 C37.105,15.000 38.000,14.105 38.000,13.000 C38.000,11.895 37.105,11.000 36.000,11.000 Z" class="cls-1"/>
    <path d="M13.500,14.000 L12.000,14.000 C12.000,15.657 10.657,17.000 9.000,17.000 L7.000,17.000 C5.343,17.000 4.000,15.657 4.000,14.000 L4.000,12.000 C4.000,10.343 5.343,9.000 7.000,9.000 L9.000,9.000 C10.657,9.000 12.000,10.343 12.000,12.000 L13.500,12.000 C13.776,12.000 14.000,12.224 14.000,12.500 L14.000,13.500 C14.000,13.776 13.776,14.000 13.500,14.000 ZM8.000,11.000 C6.895,11.000 6.000,11.895 6.000,13.000 C6.000,14.105 6.895,15.000 8.000,15.000 C9.105,15.000 10.000,14.105 10.000,13.000 C10.000,11.895 9.105,11.000 8.000,11.000 Z" class="cls-1"/>
    <path d="M32.000,44.000 L12.000,44.000 C10.895,44.000 10.000,43.105 10.000,42.000 L10.000,33.000 C10.000,30.110 11.538,27.158 13.835,25.456 C14.414,25.948 15.123,26.378 15.916,26.745 C13.604,27.888 12.000,30.246 12.000,33.000 L12.000,40.000 C12.000,41.105 12.895,42.000 14.000,42.000 L30.000,42.000 C31.105,42.000 32.000,41.105 32.000,40.000 L32.000,33.000 C32.000,30.246 30.396,27.888 28.084,26.745 C28.877,26.378 29.586,25.948 30.165,25.456 C32.462,27.158 34.000,30.110 34.000,33.000 L34.000,42.000 C34.000,43.105 33.105,44.000 32.000,44.000 Z" class="cls-1"/>
    <path d="M15.885,24.551 C17.352,25.429 19.532,26.000 22.000,26.000 C24.372,26.000 26.480,25.474 27.945,24.654 C28.698,25.038 29.398,25.387 29.946,25.633 C28.119,27.069 25.244,28.000 22.000,28.000 C18.611,28.000 15.622,26.986 13.813,25.439 C14.428,25.191 15.137,24.884 15.885,24.551 Z" class="cls-1"/>
    <path d="M30.000,23.000 C29.448,23.000 29.000,22.552 29.000,22.000 L29.000,17.000 C29.000,15.895 28.105,15.000 27.000,15.000 L17.000,15.000 C15.895,15.000 15.000,15.895 15.000,17.000 L15.000,22.000 C15.000,22.552 14.552,23.000 14.000,23.000 C13.448,23.000 13.000,22.552 13.000,22.000 L13.000,17.000 C13.000,15.343 14.343,14.000 16.000,14.000 L28.000,14.000 C29.657,14.000 31.000,15.343 31.000,17.000 L31.000,22.000 C31.000,22.552 30.552,23.000 30.000,23.000 Z" class="cls-1"/>
    <path d="M11.969,32.500 L11.969,35.500 C11.969,37.433 10.409,39.000 8.484,39.000 C6.560,39.000 5.000,37.433 5.000,35.500 L5.000,35.000 C5.000,33.067 10.786,28.191 11.969,27.000 C12.066,26.902 11.969,30.567 11.969,32.500 ZM10.000,32.000 C9.991,31.900 7.615,34.033 7.201,34.750 C6.787,35.467 7.033,36.385 7.750,36.799 C8.467,37.213 9.385,36.967 9.799,36.250 C10.213,35.533 10.075,32.824 10.000,32.000 Z" class="cls-1"/>
    <path d="M35.516,39.000 C33.591,39.000 32.031,37.433 32.031,35.500 L32.031,32.500 C32.031,30.567 31.934,26.902 32.031,27.000 C33.214,28.191 39.000,33.067 39.000,35.000 L39.000,35.500 C39.000,37.433 37.440,39.000 35.516,39.000 ZM36.799,34.750 C36.385,34.033 34.009,31.900 34.000,32.000 C33.925,32.824 33.787,35.533 34.201,36.250 C34.615,36.967 35.533,37.213 36.250,36.799 C36.967,36.385 37.213,35.467 36.799,34.750 Z" class="cls-1"/>
    <path d="M22.000,3.000 C19.239,3.000 17.000,5.239 17.000,8.000 L15.000,8.000 C15.000,4.134 18.134,1.000 22.000,1.000 C25.866,1.000 29.000,4.134 29.000,8.000 L27.000,8.000 C27.000,5.239 24.761,3.000 22.000,3.000 Z" class="cls-1"/>
    <path d="M29.000,16.000 L15.000,16.000 C13.895,16.000 13.000,15.105 13.000,14.000 L13.000,10.000 C13.000,8.895 13.895,8.000 15.000,8.000 L17.000,8.000 C17.000,8.315 17.045,8.998 17.000,9.000 L16.000,9.000 C15.448,9.000 15.000,9.448 15.000,10.000 L15.000,13.000 C15.000,13.552 15.448,14.000 16.000,14.000 L28.000,14.000 C28.552,14.000 29.000,13.552 29.000,13.000 L29.000,10.000 C29.000,9.454 28.561,9.013 28.017,9.003 C28.086,9.001 28.106,9.000 28.000,9.000 L27.000,9.000 C27.036,8.998 27.000,8.206 27.000,8.000 L29.000,8.000 C30.105,8.000 31.000,8.895 31.000,10.000 L31.000,14.000 C31.000,15.105 30.105,16.000 29.000,16.000 Z" class="cls-1"/>
  </g>
</svg>
