<svg xmlns="http://www.w3.org/2000/svg" xmlns:xlink="http://www.w3.org/1999/xlink" preserveAspectRatio="xMidYMid" width="44" height="44" viewBox="0 0 44 44">
  <defs>
    <style>
      .cls-1, .cls-2 {
        fill: #e62e46;
      }

      .cls-1 {
        fill-rule: evenodd;
      }
    </style>
  </defs>
  <g>
    <path d="M32.000,44.000 L12.000,44.000 C10.895,44.000 10.000,43.105 10.000,42.000 L10.000,33.000 C10.000,30.110 11.538,27.158 13.835,25.456 C14.414,25.948 15.123,26.378 15.916,26.745 C13.604,27.888 12.000,30.246 12.000,33.000 L12.000,40.000 C12.000,41.105 12.895,42.000 14.000,42.000 L30.000,42.000 C31.105,42.000 32.000,41.105 32.000,40.000 L32.000,33.000 C32.000,30.246 30.396,27.888 28.084,26.745 C28.877,26.378 29.586,25.948 30.165,25.456 C32.462,27.158 34.000,30.110 34.000,33.000 L34.000,42.000 C34.000,43.105 33.105,44.000 32.000,44.000 Z" class="cls-1"/>
    <path d="M15.885,24.551 C17.352,25.429 19.532,26.000 22.000,26.000 C24.372,26.000 26.480,25.474 27.945,24.654 C28.698,25.038 29.398,25.387 29.946,25.633 C28.119,27.069 25.244,28.000 22.000,28.000 C18.611,28.000 15.622,26.986 13.813,25.439 C14.428,25.191 15.137,24.884 15.885,24.551 Z" class="cls-1"/>
    <path d="M37.000,17.000 L35.000,17.000 C33.343,17.000 32.000,15.657 32.000,14.000 L30.500,14.000 C30.224,14.000 30.000,13.776 30.000,13.500 L30.000,12.500 C30.000,12.224 30.224,12.000 30.500,12.000 L32.000,12.000 C32.000,10.343 33.343,9.000 35.000,9.000 L37.000,9.000 C38.657,9.000 40.000,10.343 40.000,12.000 L40.000,14.000 C40.000,15.657 38.657,17.000 37.000,17.000 Z" class="cls-1"/>
    <path d="M13.500,14.000 L12.000,14.000 C12.000,15.657 10.657,17.000 9.000,17.000 L7.000,17.000 C5.343,17.000 4.000,15.657 4.000,14.000 L4.000,12.000 C4.000,10.343 5.343,9.000 7.000,9.000 L9.000,9.000 C10.657,9.000 12.000,10.343 12.000,12.000 L13.500,12.000 C13.776,12.000 14.000,12.224 14.000,12.500 L14.000,13.500 C14.000,13.776 13.776,14.000 13.500,14.000 Z" class="cls-1"/>
    <path d="M30.000,23.000 C29.448,23.000 29.000,22.552 29.000,22.000 L29.000,17.000 C29.000,15.895 28.105,15.000 27.000,15.000 L17.000,15.000 C15.895,15.000 15.000,15.895 15.000,17.000 L15.000,22.000 C15.000,22.552 14.552,23.000 14.000,23.000 C13.448,23.000 13.000,22.552 13.000,22.000 L13.000,17.000 C13.000,15.343 14.343,14.000 16.000,14.000 L28.000,14.000 C29.657,14.000 31.000,15.343 31.000,17.000 L31.000,22.000 C31.000,22.552 30.552,23.000 30.000,23.000 Z" class="cls-1"/>
    <path d="M32.031,27.000 C33.214,28.191 39.000,33.067 39.000,35.000 L39.000,35.500 C39.000,37.433 37.440,39.000 35.516,39.000 C33.591,39.000 32.031,37.433 32.031,35.500 L32.031,32.500 C32.031,30.567 31.934,26.902 32.031,27.000 Z" class="cls-1"/>
    <path d="M11.969,27.000 C10.786,28.191 5.000,33.067 5.000,35.000 L5.000,35.500 C5.000,37.433 6.560,39.000 8.484,39.000 C10.409,39.000 11.969,37.433 11.969,35.500 L11.969,32.500 C11.969,30.567 12.066,26.902 11.969,27.000 Z" class="cls-1"/>
    <circle cx="22" cy="8" r="7" class="cls-2"/>
    <path d="M29.000,16.000 L15.000,16.000 C13.895,16.000 13.000,15.105 13.000,14.000 L13.000,10.000 C13.000,8.895 13.895,8.000 15.000,8.000 L17.000,8.000 C17.000,8.360 15.172,9.000 16.000,9.000 L28.000,9.000 C28.828,9.000 27.000,8.516 27.000,8.000 L29.000,8.000 C30.105,8.000 31.000,8.895 31.000,10.000 L31.000,14.000 C31.000,15.105 30.105,16.000 29.000,16.000 Z" class="cls-1"/>
  </g>
</svg>
