<?xml version="1.0" encoding="UTF-8" standalone="no"?>
<svg width="20px" height="11px" viewBox="0 0 20 11" version="1.1" xmlns="http://www.w3.org/2000/svg" xmlns:xlink="http://www.w3.org/1999/xlink" xmlns:sketch="http://www.bohemiancoding.com/sketch/ns">
    <!-- Generator: Sketch 3.5.2 (25235) - http://www.bohemiancoding.com/sketch -->
    <title>Imported Layers Copy 13 + Imported Layers Copy 14</title>
    <desc>Created with Sketch.</desc>
    <defs></defs>
    <g id="进货宝" stroke="none" stroke-width="1" fill="none" fill-rule="evenodd" sketch:type="MSPage">
        <g id="选择区域" sketch:type="MSArtboardGroup" transform="translate(-586.000000, -322.000000)" fill="#E62E46">
            <g id="address-copy-2" sketch:type="MSLayerGroup" transform="translate(0.000000, 282.000000)">
                <g id="Imported-Layers-Copy-13-+-Imported-Layers-Copy-14" transform="translate(596.000000, 46.000000) scale(1, -1) translate(-596.000000, -46.000000) translate(584.000000, 34.000000)" sketch:type="MSShapeGroup">
                    <path d="M17.434325,12.8370646 C17.3874282,12.9710646 17.3185796,13.1000646 17.2108166,13.2080646 C17.1719022,13.2460646 17.1230098,13.2640646 17.0801042,13.2950646 L8.15274062,22.2230646 C7.78055927,22.5950646 7.17289587,22.5900646 6.79472769,22.2120646 C6.4175573,21.8350646 6.41256828,21.2270646 6.78474963,20.8550646 L15.1353817,12.5040646 L6.77477158,4.14606459 C6.40259022,3.77406459 6.40757925,3.16706459 6.78574744,2.78806459 C7.16391563,2.41006459 7.77257683,2.40506459 8.14475818,2.77606459 L17.0252249,11.6540646 C17.0930756,11.6950646 17.1639198,11.7270646 17.2217925,11.7860646 C17.4263426,11.9900646 17.5121538,12.2610646 17.4971867,12.5260646 C17.4862109,12.6430646 17.4732394,12.7430646 17.434325,12.8370646 Z" id="Imported-Layers-Copy-14" transform="translate(11.998847, 12.500000) rotate(-270.000000) translate(-11.998847, -12.500000) "></path>
                </g>
            </g>
        </g>
    </g>
</svg>