<?xml version="1.0" encoding="UTF-8" standalone="no"?>
<svg width="102px" height="78px" viewBox="0 0 102 78" version="1.1" xmlns="http://www.w3.org/2000/svg" xmlns:xlink="http://www.w3.org/1999/xlink">
    <!-- Generator: Sketch 3.8.2 (29753) - http://www.bohemiancoding.com/sketch -->
    <title>camera copy</title>
    <desc>Created with Sketch.</desc>
    <defs>
        <path d="M29.3333333,61.9987008 C29.3333333,56.4765708 33.8067636,52 39.3370523,52 L56.1770833,52 C57.3841146,52 63.2332899,41.3333333 66.7613932,41.3333333 L93.4742839,41.3333333 C97.0066189,41.3333333 102.722331,52 104.071289,52 L120.673972,52 C126.192785,52 130.666667,56.4777066 130.666667,61.9987008 L130.666667,108.667966 C130.666667,114.190096 126.181749,118.666667 120.673111,118.666667 L39.3268885,118.666667 C33.8076004,118.666667 29.3333333,114.18896 29.3333333,108.667966 L29.3333333,61.9987008 Z" id="path-1"></path>
        <mask id="mask-2" maskContentUnits="userSpaceOnUse" maskUnits="objectBoundingBox" x="0" y="0" width="101.333333" height="77.3333333" fill="white">
            <use xlink:href="#path-1"></use>
        </mask>
    </defs>
    <g id="我的" stroke="none" stroke-width="1" fill="none" fill-rule="evenodd">
        <g id="认证地址" transform="translate(-270.000000, -799.000000)" stroke="#C0C0C0">
            <g id="Group-4" transform="translate(33.000000, 231.000000)">
                <g id="Group-3" transform="translate(0.000000, 445.000000)">
                    <g id="camera-copy" transform="translate(208.000000, 82.000000)">
                        <use id="Rectangle-353" mask="url(#mask-2)" stroke-width="6" xlink:href="#path-1"></use>
                        <circle id="Oval-160" stroke-width="3" cx="80" cy="84" r="22.6666667"></circle>
                    </g>
                </g>
            </g>
        </g>
    </g>
</svg>