<?xml version="1.0" encoding="UTF-8" standalone="no"?>
<svg width="14px" height="8px" viewBox="0 0 14 8" version="1.1" xmlns="http://www.w3.org/2000/svg" xmlns:xlink="http://www.w3.org/1999/xlink" xmlns:sketch="http://www.bohemiancoding.com/sketch/ns">
    <!-- Generator: Sketch 3.5.2 (25235) - http://www.bohemiancoding.com/sketch -->
    <title>Imported Layers Copy 13 + Imported Layers Copy 14</title>
    <desc>Created with Sketch.</desc>
    <defs></defs>
    <g id="进货宝" stroke="none" stroke-width="1" fill="none" fill-rule="evenodd" sketch:type="MSPage">
        <g id="首页－定位提示" sketch:type="MSArtboardGroup" transform="translate(-145.000000, -81.000000)" fill="#FFFFFF">
            <g id="NavigationBar(WithBack)-Copy" sketch:type="MSLayerGroup">
                <g id="Imported-Layers-Copy-13-+-Imported-Layers-Copy-14" transform="translate(140.000000, 72.000000)" sketch:type="MSShapeGroup">
                    <path d="M15.934325,13.3370646 C15.8874282,13.4710646 15.8185796,13.6000646 15.7108166,13.7080646 C15.6719022,13.7460646 15.6230098,13.7640646 15.5801042,13.7950646 L9.65274062,19.7230646 C9.28055927,20.0950646 8.67289587,20.0900646 8.29472769,19.7120646 C7.9175573,19.3350646 7.91256828,18.7270646 8.28474963,18.3550646 L13.6353817,13.0040646 L8.27477158,7.64606459 C7.90259022,7.27406459 7.90757925,6.66706459 8.28574744,6.28806459 C8.66391563,5.91006459 9.27257683,5.90506459 9.64475818,6.27606459 L15.5252249,12.1540646 C15.5930756,12.1950646 15.6639198,12.2270646 15.7217925,12.2860646 C15.9263426,12.4900646 16.0121538,12.7610646 15.9971867,13.0260646 C15.9862109,13.1430646 15.9732394,13.2430646 15.934325,13.3370646 Z" id="Imported-Layers-Copy-14" transform="translate(11.998847, 13.000000) rotate(-270.000000) translate(-11.998847, -13.000000) "></path>
                </g>
            </g>
        </g>
    </g>
</svg>