<?xml version="1.0" encoding="UTF-8" standalone="no"?>
<svg width="35px" height="34px" viewBox="0 0 35 34" version="1.1" xmlns="http://www.w3.org/2000/svg" xmlns:xlink="http://www.w3.org/1999/xlink">
    <!-- Generator: Sketch 3.8.3 (29802) - http://www.bohemiancoding.com/sketch -->
    <title>48_34</title>
    <desc>Created with Sketch.</desc>
    <defs></defs>
    <g id="活动二级界面" stroke="none" stroke-width="1" fill="none" fill-rule="evenodd">
        <g id="秒杀" transform="translate(-574.000000, -65.000000)" fill="#E62E46">
            <g id="NavigationBar(WithBack)-Copy">
                <g id="48_34" transform="translate(568.000000, 58.000000)">
                    <path d="M35.9954504,41 L11.9954504,41 C9.23845044,41 6.99545044,38.7585163 6.99545044,36.0033801 L6.99545044,25.0108162 C6.99545044,24.4591894 7.44345044,24.0114922 7.99545044,24.0114922 C8.54745044,24.0114922 8.99545044,24.4591894 8.99545044,25.0108162 L8.99545044,36.0033801 C8.99545044,37.6562619 10.3414504,39.001352 11.9954504,39.001352 L35.9954504,39.001352 C37.6494504,39.001352 38.9954504,37.6562619 38.9954504,36.0033801 L38.9954504,25.0108162 C38.9954504,24.4591894 39.4424504,24.0114922 39.9954504,24.0114922 C40.5484504,24.0114922 40.9954504,24.4591894 40.9954504,25.0108162 L40.9954504,36.0033801 C40.9954504,38.7585163 38.7524504,41 35.9954504,41 L35.9954504,41 Z M33.3104504,18.7090792 L24.9954504,10.3957029 L24.9954504,30.0074361 C24.9954504,30.559063 24.5474504,31.0067601 23.9954504,31.0067601 C23.4434504,31.0067601 22.9954504,30.559063 22.9954504,30.0074361 L22.9954504,10.3957029 L14.6804504,18.7090792 C14.2934504,19.0968169 13.6654504,19.0968169 13.2774504,18.7090792 C12.8904504,18.3223408 12.8904504,17.693766 13.2774504,17.3060283 L23.2934504,7.29080328 C23.6814504,6.90306557 24.3094504,6.90306557 24.6974504,7.29080328 L34.7134504,17.3060283 C35.1004504,17.693766 35.1004504,18.3223408 34.7134504,18.7090792 C34.3254504,19.0968169 33.6974504,19.0968169 33.3104504,18.7090792 L33.3104504,18.7090792 Z" id="Imported-Layers"></path>
                </g>
            </g>
        </g>
    </g>
</svg>