<svg xmlns="http://www.w3.org/2000/svg" xmlns:xlink="http://www.w3.org/1999/xlink" preserveAspectRatio="xMidYMid" width="58" height="58" viewBox="0 0 58 58">
  <defs>
    <style>
      .cls-1 {
        fill: #fff;
        fill-rule: evenodd;
      }
    </style>
  </defs>
  <g>
    <path d="M29.000,58.000 C12.984,58.000 -0.000,45.016 -0.000,29.000 C-0.000,12.984 12.984,-0.000 29.000,-0.000 C45.016,-0.000 58.000,12.984 58.000,29.000 C58.000,45.016 45.016,58.000 29.000,58.000 ZM29.000,4.000 C15.193,4.000 4.000,15.193 4.000,29.000 C4.000,42.807 15.193,54.000 29.000,54.000 C42.807,54.000 54.000,42.807 54.000,29.000 C54.000,15.193 42.807,4.000 29.000,4.000 Z" class="cls-1"/>
    <path d="M31.828,29.000 L42.081,39.253 C42.667,39.839 42.667,40.789 42.081,41.374 L41.374,42.081 C40.789,42.667 39.839,42.667 39.253,42.081 L29.000,31.828 L18.747,42.081 C18.161,42.667 17.211,42.667 16.626,42.081 L15.919,41.374 C15.333,40.789 15.333,39.839 15.919,39.253 L26.172,29.000 L15.919,18.747 C15.333,18.161 15.333,17.211 15.919,16.626 L16.626,15.919 C17.211,15.333 18.161,15.333 18.747,15.919 L29.000,26.172 L39.253,15.919 C39.839,15.333 40.789,15.333 41.374,15.919 L42.081,16.626 C42.667,17.211 42.667,18.161 42.081,18.747 L31.828,29.000 Z" class="cls-1"/>
  </g>
</svg>
