<?xml version="1.0" encoding="UTF-8" standalone="no"?>
<svg width="137px" height="27px" viewBox="0 0 137 27" version="1.1" xmlns="http://www.w3.org/2000/svg" xmlns:xlink="http://www.w3.org/1999/xlink">
    <!-- Generator: Sketch 3.8.2 (29753) - http://www.bohemiancoding.com/sketch -->
    <title>Page 1</title>
    <desc>Created with Sketch.</desc>
    <defs></defs>
    <g id="扶뒬못" stroke="none" stroke-width="1" fill="none" fill-rule="evenodd">
        <g id="扶뒬못-" transform="translate(-16.000000, -507.000000)">
            <g id="Page-1" transform="translate(16.000000, 507.000000)">
                <path d="M2.02902985,4.62278084 L8.15652985,4.62278084 L8.0718806,0.530920295 L2.04604478,0.459538209 L2.02902985,4.62278084 Z M18.9405896,0.510830726 L18.9405896,4.9561822 L16.811597,4.9561822 L16.811597,0.510830726 L11.1430746,0.510830726 L11.1430746,4.9561822 L9.73296269,4.9561822 L9.73296269,7.06772415 L11.1430746,7.06772415 L11.1430746,14.3474146 L9.53941791,14.3474146 L9.53941791,16.459384 L11.2915299,16.459384 L11.2685597,23.4330291 L16.9647313,23.4330291 L16.9328284,16.459384 L18.9405896,16.459384 L18.9405896,23.4330291 L24.6367612,23.4330291 L24.6367612,16.459384 L26.1017463,16.459384 L26.1017463,14.3474146 L24.6367612,14.3474146 L24.6367612,7.06772415 L25.9082015,7.06772415 L25.9082015,4.9561822 L24.6367612,4.9561822 L24.6367612,0.510830726 L18.9405896,0.510830726 Z M16.811597,14.3474146 L18.9405896,14.3474146 L18.9405896,7.06772415 L16.811597,7.06772415 L16.811597,14.3474146 Z M0,5.40114478 L0,7.76273776 L2.26766418,7.76273776 L2.29488806,17.6258613 L2.28552985,26.5447752 L30.0411269,26.5447752 L30.0411269,24.4332332 L8.50661194,24.4332332 L8.50661194,14.553867 L8.50448507,5.40028991 L0,5.40114478 Z" id="Fill-1" fill="#050001"></path>
                <path d="M65.1146306,0.42730941 L65.1146306,2.67819603 L55.3812425,2.67819603 L55.3812425,7.92926746 L61.7967201,7.92926746 L61.7967201,4.78973798 L74.9858396,4.78973798 L74.9858396,7.92926746 L81.4281157,7.92926746 L81.4281157,2.67819603 L71.6675037,2.67819603 L71.6675037,0.42730941 L65.1146306,0.42730941 Z M55.9899515,9.54113481 L55.9899515,11.6522493 L65.1146306,11.6522493 L65.1146306,16.3758627 L56.6531082,16.3758627 L56.6531082,18.4596212 L65.1146306,18.4596212 L65.1146306,24.4334897 L55.4369664,24.4334897 L55.4369664,26.5450316 L82.6208619,26.5450316 L82.6208619,24.4334897 L78.7746381,24.4334897 L78.8261082,19.6944885 L73.4021754,19.7295384 L73.4094067,24.4334897 L71.6675037,24.4334897 L71.6675037,18.4596212 L80.1286007,18.4596212 L80.1286007,16.3758627 L71.6675037,16.3758627 L71.6675037,11.6522493 L80.7921828,11.6522493 L80.7921828,9.54113481 L55.9899515,9.54113481 Z" id="Fill-2" fill="#050001"></path>
                <polygon id="Fill-3" fill="#C6241E" points="93.7036612 0.483090023 93.7036612 13.3472533 82.9753254 13.3472533 82.9753254 15.4310118 90.523997 15.4310118 84.1918925 24.433276 82.5499522 24.433276 82.5499522 26.5448179 90.4410493 26.5448179 96.0266239 18.4038406 101.694721 26.5448179 111.231587 26.5448179 111.231587 24.433276 107.971527 24.433276 101.611348 15.4310118 109.105146 15.4310118 109.105146 13.3472533 100.284184 13.3472533 100.284184 0.483090023"></polygon>
                <g id="Group-20" transform="translate(0.000000, 0.049583)">
                    <g id="Group-6" transform="translate(110.597015, 0.427438)" fill="#C6241E">
                        <path d="M18.4148709,4.7574237 L18.4148709,3.70122528 L8.32289328,3.70122528 L7.88050522,4.78477971 L13.1062142,6.73004841 L18.4148709,4.7574237 Z M7.2998709,18.9829759 L5.69578881,26.0677548 L4.25373137e-05,26.0677548 L1.60369925,18.9829759 L7.2998709,18.9829759 Z M4.25373137e-05,15.3433443 L9.87082612,15.3433443 L9.87082612,13.3702922 L16.4798485,13.3702922 L16.4798485,15.3433443 L26.1847366,15.3433443 L26.1847366,17.4544588 L16.4798485,17.4544588 L16.4798485,23.4283273 C16.4556022,26.3233625 16.934147,26.0677548 13.8803933,26.0677548 L7.54828881,26.0677548 L7.54828881,23.9562128 L9.12472164,23.9562128 C9.53946045,23.9562128 9.87082612,23.6228115 9.87082612,23.1782763 L9.87082612,17.4544588 L4.25373137e-05,17.4544588 L4.25373137e-05,15.3433443 Z M0.0553410448,10.8975654 L1.85254254,10.8975654 L7.10590075,8.95229671 L4.81101269,8.0914373 L4.25373137e-05,8.0914373 L3.42855,0.00602687075 L9.89890075,0.00602687075 L9.23489328,1.58968333 L24.9405201,1.58968333 L24.9405201,6.78561531 L19.0788784,8.95229671 L24.3598858,10.8975654 L26.1847366,10.8975654 L26.1847366,13.175808 L18.5811918,13.175808 L13.1062142,11.1753999 L7.65888582,13.175808 L0.0553410448,13.175808 L0.0553410448,10.8975654 Z M24.16861,17.4607368 L26.1847366,26.0677548 L20.4885649,26.0677548 L18.500513,17.4607368 L24.16861,17.4607368 Z" id="Fill-4"></path>
                    </g>
                    <polygon id="Fill-7" fill="#050001" points="52.5570201 10.0469645 46.6396545 10.0469645 46.6396545 6.54625023 52.5846694 5.24000079 52.5846694 3.12845884 46.6396545 4.43428084 46.6396545 0.405681066 40.1144306 0.405681066 40.1144306 5.87944751 40.1144306 7.99056202 40.1144306 12.1585065 52.5570201 12.1585065"></polygon>
                    <polygon id="Fill-9" fill="#050001" points="52.6281 12.8808333 29.6783687 12.8808333 29.6783687 21.5496961 32.418197 21.5496961 35.8441522 19.2761553 35.8441522 14.9645918 46.461891 14.9645918 46.461891 19.2697438 49.8699806 21.5496961 52.6281 21.5496961"></polygon>
                    <polygon id="Fill-11" fill="#050001" points="30.8121157 12.1586774 36.8949515 12.1586774 36.8949515 1.22012075 37.2271679 0.405424603 31.0056604 0.405424603 28.0744142 7.68511508 30.8121157 7.68511508"></polygon>
                    <polygon id="Fill-13" fill="#050001" points="55.4802269 24.3836505 52.2835478 24.3836505 48.0659731 21.5497389 48.0761821 21.5497389 44.6068388 19.2283251 44.6089657 19.2249056 44.388197 19.0770121 44.388197 15.7425711 37.9182716 15.7425711 37.9182716 19.0770121 37.7323836 19.2013965 37.740891 19.2142196 33.508003 22.0233398 29.9952716 24.3836505 29.8038537 24.3836505 29.8038537 26.4951924 36.3354582 26.4951924 41.1532343 23.2445291 45.9650552 26.4951924 55.4751224 26.4951924"></polygon>
                    <polygon id="Fill-15" fill="#050001" points="2.31534851 24.3836505 2.31534851 26.4951924 0.727430597 26.4951924 0.978826119 24.3836505"></polygon>
                    <polygon id="Fill-17" fill="#CF1C1B" points="84.1770896 12.5850465 89.0003955 12.5850465 89.0003955 6.52697279 84.1770896 6.52697279"></polygon>
                    <polygon id="Fill-19" fill="#CF1C1B" points="86.3039552 6.6009195 91.1272612 6.6009195 91.1272612 0.542845805 86.3039552 0.542845805"></polygon>
                </g>
            </g>
        </g>
    </g>
</svg>