<?xml version="1.0" encoding="utf-8"?>
<!-- Generator: Adobe Illustrator 19.0.0, SVG Export Plug-In . SVG Version: 6.00 Build 0)  -->
<svg version="1.1" id="图层_1" xmlns="http://www.w3.org/2000/svg" xmlns:xlink="http://www.w3.org/1999/xlink" x="0px" y="0px"
	 viewBox="0 0 120 120" style="enable-background:new 0 0 120 120;" xml:space="preserve">
<style type="text/css">
	.st0{fill:#C0C2C2;}
</style>
<g id="XMLID_9_">
	<path id="XMLID_10_" class="st0" d="M110.6,44.9c0-4.7-3.9-8.6-8.7-8.6h-6.8c2.8-2.7,4.6-6.5,4.6-10.7c0-8.3-6.8-15-15.3-15
		c-8.6,0-14.2,8.4-17.6,16.3c-1.8-0.8-4-1.3-6.4-1.3c-2.4,0-4.6,0.5-6.4,1.3c-3.4-7.9-9-16.3-17.6-16.3c-7.1,0-13.1,4.9-14.8,11.4
		c1.4,0.3,2.8,0.7,4.2,1.1c1.2-4.7,5.4-8.2,10.6-8.2c6.3,0,11,7.4,13.9,14.7c-0.5,0.7-0.7,1.4-0.8,2.1c0.2,0,0.5-0.1,0.6-0.1
		c-0.3,0.1-0.5,0.2-0.7,0.3c0,0.1,0,0.2,0,0.2c0,1.4,0.8,2.6,2.1,3.7c0,0,0,0,0,0c-2.8,0.9-8.3,0.8-18.4-4.7
		C10.7,18.8,0.8,30.6,0.7,30.7C0,31.6,0.1,33,1,33.7c0.9,0.7,2.3,0.6,3.1-0.3c0.1-0.1,7.7-9.1,26.9,1.4c6.9,3.8,12.8,5.7,17.6,5.7
		c1,0,1.9-0.1,2.7-0.3c0.1,0.1,0.2,0.3,0.2,0.4h6.7v17.2H14.6V44.9c0-2.4,2-4.3,4.4-4.3h14.5c-1.5-0.7-3-1.4-4.5-2.3
		c-1.5-0.8-2.9-1.5-4.3-2H19c-4.8,0-8.7,3.9-8.7,8.6v17.2h6.5v38.7c0,4.8,3.9,8.6,8.7,8.6h69.8c4.8,0,8.7-3.8,8.7-8.6V62.2h6.6
		L110.6,44.9L110.6,44.9z M58.3,105.1H25.5c-2.4,0-4.4-1.9-4.4-4.3V62.1h37.1V105.1L58.3,105.1z M71.4,32.1c0-0.9-0.3-1.8-0.9-2.5
		c3-7.3,7.7-14.7,13.9-14.7c6,0,10.9,4.8,10.9,10.7c0,5.9-4.9,10.7-10.9,10.7H68.6C70.3,35.2,71.4,33.7,71.4,32.1L71.4,32.1
		L71.4,32.1z M60.5,34.2c-0.9,0-1.7-0.1-2.5-0.2c-0.2-0.4-0.5-0.7-0.9-0.9c-0.7-0.3-1.4-0.2-2.1,0.1c-0.7-0.3-1.1-0.7-1.1-1.2
		c0-1.2,2.9-2.2,6.5-2.2c3.6,0,6.5,1,6.5,2.2C67,33.2,64.1,34.2,60.5,34.2L60.5,34.2L60.5,34.2z M99.7,100.8c0,2.4-2,4.3-4.4,4.3
		H62.6v-43h37.1V100.8L99.7,100.8z M106.3,57.8H62.6V40.7h39.3c2.4,0,4.4,1.9,4.4,4.3V57.8L106.3,57.8z M106.3,57.8"/>
</g>
</svg>
