<?xml version="1.0" encoding="UTF-8" standalone="no"?>
<svg width="32px" height="32px" viewBox="0 0 32 32" version="1.1" xmlns="http://www.w3.org/2000/svg" xmlns:xlink="http://www.w3.org/1999/xlink">
    <!-- Generator: Sketch 3.8.1 (29687) - http://www.bohemiancoding.com/sketch -->
    <title>Artboard 3</title>
    <desc>Created with Sketch.</desc>
    <defs></defs>
    <g id="Page-1" stroke="none" stroke-width="1" fill="none" fill-rule="evenodd">
        <g id="Artboard-3" fill="#E62E46">
            <g id="Imported-Layers-Copy-21-+-Imported-Layers-Copy-4" transform="translate(4.000000, 4.000000)">
                <path d="M13,13 L13,22 C13,22.552 12.552,23 12,23 C11.447,23 11,22.552 11,22 L11,13 L2,13 C1.447,13 1,12.552 1,12 C1,11.448 1.447,11 2,11 L11,11 L11,2 C11,1.448 11.447,1 12,1 C12.552,1 13,1.448 13,2 L13,11 L22,11 C22.552,11 23,11.448 23,12 C23,12.552 22.552,13 22,13 L13,13 Z" id="Imported-Layers-Copy-4"></path>
            </g>
        </g>
    </g>
</svg>