<?xml version="1.0" encoding="UTF-8" standalone="no"?>
<svg width="30px" height="30px" viewBox="0 0 30 30" version="1.1" xmlns="http://www.w3.org/2000/svg" xmlns:xlink="http://www.w3.org/1999/xlink">
    <!-- Generator: Sketch 40.3 (33839) - http://www.bohemiancoding.com/sketch -->
    <title>Combined Shape</title>
    <desc>Created with Sketch.</desc>
    <defs></defs>
    <g id="购物车" stroke="none" stroke-width="1" fill="none" fill-rule="evenodd">
        <g id="选择优惠券-选中" transform="translate(-568.000000, -287.000000)" fill="#E62E46">
            <g id="Group-2" transform="translate(20.000000, 229.000000)">
                <g id="全选icon-copy" transform="translate(546.000000, 58.000000)">
                    <path d="M31.454205,5.0927903 C30.2901819,2.11473109 27.3915388,0 23.9999595,0 L10.0000405,0 C5.58890267,0 2,3.58174013 2,8.00004048 L2,21.9999595 C2,26.4110973 5.58174013,30 10.0000405,30 L23.9999595,30 C28.4110973,30 32,26.4182599 32,21.9999595 L32,8.00004048 C32,7.98364542 31.9999505,7.96726171 31.9998517,7.95088951 C31.9985797,7.95554582 31.997246,7.96001574 31.9958494,7.96429443 L18.5178221,22.02893 C18.3890832,22.1755308 17.8416661,23.0015036 17.073242,23.0035394 C16.32421,23.0015036 15.9840086,22.601806 15.7213133,22.3773187 L6.40856934,12.9707031 C6.15588497,12.6924331 6.04125975,11.974487 6.57214355,11.4566649 C7.10302735,10.9388427 7.8557885,11.178395 8.10778809,11.456665 L16.9276209,20.1728525 L31.454205,5.0927903 Z" id="Combined-Shape"></path>
                </g>
            </g>
        </g>
    </g>
</svg>