<?xml version="1.0" encoding="UTF-8" standalone="no"?>
<svg width="32px" height="32px" viewBox="0 0 32 32" version="1.1" xmlns="http://www.w3.org/2000/svg" xmlns:xlink="http://www.w3.org/1999/xlink">
    <!-- Generator: Sketch 3.8.1 (29687) - http://www.bohemiancoding.com/sketch -->
    <title>Artboard 3</title>
    <desc>Created with Sketch.</desc>
    <defs></defs>
    <g id="Page-1" stroke="none" stroke-width="1" fill="none" fill-rule="evenodd">
        <g id="Artboard-3" fill="#FFFFFF">
            <g id="Imported-Layers-Copy-21-+-Imported-Layers-Copy-4">
                <path d="M17,17 L17,26 C17,26.552 16.552,27 16,27 C15.447,27 15,26.552 15,26 L15,17 L6,17 C5.447,17 5,16.552 5,16 C5,15.448 5.447,15 6,15 L15,15 L15,6 C15,5.448 15.447,5 16,5 C16.552,5 17,5.448 17,6 L17,15 L26,15 C26.552,15 27,15.448 27,16 C27,16.552 26.552,17 26,17 L17,17 Z" id="Imported-Layers-Copy-4" transform="translate(16.000000, 16.000000) rotate(45.000000) translate(-16.000000, -16.000000) "></path>
            </g>
        </g>
    </g>
</svg>