<?xml version="1.0" encoding="UTF-8" standalone="no"?>
<svg width="42px" height="41px" viewBox="0 0 42 41" version="1.1" xmlns="http://www.w3.org/2000/svg" xmlns:xlink="http://www.w3.org/1999/xlink">
    <!-- Generator: Sketch 3.8.2 (29753) - http://www.bohemiancoding.com/sketch -->
    <title>Imported Layers Copy 3</title>
    <desc>Created with Sketch.</desc>
    <defs></defs>
    <g id="我的" stroke="none" stroke-width="1" fill="none" fill-rule="evenodd">
        <g id="我的订单－评价－星级-copy-12" transform="translate(-299.000000, -258.000000)" fill="#E0E0E0">
            <g id="Group" transform="translate(16.000000, 160.000000)">
                <g id="评星" transform="translate(154.000000, 89.000000)">
                    <g id="star">
                        <g id="Imported-Layers-Copy-20-+-Imported-Layers-Copy-3-Copy-Copy" transform="translate(120.000000, 0.000000)">
                            <path d="M41.4994767,49.370297 L29.9924767,44.0306931 L18.4844767,49.370297 C18.0234767,49.5821782 17.4784767,49.5376238 17.0644767,49.2455446 C16.6494767,48.9534653 16.4314767,48.4653465 16.4934767,47.970297 L18.0734767,35.4683168 L9.37147672,26.2772277 C9.02747672,25.9128713 8.91147672,25.3960396 9.06947672,24.9257426 C9.22747672,24.4544554 9.63347672,24.1049505 10.1314767,24.009901 L22.6194767,21.6366337 L28.7624767,10.6148515 C29.0074767,10.1742574 29.4794767,9.9009901 29.9924767,9.9009901 C30.5054767,9.9009901 30.9764767,10.1752475 31.2224767,10.6148515 L37.3644767,21.6366337 L49.8514767,24.009901 C50.3494767,24.1049505 50.7574767,24.4544554 50.9144767,24.9257426 C51.0724767,25.3960396 50.9564767,25.9128713 50.6124767,26.2762376 L41.9104767,35.4683168 L43.4904767,47.970297 C43.5534767,48.4653465 43.3344767,48.9534653 42.9204767,49.2455446 C42.6764767,49.4158416 42.3904767,49.5029703 42.1014767,49.5029703 C41.8964767,49.5029703 41.6914767,49.4584158 41.4994767,49.370297 Z" id="Imported-Layers-Copy-3"></path>
                        </g>
                    </g>
                </g>
            </g>
        </g>
    </g>
</svg>