<?xml version="1.0" encoding="UTF-8" standalone="no"?>
<svg width="42px" height="41px" viewBox="0 0 42 41" version="1.1" xmlns="http://www.w3.org/2000/svg" xmlns:xlink="http://www.w3.org/1999/xlink">
    <!-- Generator: Sketch 40.3 (33839) - http://www.bohemiancoding.com/sketch -->
    <title>Imported Layers Copy 20 + Imported Layers Copy 3 Copy Copy Copy Copy</title>
    <desc>Created with Sketch.</desc>
    <defs></defs>
    <g id="我的" stroke="none" stroke-width="1" fill="none" fill-rule="evenodd">
        <g id="我的订单－评价－星级-copy-8" transform="translate(-179.000000, -229.000000)" fill="#E62E46">
            <g id="Group" transform="translate(0.000000, 129.000000)">
                <g id="评星" transform="translate(179.000000, 100.000000)">
                    <g id="star">
                        <g id="Imported-Layers-Copy-20-+-Imported-Layers-Copy-3-Copy-Copy-Copy-Copy">
                            <path d="M32.4994767,40.370297 L20.9924767,35.0306931 L9.48447672,40.370297 C9.02347672,40.5821782 8.47847672,40.5376238 8.06447672,40.2455446 C7.64947672,39.9534653 7.43147672,39.4653465 7.49347672,38.970297 L9.07347672,26.4683168 L0.371476718,17.2772277 C0.0274767184,16.9128713 -0.0885232816,16.3960396 0.0694767184,15.9257426 C0.227476718,15.4544554 0.633476718,15.1049505 1.13147672,15.009901 L13.6194767,12.6366337 L19.7624767,1.61485149 C20.0074767,1.17425743 20.4794767,0.900990099 20.9924767,0.900990099 C21.5054767,0.900990099 21.9764767,1.17524752 22.2224767,1.61485149 L28.3644767,12.6366337 L40.8514767,15.009901 C41.3494767,15.1049505 41.7574767,15.4544554 41.9144767,15.9257426 C42.0724767,16.3960396 41.9564767,16.9128713 41.6124767,17.2762376 L32.9104767,26.4683168 L34.4904767,38.970297 C34.5534767,39.4653465 34.3344767,39.9534653 33.9204767,40.2455446 C33.6764767,40.4158416 33.3904767,40.5029703 33.1014767,40.5029703 C32.8964767,40.5029703 32.6914767,40.4584158 32.4994767,40.370297 Z" id="Imported-Layers-Copy-3"></path>
                        </g>
                    </g>
                </g>
            </g>
        </g>
    </g>
</svg>