<?xml version="1.0" encoding="UTF-8" standalone="no"?>
<svg width="50px" height="50px" viewBox="0 0 50 50" version="1.1" xmlns="http://www.w3.org/2000/svg" xmlns:xlink="http://www.w3.org/1999/xlink">
    <!-- Generator: Sketch 39.1 (31720) - http://www.bohemiancoding.com/sketch -->
    <title>Artboard 2 Copy 3</title>
    <desc>Created with Sketch.</desc>
    <defs>
        <rect id="path-1" x="4.3726457" y="0.131695469" width="5" height="12"></rect>
        <mask id="mask-2" maskContentUnits="userSpaceOnUse" maskUnits="objectBoundingBox" x="-1" y="-1" width="7" height="14">
            <rect x="3.3726457" y="-0.868304531" width="7" height="14" fill="white"></rect>
            <use xlink:href="#path-1" fill="black"></use>
        </mask>
        <rect id="path-3" x="26.3726457" y="0.131695469" width="5" height="12"></rect>
        <mask id="mask-4" maskContentUnits="userSpaceOnUse" maskUnits="objectBoundingBox" x="-1" y="-1" width="7" height="14">
            <rect x="25.3726457" y="-0.868304531" width="7" height="14" fill="white"></rect>
            <use xlink:href="#path-3" fill="black"></use>
        </mask>
        <path d="M0,0 L18,0 L18,17 C18,17 13.6812744,19 9.12084961,19 C4.5604248,19 0,17 0,17 L0,0 Z" id="path-5"></path>
        <mask id="mask-6" maskContentUnits="userSpaceOnUse" maskUnits="objectBoundingBox" x="-1" y="-1" width="20" height="21">
            <rect x="-1" y="-1" width="20" height="21" fill="white"></rect>
            <use xlink:href="#path-5" fill="black"></use>
        </mask>
        <path d="M0.705810547,8.00195312 C1.20381611,4.01790865 3.2578125,0.0260620117 3.2578125,0.0260620117 C3.2578125,0.0260620117 7.54266357,2 12.0284424,2 C16.5142212,2 20.7351074,0.0260620117 20.7351074,0.0260620117 C20.7351074,0.0260620117 22.7801151,3.52510042 23.3397217,8.00195312 C23.356819,8.13873181 24,17 24,17 L0,17 C0,17 0.207804988,11.9859976 0.705810547,8.00195312 Z" id="path-7"></path>
        <mask id="mask-8" maskContentUnits="userSpaceOnUse" maskUnits="objectBoundingBox" x="-1" y="-1" width="26" height="18.973938">
            <rect x="-1" y="-0.973937988" width="26" height="18.973938" fill="white"></rect>
            <use xlink:href="#path-7" fill="black"></use>
        </mask>
        <rect id="path-9" x="0" y="0" width="6" height="6" rx="2"></rect>
        <mask id="mask-10" maskContentUnits="userSpaceOnUse" maskUnits="objectBoundingBox" x="-1" y="-1" width="8" height="8">
            <rect x="-1" y="-1" width="8" height="8" fill="white"></rect>
            <use xlink:href="#path-9" fill="black"></use>
        </mask>
        <rect id="path-11" x="3" y="0" width="6" height="6" rx="2"></rect>
        <mask id="mask-12" maskContentUnits="userSpaceOnUse" maskUnits="objectBoundingBox" x="-1" y="-1" width="8" height="8">
            <rect x="2" y="-1" width="8" height="8" fill="white"></rect>
            <use xlink:href="#path-11" fill="black"></use>
        </mask>
        <path d="M7.54532979,13.6013794 C7.54530201,13.604499 7.54528809,13.607622 7.54528809,13.6107483 L7.54528809,15.5920105 C7.54528809,16.1580262 7.99253617,16.6013794 8.54424465,16.6013794 L9.54633152,16.6013794 C10.1026278,16.6013794 10.5452881,16.1494695 10.5452881,15.5920105 L10.5452881,13.6107483 C10.5452881,13.6076216 10.5452744,13.6044986 10.5452472,13.6013794 L7.54532504,13.6013794 Z" id="path-13"></path>
        <mask id="mask-14" maskContentUnits="userSpaceOnUse" maskUnits="objectBoundingBox" x="0" y="0" width="3" height="3" fill="white">
            <use xlink:href="#path-13"></use>
        </mask>
        <path d="M0,9.92399406 C0,9.37200549 0.437432534,9.03127339 0.971360901,9.15367885 C0.971360901,9.15367885 6.00562648,10.4775169 12.0040283,10.4775169 C18.0024302,10.4775169 23.0447368,9.15034792 23.0447368,9.15034792 C23.5723141,9.02563231 24,9.37125097 24,9.92399406 L24,12.5840262 C24,13.1360148 23.5684428,13.690233 23.0262446,13.8159877 C23.0262446,13.8159877 18.0815735,15.1364765 12.0543823,15.1364765 C6.02719116,15.1364765 0.945092146,13.8059951 0.945092146,13.8059951 C0.423132166,13.6831089 0,13.1367693 0,12.5840262 L0,9.92399406 Z" id="path-15"></path>
        <mask id="mask-16" maskContentUnits="userSpaceOnUse" maskUnits="objectBoundingBox" x="0" y="0" width="24" height="6" fill="white">
            <use xlink:href="#path-15"></use>
        </mask>
    </defs>
    <g id="周年庆" stroke="none" stroke-width="1" fill="none" fill-rule="evenodd">
        <g id="Artboard-2-Copy-3">
            <g id="我的-copy" transform="translate(5.000000, 3.000000)">
                <g id="我的icon-hover" transform="translate(2.000000, 0.000000)">
                    <g id="胳膊" transform="translate(0.000000, 25.000000)">
                        <circle id="Oval-9" stroke="#282828" fill="#FDF8E2" cx="2" cy="11" r="2"></circle>
                        <circle id="Oval-9-Copy" stroke="#282828" fill="#FDF8E2" cx="33.6875" cy="11" r="2"></circle>
                        <g id="Rectangle-62" transform="translate(6.872646, 6.131695) rotate(-314.000000) translate(-6.872646, -6.131695) ">
                            <use fill="#FE818E" fill-rule="evenodd" xlink:href="#path-1"></use>
                            <use stroke="#282828" mask="url(#mask-2)" stroke-width="2" xlink:href="#path-1"></use>
                        </g>
                        <g id="Rectangle-62-Copy" transform="translate(28.872646, 6.131695) scale(-1, 1) rotate(-315.000000) translate(-28.872646, -6.131695) ">
                            <use fill="#FE818E" fill-rule="evenodd" xlink:href="#path-3"></use>
                            <use stroke="#282828" mask="url(#mask-4)" stroke-width="2" xlink:href="#path-3"></use>
                        </g>
                    </g>
                    <g id="脸" transform="translate(9.000000, 8.000000)">
                        <g id="Rectangle-51">
                            <use fill="#FDF8E2" fill-rule="evenodd" xlink:href="#path-5"></use>
                            <use stroke="#282828" mask="url(#mask-6)" stroke-width="2" xlink:href="#path-5"></use>
                        </g>
                    </g>
                    <g id="衣服" transform="translate(6.000000, 25.000000)">
                        <g id="Rectangle-60">
                            <use fill="#FE818E" fill-rule="evenodd" xlink:href="#path-7"></use>
                            <use stroke="#282828" mask="url(#mask-8)" stroke-width="2" xlink:href="#path-7"></use>
                        </g>
                    </g>
                    <g id="帽子">
                        <path d="M18,11 C22.418278,11 26,10.8659932 26,7 C26,3.13400675 22.418278,0 18,0 C13.581722,0 10,3.13400675 10,7 C10,10.8659932 13.581722,11 18,11 Z" id="Oval-5" stroke="#282828" fill="#282828"></path>
                        <path d="M9,8 L27,8 L27,14 C27,14 22.7191772,13 18.1461182,13 C13.5730591,13 9,14 9,14 L9,8 Z" id="Rectangle-52" fill="#282828"></path>
                        <g id="左耳" transform="translate(0.000000, 10.000000)">
                            <use id="Rectangle-53" stroke="#282828" mask="url(#mask-10)" stroke-width="2" xlink:href="#path-9"></use>
                            <rect id="Rectangle-54" fill="#282828" x="7" y="2" width="2" height="2"></rect>
                        </g>
                        <g id="右耳" transform="translate(27.000000, 10.000000)">
                            <use id="Rectangle-53-Copy" stroke="#282828" mask="url(#mask-12)" stroke-width="2" xlink:href="#path-11"></use>
                            <rect id="Rectangle-54-Copy" fill="#282828" x="0" y="2" width="2" height="2"></rect>
                        </g>
                    </g>
                </g>
                <g id="我的icon" transform="translate(2.000000, 0.000000)">
                    <g id="胳膊" transform="translate(0.000000, 25.000000)" stroke="#282828">
                        <circle id="Oval-9" fill="#FDF8E2" cx="2" cy="11" r="2"></circle>
                        <circle id="Oval-9-Copy" fill="#FDF8E2" cx="33.6875" cy="11" r="2"></circle>
                        <rect id="Rectangle-62" stroke-width="2" fill="#E62E46" transform="translate(6.872646, 6.131695) rotate(-314.000000) translate(-6.872646, -6.131695) " x="4.3726457" y="0.131695469" width="5" height="12"></rect>
                        <rect id="Rectangle-62-Copy" stroke-width="2" fill="#E62E46" transform="translate(28.872646, 6.131695) scale(-1, 1) rotate(-315.000000) translate(-28.872646, -6.131695) " x="26.3726457" y="0.131695469" width="5" height="12"></rect>
                    </g>
                    <g id="脸" transform="translate(9.000000, 8.000000)">
                        <path d="M0,0 L18,0 L18,17 C18,17 13.6812744,19 9.12084961,19 C4.5604248,19 0,17 0,17 L0,0 Z" id="Rectangle-51" stroke="#282828" stroke-width="2" fill="#FDF8E2"></path>
                        <polygon id="Rectangle-59" fill="#282828" transform="translate(4.573448, 14.565152) rotate(-30.000000) translate(-4.573448, -14.565152) " points="0.9492059 14.259073 8.06837665 13.6956269 8.19769051 15.4346761 1.42447924 15.1785512"></polygon>
                        <polygon id="Rectangle-59-Copy" fill="#282828" transform="translate(13.573448, 14.565152) scale(-1, 1) rotate(-30.000000) translate(-13.573448, -14.565152) " points="9.9492059 14.259073 17.0683767 13.6956269 17.1976905 15.4346761 10.4244792 15.1785512"></polygon>
                        <use id="Combined-Shape" stroke="#E62E46" mask="url(#mask-14)" stroke-width="2" fill="#E62E46" xlink:href="#path-13"></use>
                    </g>
                    <g id="衣服" transform="translate(6.000000, 25.000000)" stroke="#282828" stroke-width="2">
                        <path d="M0.705810547,8.00195312 C1.20381611,4.01790865 3.2578125,0.0260620117 3.2578125,0.0260620117 C3.2578125,0.0260620117 7.54266357,2 12.0284424,2 C16.5142212,2 20.7351074,0.0260620117 20.7351074,0.0260620117 C20.7351074,0.0260620117 22.7801151,3.52510042 23.3397217,8.00195312 C23.356819,8.13873181 24,17 24,17 L0,17 C0,17 0.207804988,11.9859976 0.705810547,8.00195312 Z" id="Rectangle-60" fill="#E62E46"></path>
                        <use id="Rectangle-61" mask="url(#mask-16)" fill="#F5E64B" xlink:href="#path-15"></use>
                    </g>
                    <g id="帽子">
                        <path d="M18,11 C22.418278,11 26,10.8659932 26,7 C26,3.13400675 22.418278,0 18,0 C13.581722,0 10,3.13400675 10,7 C10,10.8659932 13.581722,11 18,11 Z" id="Oval-5" stroke="#282828" fill="#282828"></path>
                        <path d="M10,8 L26,8 L26,14 C26,14 22.1948242,13 18.1298828,13 C14.0649414,13 10,14 10,14 L10,8 Z" id="Rectangle-52" fill="#282828"></path>
                        <path d="M18,15 C19.1045695,15 20,14.1045695 20,13 C20,11.8954305 19.1045695,11 18,11 C16.8954305,11 16,11.8954305 16,13 C16,14.1045695 16.8954305,15 18,15 Z" id="Oval-6" stroke="#282828" fill="#F5E64B"></path>
                        <g id="左耳" transform="translate(0.000000, 10.000000)">
                            <rect id="Rectangle-53" stroke="#282828" stroke-width="2" fill="#F5E64B" x="0" y="0" width="6" height="6" rx="2"></rect>
                            <rect id="Rectangle-54" fill="#282828" x="7" y="2" width="2" height="2"></rect>
                        </g>
                        <g id="右耳" transform="translate(27.000000, 10.000000)">
                            <rect id="Rectangle-53-Copy" stroke="#282828" stroke-width="2" fill="#F5E64B" x="3" y="0" width="6" height="6" rx="2"></rect>
                            <rect id="Rectangle-54-Copy" fill="#282828" x="0" y="2" width="2" height="2"></rect>
                        </g>
                    </g>
                </g>
            </g>
        </g>
    </g>
</svg>