<?xml version="1.0" encoding="UTF-8" standalone="no"?>
<svg width="50px" height="50px" viewBox="0 0 50 50" version="1.1" xmlns="http://www.w3.org/2000/svg" xmlns:xlink="http://www.w3.org/1999/xlink">
    <!-- Generator: Sketch 39.1 (31720) - http://www.bohemiancoding.com/sketch -->
    <title>Artboard 2 Copy</title>
    <desc>Created with Sketch.</desc>
    <defs>
        <rect id="path-1" x="0" y="4" width="32" height="37" rx="1"></rect>
        <mask id="mask-2" maskContentUnits="userSpaceOnUse" maskUnits="objectBoundingBox" x="0" y="0" width="32" height="37" fill="white">
            <use xlink:href="#path-1"></use>
        </mask>
        <rect id="path-3" x="0" y="0" width="24" height="29" rx="1"></rect>
        <mask id="mask-4" maskContentUnits="userSpaceOnUse" maskUnits="objectBoundingBox" x="0" y="0" width="24" height="29" fill="white">
            <use xlink:href="#path-3"></use>
        </mask>
        <rect id="path-5" x="0" y="2" width="14" height="4" rx="1"></rect>
        <mask id="mask-6" maskContentUnits="userSpaceOnUse" maskUnits="objectBoundingBox" x="0" y="0" width="14" height="4" fill="white">
            <use xlink:href="#path-5"></use>
        </mask>
    </defs>
    <g id="周年庆" stroke="none" stroke-width="1" fill="none" fill-rule="evenodd">
        <g id="tab" transform="translate(-802.000000, -24.000000)">
            <g id="商品列表-copy" transform="translate(786.000000, 28.000000)">
                <g id="商品列表icon-hover" transform="translate(21.000000, 0.000000)">
                    <use id="Rectangle-63" stroke="#282828" mask="url(#mask-2)" stroke-width="2" fill="#FE818E" xlink:href="#path-1"></use>
                    <g id="Group-16" transform="translate(4.000000, 8.000000)">
                        <use id="Rectangle-63" stroke="#303033" mask="url(#mask-4)" stroke-width="2" fill="#FE818E" xlink:href="#path-3"></use>
                        <rect id="Rectangle-66" fill="#FFFFFF" x="8" y="3.4375" width="8" height="2" rx="1"></rect>
                        <rect id="Rectangle-66-Copy" fill="#FFFFFF" x="8" y="8.41894531" width="5" height="2" rx="1"></rect>
                        <rect id="Rectangle-66-Copy-2" fill="#FFFFFF" x="8" y="13.402832" width="4" height="2" rx="1"></rect>
                        <rect id="Rectangle-67" fill="#FFFFFF" x="3" y="3" width="3" height="3" rx="1"></rect>
                        <rect id="Rectangle-67-Copy" fill="#FFFFFF" x="3" y="8" width="3" height="3" rx="1"></rect>
                        <rect id="Rectangle-67-Copy-2" fill="#FFFFFF" x="3" y="13" width="3" height="3" rx="1"></rect>
                    </g>
                    <g id="放大镜" transform="translate(31.006348, 26.502441) rotate(-30.000000) translate(-31.006348, -26.502441) translate(22.006348, 11.002441)">
                        <circle id="Oval-7" stroke="#282828" fill="#FFFFFF" cx="9" cy="9" r="9"></circle>
                        <rect id="Rectangle-64" fill="#282828" x="8" y="18" width="2" height="6"></rect>
                        <rect id="Rectangle-65" stroke="#282828" fill="#FE818E" x="7" y="21" width="4" height="10" rx="1"></rect>
                    </g>
                    <g id="顶部" transform="translate(9.000000, 0.000000)" stroke="#282828">
                        <use id="Rectangle-68" mask="url(#mask-6)" stroke-width="2" fill="#FE818E" xlink:href="#path-5"></use>
                        <circle id="Oval-8" fill="#FFFFFF" cx="7" cy="2" r="2"></circle>
                    </g>
                </g>
            </g>
        </g>
        <g id="Artboard-2-Copy"></g>
    </g>
</svg>