<?xml version="1.0" encoding="UTF-8" standalone="no"?>
<svg width="50px" height="50px" viewBox="0 0 50 50" version="1.1" xmlns="http://www.w3.org/2000/svg" xmlns:xlink="http://www.w3.org/1999/xlink">
    <!-- Generator: Sketch 39.1 (31720) - http://www.bohemiancoding.com/sketch -->
    <title>Artboard 2</title>
    <desc>Created with Sketch.</desc>
    <defs>
        <rect id="path-1" x="0" y="38" width="42" height="4"></rect>
        <mask id="mask-2" maskContentUnits="userSpaceOnUse" maskUnits="objectBoundingBox" x="-1" y="-1" width="44" height="6">
            <rect x="-1" y="37" width="44" height="6" fill="white"></rect>
            <use xlink:href="#path-1" fill="black"></use>
        </mask>
        <path d="M22.8061626,1.19140411 L41.4420333,12.3752155 C42.4034872,13.0453049 42.2242899,13.5885196 41.0658795,13.5885196 L1.06471298,13.5885196 C-0.104484946,13.5885196 -0.278007193,13.048868 0.688559198,12.3752155 L19.3244299,1.19140411 C20.2858838,0.521314721 21.8395962,0.517751568 22.8061626,1.19140411 Z" id="path-3"></path>
        <mask id="mask-4" maskContentUnits="userSpaceOnUse" maskUnits="objectBoundingBox" x="0" y="0" width="42" height="12.9010196" fill="white">
            <use xlink:href="#path-3"></use>
        </mask>
        <path d="M0.995397568,0 L9.00460243,0 C9.55434533,0 10,0.447489426 10,0.998502329 L10,12.0014977 C10,12.5529553 9.5443356,13 9.00460243,13 L0.995397568,13 C0.445654671,13 0,12.5525106 0,12.0014977 L0,0.998502329 C0,0.44704472 0.455664396,0 0.995397568,0 Z" id="path-5"></path>
        <mask id="mask-6" maskContentUnits="userSpaceOnUse" maskUnits="objectBoundingBox" x="0" y="0" width="10" height="13" fill="white">
            <use xlink:href="#path-5"></use>
        </mask>
        <path d="M0.995397568,12 L9.00460243,12 C9.55434533,12 10,12.4426603 10,12.9989566 L10,14.0010434 C10,14.5527519 9.5443356,15 9.00460243,15 L0.995397568,15 C0.445654671,15 0,14.5573397 0,14.0010434 L0,12.9989566 C0,12.4472481 0.455664396,12 0.995397568,12 Z" id="path-7"></path>
        <mask id="mask-8" maskContentUnits="userSpaceOnUse" maskUnits="objectBoundingBox" x="0" y="0" width="10" height="3" fill="white">
            <use xlink:href="#path-7"></use>
        </mask>
        <rect id="path-9" x="13" y="0" width="7" height="14" rx="1"></rect>
        <mask id="mask-10" maskContentUnits="userSpaceOnUse" maskUnits="objectBoundingBox" x="0" y="0" width="7" height="14" fill="white">
            <use xlink:href="#path-9"></use>
        </mask>
        <rect id="path-11" x="1" y="39" width="40" height="2"></rect>
        <mask id="mask-12" maskContentUnits="userSpaceOnUse" maskUnits="objectBoundingBox" x="-2" y="-2" width="44" height="6">
            <rect x="-1" y="37" width="44" height="6" fill="white"></rect>
            <use xlink:href="#path-11" fill="black"></use>
        </mask>
        <path d="M22.8061626,1.19140411 L41.4420333,12.3752155 C42.4034872,13.0453049 42.2242899,13.5885196 41.0658795,13.5885196 L1.06471298,13.5885196 C-0.104484946,13.5885196 -0.278007193,13.048868 0.688559198,12.3752155 L19.3244299,1.19140411 C20.2858838,0.521314721 21.8395962,0.517751568 22.8061626,1.19140411 Z" id="path-13"></path>
        <mask id="mask-14" maskContentUnits="userSpaceOnUse" maskUnits="objectBoundingBox" x="0" y="0" width="42" height="12.9010196" fill="white">
            <use xlink:href="#path-13"></use>
        </mask>
        <rect id="path-15" x="0" y="12" width="10" height="3" rx="1"></rect>
        <mask id="mask-16" maskContentUnits="userSpaceOnUse" maskUnits="objectBoundingBox" x="0" y="0" width="10" height="3" fill="white">
            <use xlink:href="#path-15"></use>
        </mask>
        <rect id="path-17" x="0" y="0" width="10" height="13" rx="1"></rect>
        <mask id="mask-18" maskContentUnits="userSpaceOnUse" maskUnits="objectBoundingBox" x="0" y="0" width="10" height="13" fill="white">
            <use xlink:href="#path-17"></use>
        </mask>
        <rect id="path-19" x="13" y="0" width="7" height="14" rx="1"></rect>
        <mask id="mask-20" maskContentUnits="userSpaceOnUse" maskUnits="objectBoundingBox" x="0" y="0" width="7" height="14" fill="white">
            <use xlink:href="#path-19"></use>
        </mask>
    </defs>
    <g id="周年庆" stroke="none" stroke-width="1" fill="none" fill-rule="evenodd">
        <g id="tab" transform="translate(-681.000000, -24.000000)">
            <g id="主页-copy" transform="translate(685.000000, 27.000000)">
                <g id="主页-icon-hover">
                    <rect id="Rectangle-15" stroke="#282828" fill="#FE818E" x="4" y="13" width="34" height="26"></rect>
                    <g id="Rectangle-16-Copy">
                        <use fill="#FE818E" fill-rule="evenodd" xlink:href="#path-1"></use>
                        <use stroke="#282828" mask="url(#mask-2)" stroke-width="2" xlink:href="#path-1"></use>
                    </g>
                    <use id="Rectangle-18" stroke="#282828" mask="url(#mask-4)" stroke-width="2" fill="#FE818E" xlink:href="#path-3"></use>
                    <g id="窗" transform="translate(11.000000, 21.000000)" stroke="#282828" stroke-width="2" fill="#FFFFFF">
                        <use id="Rectangle-20" mask="url(#mask-6)" xlink:href="#path-5"></use>
                        <use id="Rectangle-21" mask="url(#mask-8)" xlink:href="#path-7"></use>
                        <use id="Rectangle-22" mask="url(#mask-10)" xlink:href="#path-9"></use>
                    </g>
                </g>
                <g id="主页-icon">
                    <rect id="Rectangle-15" stroke="#282828" stroke-width="2" fill="#E62E46" x="4" y="13" width="34" height="28"></rect>
                    <g id="Rectangle-16-Copy">
                        <use fill="#E62E46" fill-rule="evenodd" xlink:href="#path-11"></use>
                        <use stroke="#282828" mask="url(#mask-12)" stroke-width="4" xlink:href="#path-11"></use>
                    </g>
                    <use id="Rectangle-18" stroke="#282828" mask="url(#mask-14)" stroke-width="4" fill="#F9EA4F" xlink:href="#path-13"></use>
                    <g id="房子装饰" transform="translate(3.000000, 13.000000)" stroke="#282828">
                        <path d="M5,2.50237331 C5,3.88177444 3.89033794,5 2.5,5 C1.11928813,5 0,3.87231156 0,2.50237331 L0,0 L5,0 L5,2.50237331 Z" id="Combined-Shape" fill="#F9EA4F"></path>
                        <path d="M10,0 L10,2.50237331 C10,3.88177444 8.89033794,5 7.5,5 C6.11928813,5 5,3.87231156 5,2.50237331 L5,0 L10,0 L10,0 Z" id="Combined-Shape-Copy-4" fill="#ED8256"></path>
                        <path d="M15,0 L15,2.50237331 C15,3.88177444 13.8903379,5 12.5,5 C11.1192881,5 10,3.87231156 10,2.50237331 L10,0 L15,0 L15,0 Z" id="Combined-Shape-Copy-5" fill="#F9EA4F"></path>
                        <path d="M21,0 L21,2.50237331 C21,3.88177444 19.6684055,5 18,5 C16.3431458,5 15,3.87231156 15,2.50237331 L15,0 L21,0 L21,0 Z" id="Combined-Shape-Copy-6" fill="#ED8256"></path>
                        <path d="M26,0 L26,2.50237331 C26,3.88177444 24.8903379,5 23.5,5 C22.1192881,5 21,3.87231156 21,2.50237331 L21,0 L26,0 L26,0 Z" id="Combined-Shape-Copy-7" fill="#F9EA4F"></path>
                        <path d="M31,0 L31,2.50237331 C31,3.88177444 29.8903379,5 28.5,5 C27.1192881,5 26,3.87231156 26,2.50237331 L26,0 L31,0 L31,0 Z" id="Combined-Shape-Copy-8" fill="#ED8256"></path>
                        <path d="M36,0 L36,2.50237331 C36,3.88177444 34.8903379,5 33.5,5 C32.1192881,5 31,3.87231156 31,2.50237331 L31,0 L36,0 L36,0 Z" id="Combined-Shape-Copy-9" fill="#F9EA4F"></path>
                    </g>
                    <g id="窗" transform="translate(11.000000, 21.000000)" stroke="#282828" stroke-width="2">
                        <use id="Rectangle-21" mask="url(#mask-16)" fill="#282828" xlink:href="#path-15"></use>
                        <use id="Rectangle-20" mask="url(#mask-18)" fill="#F5E64B" xlink:href="#path-17"></use>
                        <use id="Rectangle-22" mask="url(#mask-20)" fill="#F5E64B" xlink:href="#path-19"></use>
                    </g>
                </g>
            </g>
        </g>
        <g id="Artboard-2"></g>
    </g>
</svg>