<?xml version="1.0" encoding="UTF-8" standalone="no"?>
<svg width="50px" height="50px" viewBox="0 0 50 50" version="1.1" xmlns="http://www.w3.org/2000/svg" xmlns:xlink="http://www.w3.org/1999/xlink">
    <!-- Generator: Sketch 39.1 (31720) - http://www.bohemiancoding.com/sketch -->
    <title>Artboard 2 Copy 2</title>
    <desc>Created with Sketch.</desc>
    <defs>
        <rect id="path-1" x="2" y="0" width="2" height="2"></rect>
        <mask id="mask-2" maskContentUnits="userSpaceOnUse" maskUnits="objectBoundingBox" x="0" y="0" width="2" height="2" fill="white">
            <use xlink:href="#path-1"></use>
        </mask>
        <rect id="path-3" x="17" y="0" width="2" height="2"></rect>
        <mask id="mask-4" maskContentUnits="userSpaceOnUse" maskUnits="objectBoundingBox" x="0" y="0" width="2" height="2" fill="white">
            <use xlink:href="#path-3"></use>
        </mask>
        <path d="M7.65603954,10.9362373 C7.29371891,8.76231345 8.79291122,7 11.006722,7 L45.993278,7 C48.2061295,7 49.374283,8.66857876 48.59375,10.75 L42.40625,27.25 C41.6295996,29.3210678 39.2132053,31 37.0007252,31 L14.9992748,31 C12.7905363,31 10.7058704,29.2352227 10.3439605,27.0637627 L7.65603954,10.9362373 Z" id="path-5"></path>
        <mask id="mask-6" maskContentUnits="userSpaceOnUse" maskUnits="objectBoundingBox" x="0" y="0" width="41.2340071" height="24" fill="white">
            <use xlink:href="#path-5"></use>
        </mask>
    </defs>
    <g id="周年庆" stroke="none" stroke-width="1" fill="none" fill-rule="evenodd">
        <g id="tab" transform="translate(-1069.000000, -24.000000)">
            <g id="购物车-copy" transform="translate(1068.000000, 23.000000)">
                <g id="购物车icon-选中" transform="translate(1.000000, 8.000000)">
                    <g id="车">
                        <g id="购物车icon">
                            <g id="轮子" transform="translate(16.000000, 31.000000)" stroke="#282828" stroke-width="2">
                                <path d="M3,8 C4.65685425,8 6,6.65685425 6,5 C6,3.34314575 4.65685425,2 3,2 C1.34314575,2 0,3.34314575 0,5 C0,6.65685425 1.34314575,8 3,8 Z" id="Oval-3" fill="#F5E64B"></path>
                                <path d="M18,8 C19.6568542,8 21,6.65685425 21,5 C21,3.34314575 19.6568542,2 18,2 C16.3431458,2 15,3.34314575 15,5 C15,6.65685425 16.3431458,8 18,8 Z" id="Oval-3-Copy" fill="#F5E64B"></path>
                                <use id="Rectangle-11" mask="url(#mask-2)" xlink:href="#path-1"></use>
                                <use id="Rectangle-11-Copy" mask="url(#mask-4)" xlink:href="#path-3"></use>
                            </g>
                            <g id="车">
                                <rect id="Rectangle-12" fill="#282828" x="0" y="1" width="8" height="2" rx="1"></rect>
                                <rect id="Rectangle-12-Copy" fill="#282828" transform="translate(8.087536, 5.963204) rotate(-285.000000) translate(-8.087536, -5.963204) " x="3.0875357" y="4.96320404" width="10" height="2" rx="1"></rect>
                                <use id="Rectangle-9" stroke="#282828" mask="url(#mask-6)" stroke-width="4" fill="#E62E46" xlink:href="#path-5"></use>
                                <rect id="Rectangle-14" fill="#282828" x="9" y="13" width="38" height="1"></rect>
                                <rect id="Rectangle-14" fill="#282828" transform="translate(17.500388, 18.499817) rotate(-275.000000) translate(-17.500388, -18.499817) " x="6.00038839" y="17.9998169" width="23" height="1"></rect>
                                <rect id="Rectangle-14-Copy-4" fill="#282828" transform="translate(24.700627, 18.506975) rotate(-273.000000) translate(-24.700627, -18.506975) " x="13.2006265" y="18.0069747" width="23" height="1"></rect>
                                <rect id="Rectangle-14-Copy-5" fill="#282828" transform="translate(31.901040, 18.510444) rotate(-268.000000) translate(-31.901040, -18.510444) " x="20.4010396" y="18.0104443" width="23" height="1"></rect>
                                <rect id="Rectangle-14-Copy-6" fill="#282828" transform="translate(39.300981, 18.506865) rotate(-266.000000) translate(-39.300981, -18.506865) " x="27.8009815" y="18.0068648" width="23" height="1"></rect>
                                <rect id="Rectangle-14-Copy" fill="#282828" x="9" y="18" width="36" height="1"></rect>
                                <rect id="Rectangle-14-Copy-2" fill="#282828" x="10" y="23" width="32" height="1"></rect>
                            </g>
                        </g>
                        <path d="M32.2445657,23 L32.3842487,19 L38.7652772,19 L38.4855699,23 L32.2445657,23 L32.2445657,23 Z M41.4790649,24 C41.4790649,24 40.7994995,26.2319946 40.3080444,27.0197754 C39.8165894,27.8075562 39.1857124,28.1810506 39.0993042,28.24646 L39.418085,24 L43.625,24 L41.4790649,24 Z M25.7399902,29 L31.0500488,29 L31.2090353,24 L25.48919,24 L25.7399902,29 Z M18.3960133,23 L18.0460587,19 L24.2257787,19 L24.4354098,23 L18.3960133,23 L18.3960133,23 Z M11.8619386,24 L12.3303223,26.8081665 C12.5096547,27.8841604 13.7492677,28.9199829 14.8965453,29.0022583 C16.0438228,29.0845337 17.921326,29.0022583 17.921326,29.0022583 L17.4796821,24 L9.83333333,24 L11.8619386,24 Z M45.2399902,14 L40.1173531,14 L39.8376459,18 L43.7399902,18 L45.2399902,14 Z M25.1747433,18 L24.9651122,14 L31.558243,14 L31.41856,18 L25.1747433,18 L25.1747433,18 Z M10.1899414,14 L16.6047955,14 L16.9547502,18 L10.8500977,18 L10.1899414,14 Z M32.7335031,8.99866359 L32.5937734,13 L39.184838,13 L39.4645246,9.00029602 L32.7335031,8.99866359 Z M17.1699219,9 L17.5211267,13 L23.911332,13 L23.6999512,9 L17.1699219,9 Z" id="Combined-Shape" fill="#F5E64B"></path>
                    </g>
                </g>
            </g>
        </g>
        <g id="Artboard-2-Copy-2"></g>
    </g>
</svg>