<?xml version="1.0" encoding="UTF-8" standalone="no"?>
<svg width="564px" height="93px" viewBox="0 0 564 93" version="1.1" xmlns="http://www.w3.org/2000/svg" xmlns:xlink="http://www.w3.org/1999/xlink">
    <!-- Generator: Sketch 39.1 (31720) - http://www.bohemiancoding.com/sketch -->
    <title>Group</title>
    <desc>Created with Sketch.</desc>
    <defs>
        <linearGradient x1="50%" y1="0%" x2="50%" y2="100%" id="linearGradient-1">
            <stop stop-color="#FDFFC6" offset="0%"></stop>
            <stop stop-color="#F9EA4F" offset="100%"></stop>
        </linearGradient>
        <linearGradient x1="50%" y1="0%" x2="50%" y2="100%" id="linearGradient-2">
            <stop stop-color="#FFFAC4" offset="0%"></stop>
            <stop stop-color="#F8E850" offset="100%"></stop>
        </linearGradient>
        <linearGradient x1="50%" y1="0%" x2="50%" y2="100%" id="linearGradient-3">
            <stop stop-color="#FDFEE7" offset="0%"></stop>
            <stop stop-color="#F6C896" offset="100%"></stop>
        </linearGradient>
    </defs>
    <g id="-" stroke="none" stroke-width="1" fill="none" fill-rule="evenodd">
        <g id="首页" transform="translate(-65.000000, -479.000000)">
            <g id="icon" transform="translate(0.000000, 368.000000)">
                <g id="Group" transform="translate(63.000000, 111.000000)">
                    <g id="烟花" transform="translate(147.000000, 3.000000)" fill="url(#linearGradient-1)">
                        <path d="M55.8742346,43 C54.6964931,43.3662366 53.8001455,44.4565802 53.7415942,45.7447071 L53.0030593,61.9924755 C52.9304134,63.5906864 54.1603963,64.8685913 55.7493106,64.8685913 L55.995343,64.8685913 C57.5851762,64.8685913 58.8137958,63.5809104 58.7415942,61.9924755 L58.0030593,45.7447071 C57.9441935,44.4496596 57.052818,43.3649261 55.8750609,43 L55.8742346,43 L55.8742346,43 Z" id="Combined-Shape"></path>
                        <path d="M38.5998834,50.306858 C36.959752,50.9681005 35.7114918,52.9367225 35.6299529,55.2624438 L34.6014638,84.597891 C34.5002965,87.4834707 36.2131797,89.790736 38.4259133,89.790736 L38.7685398,89.790736 C40.9825532,89.790736 42.6935378,87.4658201 42.5929893,84.597891 L41.5645002,55.2624438 C41.4825233,52.9242274 40.2411872,50.9657343 38.6010342,50.306858 L38.5998834,50.306858 L38.5998834,50.306858 Z" id="Combined-Shape-Copy-15" transform="translate(38.597203, 70.048797) rotate(17.000000) translate(-38.597203, -70.048797) "></path>
                        <path d="M19.7648516,24.3342017 C18.1247202,24.9954442 16.87646,26.9640663 16.7949211,29.2897875 L15.766432,58.6252348 C15.6652647,61.5108144 17.3781479,63.8180798 19.5908815,63.8180798 L19.933508,63.8180798 C22.1475214,63.8180798 23.858506,61.4931639 23.7579575,58.6252348 L22.7294684,29.2897875 C22.6474915,26.9515711 21.4061554,24.993078 19.7660024,24.3342017 L19.7648516,24.3342017 L19.7648516,24.3342017 Z" id="Combined-Shape-Copy-20" transform="translate(19.762172, 44.076141) rotate(58.000000) translate(-19.762172, -44.076141) "></path>
                        <path d="M71.1068759,50.0608945 C69.4667446,50.722137 68.2184843,52.690759 68.1369455,55.0164803 L67.1084564,84.3519275 C67.0072891,87.2375072 68.7201723,89.5447725 70.9329058,89.5447725 L71.2755324,89.5447725 C73.4895458,89.5447725 75.2005303,87.2198566 75.0999819,84.3519275 L74.0714928,55.0164803 C73.9895158,52.6782639 72.7481798,50.7197707 71.1080267,50.0608945 L71.1068759,50.0608945 L71.1068759,50.0608945 Z" id="Combined-Shape-Copy-16" transform="translate(71.104196, 69.802833) rotate(-22.000000) translate(-71.104196, -69.802833) "></path>
                        <path d="M84.713347,28.1960238 C83.6882649,28.5866313 82.9081023,29.7495308 82.8571405,31.1233752 L82.2143348,48.452338 C82.1511052,50.1569004 83.2216572,51.5198425 84.6046157,51.5198425 L84.8187573,51.5198425 C86.2025156,51.5198425 87.271881,50.146474 87.2090382,48.452338 L86.5662325,31.1233752 C86.5149969,29.7421497 85.7391619,28.5852335 84.7140663,28.1960238 L84.713347,28.1960238 L84.713347,28.1960238 Z" id="Combined-Shape-Copy-17" transform="translate(84.711672, 39.857933) rotate(-67.000000) translate(-84.711672, -39.857933) "></path>
                        <path d="M67.3637192,0.179836338 C66.3386371,0.514779386 65.5584744,1.51195704 65.5075126,2.69001824 L64.8647069,17.5494741 C64.8014774,19.0111237 65.8720294,20.1798363 67.2549879,20.1798363 L67.4691294,20.1798363 C68.8528878,20.1798363 69.9222532,19.0021831 69.8594104,17.5494741 L69.2166047,2.69001824 C69.1653691,1.5056278 68.3895341,0.513580796 67.3644384,0.179836338 L67.3637192,0.179836338 L67.3637192,0.179836338 Z" id="Combined-Shape-Copy-18" transform="translate(67.362044, 10.179836) rotate(-175.000000) translate(-67.362044, -10.179836) "></path>
                        <path d="M28.3070785,4.79116446 C27.2819964,5.12610751 26.5018338,6.12328516 26.450872,7.30134637 L25.8080663,22.1608023 C25.7448368,23.6224518 26.8153887,24.7911645 28.1983472,24.7911645 L28.4124888,24.7911645 C29.7962472,24.7911645 30.8656125,23.6135112 30.8027698,22.1608023 L30.1599641,7.30134637 C30.1087285,6.11695593 29.3328934,5.12490892 28.3077978,4.79116446 L28.3070785,4.79116446 L28.3070785,4.79116446 Z" id="Combined-Shape-Copy-19" transform="translate(28.305404, 14.791164) rotate(-240.000000) translate(-28.305404, -14.791164) "></path>
                        <path d="M43.6636914,32.9264527 C42.4859499,33.2926893 41.5896023,34.3830328 41.5310511,35.6711598 L40.7925162,51.9189282 C40.7198702,53.517139 41.9498532,54.795044 43.5387674,54.795044 L43.7847998,54.795044 C45.3746331,54.795044 46.6032527,53.5073631 46.5310511,51.9189282 L45.7925162,35.6711598 C45.7336504,34.3761123 44.8422748,33.2913787 43.6645178,32.9264527 L43.6636914,32.9264527 L43.6636914,32.9264527 Z" id="Combined-Shape-Copy-10" transform="translate(43.661767, 43.860748) rotate(44.000000) translate(-43.661767, -43.860748) "></path>
                        <path d="M42.6694062,20.7811491 C41.7663416,21.0619708 41.0790431,21.8980207 41.0341474,22.8857263 L40.4678561,35.3441354 C40.4121529,36.5696061 41.3552751,37.5494738 42.5736174,37.5494738 L42.7622693,37.5494738 C43.9813163,37.5494738 44.9233931,36.5621102 44.8680306,35.3441354 L44.3017393,22.8857263 C44.2566023,21.8927142 43.5731164,21.0609659 42.6700398,20.7811491 L42.6694062,20.7811491 L42.6694062,20.7811491 Z" id="Combined-Shape-Copy-13" transform="translate(42.667931, 29.165311) rotate(104.000000) translate(-42.667931, -29.165311) "></path>
                        <path d="M56.2038959,13 C55.3008312,13.2808217 54.6135328,14.1168716 54.5686371,15.1045773 L54.0023458,27.5629863 C53.9466426,28.7884571 54.8897648,29.7683247 56.1081071,29.7683247 L56.296759,29.7683247 C57.515806,29.7683247 58.4578828,28.7809611 58.4025203,27.5629863 L57.8362289,15.1045773 C57.791092,14.1115651 57.1076061,13.2798168 56.2045295,13 L56.2038959,13 L56.2038959,13 Z" id="Combined-Shape-Copy-14" transform="translate(56.202420, 21.384162) rotate(180.000000) translate(-56.202420, -21.384162) "></path>
                        <path d="M67.9971603,33.4504176 C66.8194188,33.8166542 65.9230712,34.9069978 65.86452,36.1951247 L65.125985,52.4428931 C65.0533391,54.0411039 66.283322,55.3190089 67.8722363,55.3190089 L68.1182687,55.3190089 C69.708102,55.3190089 70.9367216,54.031328 70.86452,52.4428931 L70.125985,36.1951247 C70.0671192,34.9000772 69.1757437,33.8153437 67.9979867,33.4504176 L67.9971603,33.4504176 L67.9971603,33.4504176 Z" id="Combined-Shape-Copy-11" transform="translate(67.995236, 44.384713) rotate(-38.000000) translate(-67.995236, -44.384713) "></path>
                        <path d="M69.4394584,21.0637524 C68.5543388,21.3389938 67.8806979,22.1584303 67.8366944,23.126509 L67.281656,35.3373531 C67.2270597,36.5384721 68.1514408,37.4988685 69.345573,37.4988685 L69.5304762,37.4988685 C70.7252991,37.4988685 71.6486556,36.5311251 71.5943932,35.3373531 L71.0393548,23.126509 C70.9951148,22.1532292 70.3252107,21.3380088 69.4400794,21.0637524 L69.4394584,21.0637524 L69.4394584,21.0637524 Z" id="Combined-Shape-Copy-12" transform="translate(69.438012, 29.281310) rotate(-98.000000) translate(-69.438012, -29.281310) "></path>
                    </g>
                    <g id="烟花" transform="translate(470.000000, 0.000000)" fill="url(#linearGradient-2)">
                        <path d="M55.8742346,43 C54.6964931,43.3662366 53.8001455,44.4565802 53.7415942,45.7447071 L53.0030593,61.9924755 C52.9304134,63.5906864 54.1603963,64.8685913 55.7493106,64.8685913 L55.995343,64.8685913 C57.5851762,64.8685913 58.8137958,63.5809104 58.7415942,61.9924755 L58.0030593,45.7447071 C57.9441935,44.4496596 57.052818,43.3649261 55.8750609,43 L55.8742346,43 L55.8742346,43 Z" id="Combined-Shape"></path>
                        <path d="M38.5998834,50.306858 C36.959752,50.9681005 35.7114918,52.9367225 35.6299529,55.2624438 L34.6014638,84.597891 C34.5002965,87.4834707 36.2131797,89.790736 38.4259133,89.790736 L38.7685398,89.790736 C40.9825532,89.790736 42.6935378,87.4658201 42.5929893,84.597891 L41.5645002,55.2624438 C41.4825233,52.9242274 40.2411872,50.9657343 38.6010342,50.306858 L38.5998834,50.306858 L38.5998834,50.306858 Z" id="Combined-Shape-Copy-15" transform="translate(38.597203, 70.048797) rotate(17.000000) translate(-38.597203, -70.048797) "></path>
                        <path d="M19.7648516,24.3342017 C18.1247202,24.9954442 16.87646,26.9640663 16.7949211,29.2897875 L15.766432,58.6252348 C15.6652647,61.5108144 17.3781479,63.8180798 19.5908815,63.8180798 L19.933508,63.8180798 C22.1475214,63.8180798 23.858506,61.4931639 23.7579575,58.6252348 L22.7294684,29.2897875 C22.6474915,26.9515711 21.4061554,24.993078 19.7660024,24.3342017 L19.7648516,24.3342017 L19.7648516,24.3342017 Z" id="Combined-Shape-Copy-20" transform="translate(19.762172, 44.076141) rotate(58.000000) translate(-19.762172, -44.076141) "></path>
                        <path d="M71.1068759,50.0608945 C69.4667446,50.722137 68.2184843,52.690759 68.1369455,55.0164803 L67.1084564,84.3519275 C67.0072891,87.2375072 68.7201723,89.5447725 70.9329058,89.5447725 L71.2755324,89.5447725 C73.4895458,89.5447725 75.2005303,87.2198566 75.0999819,84.3519275 L74.0714928,55.0164803 C73.9895158,52.6782639 72.7481798,50.7197707 71.1080267,50.0608945 L71.1068759,50.0608945 L71.1068759,50.0608945 Z" id="Combined-Shape-Copy-16" transform="translate(71.104196, 69.802833) rotate(-22.000000) translate(-71.104196, -69.802833) "></path>
                        <path d="M84.713347,28.1960238 C83.6882649,28.5866313 82.9081023,29.7495308 82.8571405,31.1233752 L82.2143348,48.452338 C82.1511052,50.1569004 83.2216572,51.5198425 84.6046157,51.5198425 L84.8187573,51.5198425 C86.2025156,51.5198425 87.271881,50.146474 87.2090382,48.452338 L86.5662325,31.1233752 C86.5149969,29.7421497 85.7391619,28.5852335 84.7140663,28.1960238 L84.713347,28.1960238 L84.713347,28.1960238 Z" id="Combined-Shape-Copy-17" transform="translate(84.711672, 39.857933) rotate(-67.000000) translate(-84.711672, -39.857933) "></path>
                        <path d="M67.3637192,0.179836338 C66.3386371,0.514779386 65.5584744,1.51195704 65.5075126,2.69001824 L64.8647069,17.5494741 C64.8014774,19.0111237 65.8720294,20.1798363 67.2549879,20.1798363 L67.4691294,20.1798363 C68.8528878,20.1798363 69.9222532,19.0021831 69.8594104,17.5494741 L69.2166047,2.69001824 C69.1653691,1.5056278 68.3895341,0.513580796 67.3644384,0.179836338 L67.3637192,0.179836338 L67.3637192,0.179836338 Z" id="Combined-Shape-Copy-18" transform="translate(67.362044, 10.179836) rotate(-175.000000) translate(-67.362044, -10.179836) "></path>
                        <path d="M28.3070785,4.79116446 C27.2819964,5.12610751 26.5018338,6.12328516 26.450872,7.30134637 L25.8080663,22.1608023 C25.7448368,23.6224518 26.8153887,24.7911645 28.1983472,24.7911645 L28.4124888,24.7911645 C29.7962472,24.7911645 30.8656125,23.6135112 30.8027698,22.1608023 L30.1599641,7.30134637 C30.1087285,6.11695593 29.3328934,5.12490892 28.3077978,4.79116446 L28.3070785,4.79116446 L28.3070785,4.79116446 Z" id="Combined-Shape-Copy-19" transform="translate(28.305404, 14.791164) rotate(-240.000000) translate(-28.305404, -14.791164) "></path>
                        <path d="M43.6636914,32.9264527 C42.4859499,33.2926893 41.5896023,34.3830328 41.5310511,35.6711598 L40.7925162,51.9189282 C40.7198702,53.517139 41.9498532,54.795044 43.5387674,54.795044 L43.7847998,54.795044 C45.3746331,54.795044 46.6032527,53.5073631 46.5310511,51.9189282 L45.7925162,35.6711598 C45.7336504,34.3761123 44.8422748,33.2913787 43.6645178,32.9264527 L43.6636914,32.9264527 L43.6636914,32.9264527 Z" id="Combined-Shape-Copy-10" transform="translate(43.661767, 43.860748) rotate(44.000000) translate(-43.661767, -43.860748) "></path>
                        <path d="M42.6694062,20.7811491 C41.7663416,21.0619708 41.0790431,21.8980207 41.0341474,22.8857263 L40.4678561,35.3441354 C40.4121529,36.5696061 41.3552751,37.5494738 42.5736174,37.5494738 L42.7622693,37.5494738 C43.9813163,37.5494738 44.9233931,36.5621102 44.8680306,35.3441354 L44.3017393,22.8857263 C44.2566023,21.8927142 43.5731164,21.0609659 42.6700398,20.7811491 L42.6694062,20.7811491 L42.6694062,20.7811491 Z" id="Combined-Shape-Copy-13" transform="translate(42.667931, 29.165311) rotate(104.000000) translate(-42.667931, -29.165311) "></path>
                        <path d="M56.2038959,13 C55.3008312,13.2808217 54.6135328,14.1168716 54.5686371,15.1045773 L54.0023458,27.5629863 C53.9466426,28.7884571 54.8897648,29.7683247 56.1081071,29.7683247 L56.296759,29.7683247 C57.515806,29.7683247 58.4578828,28.7809611 58.4025203,27.5629863 L57.8362289,15.1045773 C57.791092,14.1115651 57.1076061,13.2798168 56.2045295,13 L56.2038959,13 L56.2038959,13 Z" id="Combined-Shape-Copy-14" transform="translate(56.202420, 21.384162) rotate(180.000000) translate(-56.202420, -21.384162) "></path>
                        <path d="M67.9971603,33.4504176 C66.8194188,33.8166542 65.9230712,34.9069978 65.86452,36.1951247 L65.125985,52.4428931 C65.0533391,54.0411039 66.283322,55.3190089 67.8722363,55.3190089 L68.1182687,55.3190089 C69.708102,55.3190089 70.9367216,54.031328 70.86452,52.4428931 L70.125985,36.1951247 C70.0671192,34.9000772 69.1757437,33.8153437 67.9979867,33.4504176 L67.9971603,33.4504176 L67.9971603,33.4504176 Z" id="Combined-Shape-Copy-11" transform="translate(67.995236, 44.384713) rotate(-38.000000) translate(-67.995236, -44.384713) "></path>
                        <path d="M69.4394584,21.0637524 C68.5543388,21.3389938 67.8806979,22.1584303 67.8366944,23.126509 L67.281656,35.3373531 C67.2270597,36.5384721 68.1514408,37.4988685 69.345573,37.4988685 L69.5304762,37.4988685 C70.7252991,37.4988685 71.6486556,36.5311251 71.5943932,35.3373531 L71.0393548,23.126509 C70.9951148,22.1532292 70.3252107,21.3380088 69.4400794,21.0637524 L69.4394584,21.0637524 L69.4394584,21.0637524 Z" id="Combined-Shape-Copy-12" transform="translate(69.438012, 29.281310) rotate(-98.000000) translate(-69.438012, -29.281310) "></path>
                    </g>
                    <g id="烟花" transform="translate(310.000000, 0.000000)" fill="url(#linearGradient-3)">
                        <path d="M55.8742346,43 C54.6964931,43.3662366 53.8001455,44.4565802 53.7415942,45.7447071 L53.0030593,61.9924755 C52.9304134,63.5906864 54.1603963,64.8685913 55.7493106,64.8685913 L55.995343,64.8685913 C57.5851762,64.8685913 58.8137958,63.5809104 58.7415942,61.9924755 L58.0030593,45.7447071 C57.9441935,44.4496596 57.052818,43.3649261 55.8750609,43 L55.8742346,43 L55.8742346,43 Z" id="Combined-Shape"></path>
                        <path d="M38.5998834,50.306858 C36.959752,50.9681005 35.7114918,52.9367225 35.6299529,55.2624438 L34.6014638,84.597891 C34.5002965,87.4834707 36.2131797,89.790736 38.4259133,89.790736 L38.7685398,89.790736 C40.9825532,89.790736 42.6935378,87.4658201 42.5929893,84.597891 L41.5645002,55.2624438 C41.4825233,52.9242274 40.2411872,50.9657343 38.6010342,50.306858 L38.5998834,50.306858 L38.5998834,50.306858 Z" id="Combined-Shape-Copy-15" transform="translate(38.597203, 70.048797) rotate(17.000000) translate(-38.597203, -70.048797) "></path>
                        <path d="M19.7648516,24.3342017 C18.1247202,24.9954442 16.87646,26.9640663 16.7949211,29.2897875 L15.766432,58.6252348 C15.6652647,61.5108144 17.3781479,63.8180798 19.5908815,63.8180798 L19.933508,63.8180798 C22.1475214,63.8180798 23.858506,61.4931639 23.7579575,58.6252348 L22.7294684,29.2897875 C22.6474915,26.9515711 21.4061554,24.993078 19.7660024,24.3342017 L19.7648516,24.3342017 L19.7648516,24.3342017 Z" id="Combined-Shape-Copy-20" transform="translate(19.762172, 44.076141) rotate(58.000000) translate(-19.762172, -44.076141) "></path>
                        <path d="M71.1068759,50.0608945 C69.4667446,50.722137 68.2184843,52.690759 68.1369455,55.0164803 L67.1084564,84.3519275 C67.0072891,87.2375072 68.7201723,89.5447725 70.9329058,89.5447725 L71.2755324,89.5447725 C73.4895458,89.5447725 75.2005303,87.2198566 75.0999819,84.3519275 L74.0714928,55.0164803 C73.9895158,52.6782639 72.7481798,50.7197707 71.1080267,50.0608945 L71.1068759,50.0608945 L71.1068759,50.0608945 Z" id="Combined-Shape-Copy-16" transform="translate(71.104196, 69.802833) rotate(-22.000000) translate(-71.104196, -69.802833) "></path>
                        <path d="M84.713347,28.1960238 C83.6882649,28.5866313 82.9081023,29.7495308 82.8571405,31.1233752 L82.2143348,48.452338 C82.1511052,50.1569004 83.2216572,51.5198425 84.6046157,51.5198425 L84.8187573,51.5198425 C86.2025156,51.5198425 87.271881,50.146474 87.2090382,48.452338 L86.5662325,31.1233752 C86.5149969,29.7421497 85.7391619,28.5852335 84.7140663,28.1960238 L84.713347,28.1960238 L84.713347,28.1960238 Z" id="Combined-Shape-Copy-17" transform="translate(84.711672, 39.857933) rotate(-67.000000) translate(-84.711672, -39.857933) "></path>
                        <path d="M67.3637192,0.179836338 C66.3386371,0.514779386 65.5584744,1.51195704 65.5075126,2.69001824 L64.8647069,17.5494741 C64.8014774,19.0111237 65.8720294,20.1798363 67.2549879,20.1798363 L67.4691294,20.1798363 C68.8528878,20.1798363 69.9222532,19.0021831 69.8594104,17.5494741 L69.2166047,2.69001824 C69.1653691,1.5056278 68.3895341,0.513580796 67.3644384,0.179836338 L67.3637192,0.179836338 L67.3637192,0.179836338 Z" id="Combined-Shape-Copy-18" transform="translate(67.362044, 10.179836) rotate(-175.000000) translate(-67.362044, -10.179836) "></path>
                        <path d="M28.3070785,4.79116446 C27.2819964,5.12610751 26.5018338,6.12328516 26.450872,7.30134637 L25.8080663,22.1608023 C25.7448368,23.6224518 26.8153887,24.7911645 28.1983472,24.7911645 L28.4124888,24.7911645 C29.7962472,24.7911645 30.8656125,23.6135112 30.8027698,22.1608023 L30.1599641,7.30134637 C30.1087285,6.11695593 29.3328934,5.12490892 28.3077978,4.79116446 L28.3070785,4.79116446 L28.3070785,4.79116446 Z" id="Combined-Shape-Copy-19" transform="translate(28.305404, 14.791164) rotate(-240.000000) translate(-28.305404, -14.791164) "></path>
                        <path d="M43.6636914,32.9264527 C42.4859499,33.2926893 41.5896023,34.3830328 41.5310511,35.6711598 L40.7925162,51.9189282 C40.7198702,53.517139 41.9498532,54.795044 43.5387674,54.795044 L43.7847998,54.795044 C45.3746331,54.795044 46.6032527,53.5073631 46.5310511,51.9189282 L45.7925162,35.6711598 C45.7336504,34.3761123 44.8422748,33.2913787 43.6645178,32.9264527 L43.6636914,32.9264527 L43.6636914,32.9264527 Z" id="Combined-Shape-Copy-10" transform="translate(43.661767, 43.860748) rotate(44.000000) translate(-43.661767, -43.860748) "></path>
                        <path d="M42.6694062,20.7811491 C41.7663416,21.0619708 41.0790431,21.8980207 41.0341474,22.8857263 L40.4678561,35.3441354 C40.4121529,36.5696061 41.3552751,37.5494738 42.5736174,37.5494738 L42.7622693,37.5494738 C43.9813163,37.5494738 44.9233931,36.5621102 44.8680306,35.3441354 L44.3017393,22.8857263 C44.2566023,21.8927142 43.5731164,21.0609659 42.6700398,20.7811491 L42.6694062,20.7811491 L42.6694062,20.7811491 Z" id="Combined-Shape-Copy-13" transform="translate(42.667931, 29.165311) rotate(104.000000) translate(-42.667931, -29.165311) "></path>
                        <path d="M56.2038959,13 C55.3008312,13.2808217 54.6135328,14.1168716 54.5686371,15.1045773 L54.0023458,27.5629863 C53.9466426,28.7884571 54.8897648,29.7683247 56.1081071,29.7683247 L56.296759,29.7683247 C57.515806,29.7683247 58.4578828,28.7809611 58.4025203,27.5629863 L57.8362289,15.1045773 C57.791092,14.1115651 57.1076061,13.2798168 56.2045295,13 L56.2038959,13 L56.2038959,13 Z" id="Combined-Shape-Copy-14" transform="translate(56.202420, 21.384162) rotate(180.000000) translate(-56.202420, -21.384162) "></path>
                        <path d="M67.9971603,33.4504176 C66.8194188,33.8166542 65.9230712,34.9069978 65.86452,36.1951247 L65.125985,52.4428931 C65.0533391,54.0411039 66.283322,55.3190089 67.8722363,55.3190089 L68.1182687,55.3190089 C69.708102,55.3190089 70.9367216,54.031328 70.86452,52.4428931 L70.125985,36.1951247 C70.0671192,34.9000772 69.1757437,33.8153437 67.9979867,33.4504176 L67.9971603,33.4504176 L67.9971603,33.4504176 Z" id="Combined-Shape-Copy-11" transform="translate(67.995236, 44.384713) rotate(-38.000000) translate(-67.995236, -44.384713) "></path>
                        <path d="M69.4394584,21.0637524 C68.5543388,21.3389938 67.8806979,22.1584303 67.8366944,23.126509 L67.281656,35.3373531 C67.2270597,36.5384721 68.1514408,37.4988685 69.345573,37.4988685 L69.5304762,37.4988685 C70.7252991,37.4988685 71.6486556,36.5311251 71.5943932,35.3373531 L71.0393548,23.126509 C70.9951148,22.1532292 70.3252107,21.3380088 69.4400794,21.0637524 L69.4394584,21.0637524 L69.4394584,21.0637524 Z" id="Combined-Shape-Copy-12" transform="translate(69.438012, 29.281310) rotate(-98.000000) translate(-69.438012, -29.281310) "></path>
                    </g>
                    <g id="烟花" fill="url(#linearGradient-3)">
                        <path d="M55.8742346,43 C54.6964931,43.3662366 53.8001455,44.4565802 53.7415942,45.7447071 L53.0030593,61.9924755 C52.9304134,63.5906864 54.1603963,64.8685913 55.7493106,64.8685913 L55.995343,64.8685913 C57.5851762,64.8685913 58.8137958,63.5809104 58.7415942,61.9924755 L58.0030593,45.7447071 C57.9441935,44.4496596 57.052818,43.3649261 55.8750609,43 L55.8742346,43 L55.8742346,43 Z" id="Combined-Shape"></path>
                        <path d="M38.5998834,50.306858 C36.959752,50.9681005 35.7114918,52.9367225 35.6299529,55.2624438 L34.6014638,84.597891 C34.5002965,87.4834707 36.2131797,89.790736 38.4259133,89.790736 L38.7685398,89.790736 C40.9825532,89.790736 42.6935378,87.4658201 42.5929893,84.597891 L41.5645002,55.2624438 C41.4825233,52.9242274 40.2411872,50.9657343 38.6010342,50.306858 L38.5998834,50.306858 L38.5998834,50.306858 Z" id="Combined-Shape-Copy-15" transform="translate(38.597203, 70.048797) rotate(17.000000) translate(-38.597203, -70.048797) "></path>
                        <path d="M19.7648516,24.3342017 C18.1247202,24.9954442 16.87646,26.9640663 16.7949211,29.2897875 L15.766432,58.6252348 C15.6652647,61.5108144 17.3781479,63.8180798 19.5908815,63.8180798 L19.933508,63.8180798 C22.1475214,63.8180798 23.858506,61.4931639 23.7579575,58.6252348 L22.7294684,29.2897875 C22.6474915,26.9515711 21.4061554,24.993078 19.7660024,24.3342017 L19.7648516,24.3342017 L19.7648516,24.3342017 Z" id="Combined-Shape-Copy-20" transform="translate(19.762172, 44.076141) rotate(58.000000) translate(-19.762172, -44.076141) "></path>
                        <path d="M71.1068759,50.0608945 C69.4667446,50.722137 68.2184843,52.690759 68.1369455,55.0164803 L67.1084564,84.3519275 C67.0072891,87.2375072 68.7201723,89.5447725 70.9329058,89.5447725 L71.2755324,89.5447725 C73.4895458,89.5447725 75.2005303,87.2198566 75.0999819,84.3519275 L74.0714928,55.0164803 C73.9895158,52.6782639 72.7481798,50.7197707 71.1080267,50.0608945 L71.1068759,50.0608945 L71.1068759,50.0608945 Z" id="Combined-Shape-Copy-16" transform="translate(71.104196, 69.802833) rotate(-22.000000) translate(-71.104196, -69.802833) "></path>
                        <path d="M84.713347,28.1960238 C83.6882649,28.5866313 82.9081023,29.7495308 82.8571405,31.1233752 L82.2143348,48.452338 C82.1511052,50.1569004 83.2216572,51.5198425 84.6046157,51.5198425 L84.8187573,51.5198425 C86.2025156,51.5198425 87.271881,50.146474 87.2090382,48.452338 L86.5662325,31.1233752 C86.5149969,29.7421497 85.7391619,28.5852335 84.7140663,28.1960238 L84.713347,28.1960238 L84.713347,28.1960238 Z" id="Combined-Shape-Copy-17" transform="translate(84.711672, 39.857933) rotate(-67.000000) translate(-84.711672, -39.857933) "></path>
                        <path d="M67.3637192,0.179836338 C66.3386371,0.514779386 65.5584744,1.51195704 65.5075126,2.69001824 L64.8647069,17.5494741 C64.8014774,19.0111237 65.8720294,20.1798363 67.2549879,20.1798363 L67.4691294,20.1798363 C68.8528878,20.1798363 69.9222532,19.0021831 69.8594104,17.5494741 L69.2166047,2.69001824 C69.1653691,1.5056278 68.3895341,0.513580796 67.3644384,0.179836338 L67.3637192,0.179836338 L67.3637192,0.179836338 Z" id="Combined-Shape-Copy-18" transform="translate(67.362044, 10.179836) rotate(-175.000000) translate(-67.362044, -10.179836) "></path>
                        <path d="M28.3070785,4.79116446 C27.2819964,5.12610751 26.5018338,6.12328516 26.450872,7.30134637 L25.8080663,22.1608023 C25.7448368,23.6224518 26.8153887,24.7911645 28.1983472,24.7911645 L28.4124888,24.7911645 C29.7962472,24.7911645 30.8656125,23.6135112 30.8027698,22.1608023 L30.1599641,7.30134637 C30.1087285,6.11695593 29.3328934,5.12490892 28.3077978,4.79116446 L28.3070785,4.79116446 L28.3070785,4.79116446 Z" id="Combined-Shape-Copy-19" transform="translate(28.305404, 14.791164) rotate(-240.000000) translate(-28.305404, -14.791164) "></path>
                        <path d="M43.6636914,32.9264527 C42.4859499,33.2926893 41.5896023,34.3830328 41.5310511,35.6711598 L40.7925162,51.9189282 C40.7198702,53.517139 41.9498532,54.795044 43.5387674,54.795044 L43.7847998,54.795044 C45.3746331,54.795044 46.6032527,53.5073631 46.5310511,51.9189282 L45.7925162,35.6711598 C45.7336504,34.3761123 44.8422748,33.2913787 43.6645178,32.9264527 L43.6636914,32.9264527 L43.6636914,32.9264527 Z" id="Combined-Shape-Copy-10" transform="translate(43.661767, 43.860748) rotate(44.000000) translate(-43.661767, -43.860748) "></path>
                        <path d="M42.6694062,20.7811491 C41.7663416,21.0619708 41.0790431,21.8980207 41.0341474,22.8857263 L40.4678561,35.3441354 C40.4121529,36.5696061 41.3552751,37.5494738 42.5736174,37.5494738 L42.7622693,37.5494738 C43.9813163,37.5494738 44.9233931,36.5621102 44.8680306,35.3441354 L44.3017393,22.8857263 C44.2566023,21.8927142 43.5731164,21.0609659 42.6700398,20.7811491 L42.6694062,20.7811491 L42.6694062,20.7811491 Z" id="Combined-Shape-Copy-13" transform="translate(42.667931, 29.165311) rotate(104.000000) translate(-42.667931, -29.165311) "></path>
                        <path d="M56.2038959,13 C55.3008312,13.2808217 54.6135328,14.1168716 54.5686371,15.1045773 L54.0023458,27.5629863 C53.9466426,28.7884571 54.8897648,29.7683247 56.1081071,29.7683247 L56.296759,29.7683247 C57.515806,29.7683247 58.4578828,28.7809611 58.4025203,27.5629863 L57.8362289,15.1045773 C57.791092,14.1115651 57.1076061,13.2798168 56.2045295,13 L56.2038959,13 L56.2038959,13 Z" id="Combined-Shape-Copy-14" transform="translate(56.202420, 21.384162) rotate(180.000000) translate(-56.202420, -21.384162) "></path>
                        <path d="M67.9971603,33.4504176 C66.8194188,33.8166542 65.9230712,34.9069978 65.86452,36.1951247 L65.125985,52.4428931 C65.0533391,54.0411039 66.283322,55.3190089 67.8722363,55.3190089 L68.1182687,55.3190089 C69.708102,55.3190089 70.9367216,54.031328 70.86452,52.4428931 L70.125985,36.1951247 C70.0671192,34.9000772 69.1757437,33.8153437 67.9979867,33.4504176 L67.9971603,33.4504176 L67.9971603,33.4504176 Z" id="Combined-Shape-Copy-11" transform="translate(67.995236, 44.384713) rotate(-38.000000) translate(-67.995236, -44.384713) "></path>
                        <path d="M69.4394584,21.0637524 C68.5543388,21.3389938 67.8806979,22.1584303 67.8366944,23.126509 L67.281656,35.3373531 C67.2270597,36.5384721 68.1514408,37.4988685 69.345573,37.4988685 L69.5304762,37.4988685 C70.7252991,37.4988685 71.6486556,36.5311251 71.5943932,35.3373531 L71.0393548,23.126509 C70.9951148,22.1532292 70.3252107,21.3380088 69.4400794,21.0637524 L69.4394584,21.0637524 L69.4394584,21.0637524 Z" id="Combined-Shape-Copy-12" transform="translate(69.438012, 29.281310) rotate(-98.000000) translate(-69.438012, -29.281310) "></path>
                    </g>
                </g>
            </g>
        </g>
    </g>
</svg>