<?xml version="1.0" encoding="utf-8"?>
<!-- Generator: Adobe Illustrator 17.0.0, SVG Export Plug-In . SVG Version: 6.00 Build 0)  -->
<!DOCTYPE svg PUBLIC "-//W3C//DTD SVG 1.1//EN" "http://www.w3.org/Graphics/SVG/1.1/DTD/svg11.dtd">
<svg version="1.1" id="图层_1" xmlns="http://www.w3.org/2000/svg" xmlns:xlink="http://www.w3.org/1999/xlink" x="0px" y="0px"
	 width="300px" height="300px" viewBox="0 0 300 300" enable-background="new 0 0 300 300" xml:space="preserve">
<g>
	<circle fill="#FAFAFA" stroke="#E3ECF6" stroke-width="2" stroke-miterlimit="10" cx="150" cy="150" r="148.5"/>
	<path fill="#FFFFFF" stroke="#C5D9DF" stroke-width="0.5" stroke-miterlimit="10" d="M192.09,238.179
		c-0.128-0.394,0.13-0.857,0.619-1.22l-0.4-1.228c-0.615-0.002-1.102-0.225-1.231-0.621s0.133-0.863,0.628-1.228l-0.378-1.158
		c-0.615-0.002-1.102-0.225-1.231-0.621s0.133-0.863,0.628-1.228l-0.378-1.159c-0.615-0.002-1.102-0.225-1.231-0.621
		c-0.129-0.396,0.133-0.863,0.628-1.228l-0.354-1.086c-0.615-0.002-1.102-0.225-1.231-0.621c-0.129-0.396,0.133-0.863,0.628-1.228
		l-0.125-0.385l-13.005,4.242c0.142,0.493-0.45,1.598-0.45,1.598s-1.129-0.543-1.305-1.025l-29.483,9.616l0.119,0.365
		c0.647-0.015,1.166,0.21,1.3,0.621s-0.153,0.898-0.684,1.268l0.341,1.046c0.647-0.015,1.166,0.21,1.3,0.621
		s-0.153,0.898-0.684,1.268l0.365,1.12c0.647-0.015,1.166,0.21,1.3,0.621c0.134,0.411-0.153,0.898-0.684,1.268l0.365,1.118
		c0.647-0.015,1.166,0.21,1.3,0.621c0.134,0.411-0.153,0.898-0.684,1.268l0.385,1.182c0.652-0.018,1.177,0.207,1.312,0.62
		c0.135,0.413-0.156,0.904-0.694,1.274l0.207,0.636l29.53-9.631c0.026-0.542,0.47-1.373,0.47-1.373s0.849,0.409,1.19,0.832
		l13.052-4.257l-0.216-0.662C192.701,238.795,192.219,238.573,192.09,238.179z"/>
	<path fill="#FFFFFF" stroke="#C5D9DF" stroke-width="0.5" stroke-miterlimit="10" d="M157.67,222.685
		c-0.128-0.394,0.13-0.857,0.619-1.22l-0.4-1.228c-0.615-0.002-1.102-0.225-1.231-0.621s0.133-0.863,0.628-1.228l-0.378-1.158
		c-0.615-0.002-1.102-0.225-1.231-0.621s0.133-0.863,0.628-1.228l-0.378-1.159c-0.615-0.002-1.102-0.225-1.231-0.621
		s0.133-0.863,0.628-1.228l-0.354-1.086c-0.615-0.002-1.102-0.225-1.231-0.621c-0.129-0.396,0.133-0.863,0.628-1.228l-0.125-0.385
		l-13.005,4.242c0.142,0.493-0.45,1.598-0.45,1.598s-1.129-0.543-1.305-1.025l-29.483,9.616l0.119,0.365
		c0.647-0.015,1.166,0.21,1.3,0.621c0.134,0.411-0.153,0.898-0.684,1.268l0.341,1.046c0.647-0.015,1.166,0.21,1.3,0.621
		c0.134,0.411-0.153,0.898-0.684,1.268l0.365,1.12c0.647-0.015,1.166,0.21,1.3,0.621c0.134,0.411-0.153,0.898-0.684,1.268
		l0.365,1.118c0.647-0.015,1.166,0.21,1.3,0.621c0.134,0.411-0.153,0.898-0.684,1.268l0.385,1.182
		c0.652-0.018,1.177,0.207,1.312,0.62c0.135,0.413-0.156,0.904-0.694,1.274l0.207,0.636l29.53-9.631
		c0.026-0.542,0.47-1.373,0.47-1.373s0.849,0.409,1.19,0.832l13.052-4.257l-0.216-0.662
		C158.281,223.301,157.799,223.078,157.67,222.685z"/>
	<path fill="#FFFFFF" stroke="#C5D9DF" stroke-width="0.75" stroke-miterlimit="10" d="M170.196,216.177
		c0.045-0.477,0.533-0.851,1.22-1.011l0.141-1.489c-0.652-0.286-1.067-0.747-1.021-1.228c0.045-0.481,0.539-0.856,1.233-1.015
		l0.133-1.405c-0.652-0.286-1.067-0.747-1.021-1.228c0.045-0.481,0.539-0.856,1.233-1.015l0.133-1.406
		c-0.652-0.286-1.067-0.747-1.021-1.228c0.045-0.481,0.539-0.856,1.233-1.015l0.124-1.317c-0.652-0.286-1.067-0.747-1.021-1.228
		c0.045-0.481,0.539-0.856,1.233-1.015l0.044-0.467l-15.773-1.49c-0.076,0.589-1.214,1.49-1.214,1.49s-0.949-1.098-0.914-1.691
		l-35.758-3.378l-0.042,0.443c0.694,0.283,1.142,0.76,1.095,1.259c-0.047,0.498-0.577,0.884-1.312,1.031l-0.12,1.269
		c0.694,0.283,1.142,0.76,1.095,1.259c-0.047,0.498-0.577,0.884-1.312,1.031l-0.128,1.358c0.694,0.283,1.142,0.76,1.095,1.259
		c-0.047,0.498-0.577,0.884-1.312,1.031l-0.128,1.357c0.694,0.283,1.142,0.76,1.095,1.259c-0.047,0.498-0.577,0.884-1.312,1.031
		l-0.135,1.433c0.701,0.282,1.155,0.762,1.108,1.264c-0.047,0.501-0.583,0.888-1.325,1.034l-0.073,0.771l35.816,3.384
		c0.277-0.564,1.133-1.242,1.133-1.242s0.714,0.826,0.88,1.432l15.83,1.496l0.076-0.803
		C170.56,217.113,170.15,216.654,170.196,216.177z"/>
	<g>
		<path fill="#D9E7F1" d="M207.191,189.649"/>
	</g>
	<g>
		<path fill="#D9E7F1" d="M194.269,193.87"/>
	</g>
	<g>
		<path fill="#C5D9DF" d="M132.636,241.988c-0.427,0.427-0.945,0.599-1.158,0.386l0,0c-0.213-0.213-0.04-0.732,0.386-1.158
			l4.763-4.763c0.427-0.427,0.945-0.599,1.158-0.386l0,0c0.213,0.213,0.04,0.732-0.386,1.158L132.636,241.988z"/>
		<path fill="#C5D9DF" d="M137.211,241.237c0.427,0.427,0.609,0.936,0.408,1.137l0,0c-0.201,0.201-0.711,0.019-1.137-0.408
			l-4.763-4.763c-0.427-0.427-0.609-0.936-0.408-1.137l0,0c0.201-0.201,0.711-0.019,1.137,0.408L137.211,241.237z"/>
	</g>
	<path fill="#C5D9DF" d="M132.058,189.676c-0.238,0.238-0.527,0.334-0.646,0.215l0,0c-0.119-0.119-0.023-0.408,0.215-0.646
		l2.656-2.656c0.238-0.238,0.527-0.334,0.646-0.215l0,0c0.119,0.119,0.023,0.408-0.215,0.646L132.058,189.676z"/>
	<path fill="#C5D9DF" d="M135.327,188.671c0.238,0.238,0.34,0.522,0.227,0.634l0,0c-0.112,0.112-0.396,0.011-0.634-0.227
		l-2.656-2.656c-0.238-0.238-0.34-0.522-0.227-0.634l0,0c0.112-0.112,0.396-0.011,0.634,0.227L135.327,188.671z"/>
	<path fill="#C1C3C5" d="M118.176,178.994c-0.713,0-1.291,0.578-1.291,1.291c0,0.713,0.578,1.291,1.291,1.291
		s1.291-0.578,1.291-1.291C119.466,179.572,118.888,178.994,118.176,178.994z M118.176,181.069c-0.433,0-0.785-0.351-0.785-0.785
		c0-0.433,0.351-0.785,0.785-0.785c0.433,0,0.785,0.351,0.785,0.785C118.96,180.718,118.609,181.069,118.176,181.069z"/>
	<path fill="#C1C3C5" d="M193.526,204.192c-1.342,0-2.431,1.088-2.431,2.431c0,1.342,1.088,2.431,2.431,2.431
		s2.431-1.088,2.431-2.431C195.956,205.28,194.868,204.192,193.526,204.192z M193.526,208.1c-0.816,0-1.478-0.662-1.478-1.478
		c0-0.816,0.662-1.478,1.478-1.478c0.816,0,1.478,0.662,1.478,1.478C195.004,207.439,194.342,208.1,193.526,208.1z"/>
	<path fill="#FFFFFF" stroke="#C5D9DF" stroke-width="2" stroke-miterlimit="10" d="M164.129,224.713
		c-0.389,0-0.704,0.315-0.704,0.704c0,0.389,0.315,0.704,0.704,0.704c0.389,0,0.704-0.315,0.704-0.704
		C164.833,225.028,164.518,224.713,164.129,224.713z M164.129,225.845c-0.236,0-0.428-0.192-0.428-0.428
		c0-0.236,0.192-0.428,0.428-0.428s0.428,0.192,0.428,0.428C164.557,225.654,164.365,225.845,164.129,225.845z"/>
	<path fill="#FFFFFF" stroke="#C5D9DF" stroke-width="2" stroke-miterlimit="10" d="M144.419,233.746
		c0.312,0,0.565-0.253,0.565-0.565c0-0.312-0.253-0.565-0.565-0.565s-0.565,0.253-0.565,0.565
		C143.855,233.493,144.107,233.746,144.419,233.746z M144.419,232.838c0.19,0,0.343,0.154,0.343,0.343
		c0,0.19-0.154,0.343-0.343,0.343c-0.19,0-0.343-0.154-0.343-0.343C144.076,232.991,144.23,232.838,144.419,232.838z"/>
	<path fill="#C1C3C5" d="M112.43,197.38c-1.342,0-2.431,1.088-2.431,2.431s1.088,2.431,2.431,2.431s2.431-1.088,2.431-2.431
		S113.772,197.38,112.43,197.38z M112.43,201.288c-0.816,0-1.478-0.662-1.478-1.478c0-0.816,0.662-1.478,1.478-1.478
		c0.816,0,1.478,0.662,1.478,1.478C113.908,200.627,113.246,201.288,112.43,201.288z"/>
	<g>
		<path fill="#D9E7F1" d="M118.176,114.158"/>
	</g>
	<g>
		<path fill="#E4EEF8" stroke="#C5D9DF" stroke-width="2" stroke-miterlimit="10" d="M143.545,64.891l-47.123,86.392l58.118,26.806
			c0,0,3.665,1.73,8.639-4.815c4.974-6.545,62.045-69.114,62.045-69.114s1.833-2.094-6.807-6.545
			C209.779,93.165,143.545,64.891,143.545,64.891z"/>
		<path fill="#FFFFFF" stroke="#C5D9DF" stroke-width="2" stroke-miterlimit="10" d="M143.954,66.46
			c0,0,19.373,53.668,20.158,61.522c0.785,7.854-25.918,35.342-27.881,35.538c-1.963,0.196-16.297-5.694-17.475-7.657
			l-39.269,50.264c0,0-4.909,2.552-5.498-3.927l-1.767-43.981L143.954,66.46z"/>
	</g>
	<circle fill="#C5D9DF" cx="104.176" cy="134.491" r="2.377"/>
	<circle fill="#C5D9DF" cx="125.712" cy="111.876" r="2.377"/>
	<g>
		<g>
			<path fill="#C5D9DF" d="M125.39,141.475c-0.14-5.255,4.015-9.354,9.163-9.757c1.596-0.125,1.608-2.626,0-2.5
				c-6.468,0.506-11.84,5.576-11.663,12.257C122.933,143.083,125.433,143.088,125.39,141.475L125.39,141.475z"/>
		</g>
	</g>
</g>
</svg>
