<?xml version="1.0" encoding="UTF-8" standalone="no"?>
<svg width="36px" height="36px" viewBox="0 0 36 36" version="1.1" xmlns="http://www.w3.org/2000/svg" xmlns:xlink="http://www.w3.org/1999/xlink">
    <!-- Generator: Sketch 3.8.1 (29687) - http://www.bohemiancoding.com/sketch -->
    <title>Artboard 1</title>
    <desc>Created with Sketch.</desc>
    <defs>
        <polygon id="path-1" points="0 0.0945322635 0 34.4464204 33.9202238 34.4464204 33.9202238 0.0945322635 0 0.0945322635"></polygon>
        <polygon id="path-3" points="0 38.3807878 33.9218391 38.3807878 33.9218391 0.536457681 0 0.536457681"></polygon>
    </defs>
    <g id="Page-1" stroke="none" stroke-width="1" fill="none" fill-rule="evenodd">
        <g id="Artboard-1">
            <g id="Page-1" transform="translate(1.000000, 0.000000)">
                <g id="Group-3" transform="translate(0.000000, 0.445197)">
                    <mask id="mask-2" fill="white">
                        <use xlink:href="#path-1"></use>
                    </mask>
                    <g id="Clip-2"></g>
                    <path d="M15.2349441,29.1177882 C15.0168751,29.0605351 14.8028444,28.9991924 14.5888138,28.9296707 C14.2940169,28.8315225 13.9790284,28.9991924 13.8861471,29.2977267 C13.7932659,29.5962609 13.9547985,29.9152428 14.2495954,30.0093015 C14.4838176,30.0829127 14.7180398,30.1524344 14.9563004,30.213777 C15.0007218,30.2301351 15.0491816,30.2342246 15.0936031,30.2342246 C15.3439785,30.2342246 15.5701241,30.0624651 15.6387755,29.8089155 C15.7155034,29.5062917 15.5337793,29.1954889 15.2349441,29.1177882 M6.25373333,17.2704763 C6.25373333,16.955584 6.00335785,16.7020344 5.69644598,16.7020344 C5.38549579,16.7020344 5.13512031,16.955584 5.13512031,17.2704763 C5.13512031,21.9284288 7.62272184,26.2510414 11.6287295,28.5493462 C11.7175724,28.6025099 11.8104536,28.6229574 11.9033349,28.6229574 C12.1012123,28.6229574 12.2869747,28.5207197 12.3919709,28.3366917 C12.5454268,28.0626945 12.4485073,27.7191756 12.1819785,27.5637742 C8.52730421,25.4658553 6.25373333,21.5194777 6.25373333,17.2704763 M16.9593042,32.1767421 C8.84229272,32.1767421 2.23964904,25.4903924 2.23964904,17.2704763 C2.23964904,9.05056024 8.84229272,2.36012107 16.9593042,2.36012107 C25.0763157,2.36012107 31.6789594,9.05056024 31.6789594,17.2704763 C31.6789594,25.4903924 25.0763157,32.1767421 16.9593042,32.1767421 M16.9593042,0.0945322635 C7.6106069,0.0945322635 -0.00161532567,7.79917003 -0.00161532567,17.2704763 C-0.00161532567,26.7417826 7.6106069,34.4464204 16.9593042,34.4464204 C26.3120398,34.4464204 33.9202238,26.7417826 33.9202238,17.2704763 C33.9202238,7.79917003 26.3120398,0.0945322635 16.9593042,0.0945322635" id="Fill-1" fill="#404040" mask="url(#mask-2)"></path>
                </g>
                <mask id="mask-4" fill="white">
                    <use xlink:href="#path-3"></use>
                </mask>
                <g id="Clip-4"></g>
                <text id="i" mask="url(#mask-4)" font-family="Athelas-BoldItalic, Athelas" font-size="28" font-style="italic" font-weight="bold" fill="#404040">
                    <tspan x="13.6485407" y="26.337396">i</tspan>
                </text>
            </g>
        </g>
    </g>
</svg>