<?xml version="1.0" encoding="UTF-8" standalone="no"?>
<svg width="36px" height="36px" viewBox="0 0 36 36" version="1.1" xmlns="http://www.w3.org/2000/svg" xmlns:xlink="http://www.w3.org/1999/xlink">
    <!-- Generator: Sketch 3.8.1 (29687) - http://www.bohemiancoding.com/sketch -->
    <title>Artboard 1</title>
    <desc>Created with Sketch.</desc>
    <defs>
        <polygon id="path-1" points="0 35.46656 26.808 35.46656 26.808 -0.00144 0 -0.00144"></polygon>
    </defs>
    <g id="Page-1" stroke="none" stroke-width="1" fill="none" fill-rule="evenodd">
        <g id="Artboard-1">
            <g id="Page-1" transform="translate(4.000000, 0.000000)">
                <mask id="mask-2" fill="white">
                    <use xlink:href="#path-1"></use>
                </mask>
                <g id="Clip-2"></g>
                <path d="M15.8708,30.73056 C15.1548,32.14656 14.2548,32.99056 13.4668,32.99056 C12.6668,32.99056 11.7828,32.16656 11.0468,30.72656 C8.5668,25.87456 2.4948,17.05056 2.4948,13.29456 C2.4948,7.32656 7.3908,2.47456 13.4068,2.47456 C19.4188,2.47456 24.3108,7.32656 24.3108,13.29456 C24.3108,17.10656 18.0388,26.44256 15.8708,30.73056 M13.4068,-0.00144 C6.0148,-0.00144 -0.0012,5.96256 -0.0012,13.29456 C-0.0012,18.07456 6.9508,28.19456 8.8188,31.84656 C10.4308,34.99456 12.4228,35.46656 13.4668,35.46656 C15.2748,35.46656 16.9188,34.17856 18.1028,31.83856 C19.8748,28.33856 26.8108,18.02256 26.8108,13.29456 C26.8108,5.96256 20.7948,-0.00144 13.4068,-0.00144 M21.1348,9.65056 C19.6428,7.32256 17.2108,5.77456 14.4588,5.40256 C14.1148,5.35856 13.8028,5.59456 13.7548,5.93056 C13.7108,6.27056 13.9508,6.58256 14.2908,6.63056 C16.6788,6.95056 18.7868,8.29456 20.0788,10.31456 C20.1988,10.50256 20.3988,10.60256 20.6068,10.60256 C20.7228,10.60256 20.8388,10.57056 20.9428,10.50656 C21.2308,10.32256 21.3188,9.94256 21.1348,9.65056 M22.2468,12.07856 C22.1988,11.85856 22.1708,11.72256 22.0948,11.54256 C21.9588,11.23056 21.5868,11.08656 21.2748,11.21856 C20.9588,11.35456 20.8108,11.71856 20.9468,12.03456 C20.9748,12.09856 20.9868,12.14656 21.0268,12.33856 C21.0508,12.44656 21.0828,12.59056 21.1308,12.78656 C21.1988,13.07456 21.4548,13.26656 21.7348,13.26656 C21.7828,13.26656 21.8308,13.25856 21.8788,13.25056 C22.2148,13.17056 22.4228,12.83856 22.3468,12.50256 C22.2988,12.31856 22.2708,12.18256 22.2468,12.07856 M15.7708,16.81456 C15.1588,17.42256 14.3428,17.75456 13.4788,17.75456 C12.6148,17.75456 11.7988,17.42256 11.1868,16.81456 C9.9268,15.56256 9.9268,13.52656 11.1868,12.27456 C11.7988,11.66656 12.6148,11.33456 13.4788,11.33456 C14.3428,11.33456 15.1588,11.66656 15.7708,12.27456 C17.0308,13.52656 17.0308,15.56256 15.7708,16.81456 M13.4788,8.85856 C11.9468,8.85856 10.5068,9.45056 9.4228,10.52256 C7.1868,12.74256 7.1868,16.35056 9.4228,18.56656 C10.5068,19.63856 11.9468,20.23056 13.4788,20.23056 C15.0108,20.23056 16.4508,19.63856 17.5348,18.56656 C19.7708,16.35056 19.7708,12.74256 17.5348,10.52256 C16.4508,9.45056 15.0108,8.85856 13.4788,8.85856" id="Fill-1" fill="#404040" mask="url(#mask-2)"></path>
            </g>
        </g>
    </g>
</svg>