<?xml version="1.0" encoding="UTF-8" standalone="no"?>
<svg width="39px" height="37px" viewBox="0 0 39 37" version="1.1" xmlns="http://www.w3.org/2000/svg" xmlns:xlink="http://www.w3.org/1999/xlink">
    <!-- Generator: Sketch 3.8.2 (29753) - http://www.bohemiancoding.com/sketch -->
    <title>iconfont-gouwuche-2</title>
    <desc>Created with Sketch.</desc>
    <defs></defs>
    <g id="活动二级界面" stroke="none" stroke-width="1" fill="none" fill-rule="evenodd">
        <g id="优惠券－品类二级页面" transform="translate(-563.000000, -696.000000)" fill="#FFFFFF">
            <g id="商品列表-copy-2" transform="translate(24.000000, 603.000000)">
                <g id="加入购物差" transform="translate(528.000000, 77.000000)">
                    <g id="iconfont-gouwuche-2" transform="translate(11.000000, 16.000000)">
                        <path d="M8.29178984,9.32546848 L3.54716932,0.026355286 L2.17007986,0.74876355 L2.49598325,1.39141372 L0,2.21615968 L0.483361563,3.71183242 L3.21563507,2.79614277 L9.84329874,15.786708 L9.84329874,16.0879546 L9.99512605,16.0879546 L13.8121648,23.5729185 L14.4867697,25.5920211 L17.9271586,25.5125409 L32.604897,25.5125409 L32.604897,25.2565924 L38.6593113,10.5939557 L38.9517042,10.5939557 L38.9517042,9.02401344 L8.29178984,9.02401344 L8.29178984,9.32546848 Z M12.9521534,18.4485303 L11.74914,16.0879546 L34.7186683,16.0879546 L33.7463143,18.4428333 L12.9521534,18.4485303 L12.9521534,18.4485303 Z M31.4750849,23.9425292 L15.7515166,23.9425292 L13.7504313,20.0182641 L33.0998637,20.0182641 L31.4750849,23.9425292 L31.4750849,23.9425292 Z M35.3651189,14.5182903 L10.9452313,14.5182903 L8.9438713,10.5939557 L36.989829,10.5939557 L35.3651189,14.5182903 L35.3651189,14.5182903 Z" id="Fill-1"></path>
                        <path d="M13.8137183,29 C11.7122817,29 10,30.732331 10,32.85826 C10,34.9843813 11.7122817,36.7167764 13.8137183,36.7167764 C15.9149014,36.7167764 17.6271831,34.9843813 17.6271831,32.85826 C17.6271831,30.732331 15.9149014,29 13.8137183,29 L13.8137183,29 Z M13.8137183,35.2100364 C12.5319789,35.2100364 11.4891831,34.1549913 11.4891831,32.85826 C11.4891831,31.561721 12.5319789,30.5064194 13.8137183,30.5064194 C15.0952042,30.5064194 16.1382535,31.561721 16.1382535,32.85826 C16.1382535,34.1549913 15.0952042,35.2100364 13.8137183,35.2100364 L13.8137183,35.2100364 Z" id="Fill-2"></path>
                        <path d="M31.8137183,29 C29.7122817,29 28,30.732331 28,32.85826 C28,34.9843813 29.7122817,36.7167764 31.8137183,36.7167764 C33.9149014,36.7167764 35.6271831,34.9843813 35.6271831,32.85826 C35.6219859,30.732331 33.9149014,29 31.8137183,29 L31.8137183,29 Z M31.8137183,35.2100364 C30.5319789,35.2100364 29.4891831,34.1549913 29.4891831,32.85826 C29.4891831,31.561721 30.5319789,30.5064194 31.8137183,30.5064194 C33.0952042,30.5064194 34.138,31.561721 34.138,32.85826 C34.1328028,34.1549913 33.0952042,35.2100364 31.8137183,35.2100364 L31.8137183,35.2100364 Z" id="Fill-3"></path>
                    </g>
                </g>
            </g>
        </g>
    </g>
</svg>