<?xml version="1.0" encoding="UTF-8" standalone="no"?>
<svg width="36px" height="36px" viewBox="0 0 36 36" version="1.1" xmlns="http://www.w3.org/2000/svg" xmlns:xlink="http://www.w3.org/1999/xlink">
    <!-- Generator: Sketch 3.8.1 (29687) - http://www.bohemiancoding.com/sketch -->
    <title>Artboard 1</title>
    <desc>Created with Sketch.</desc>
    <defs>
        <polygon id="path-1" points="26.876 33.59648 26.876 0.00128 0.0008 0.00128 0.0008 33.59648"></polygon>
    </defs>
    <g id="Page-1" stroke="none" stroke-width="1" fill="none" fill-rule="evenodd">
        <g id="Artboard-1">
            <g id="Page-1" transform="translate(4.000000, 1.000000)">
                <mask id="mask-2" fill="white">
                    <use xlink:href="#path-1"></use>
                </mask>
                <g id="Clip-2"></g>
                <path d="M4.9368,27.60848 C5.2408,27.60848 5.4848,27.36448 5.4848,27.06448 L5.4848,26.52048 C5.4848,26.22048 5.2408,25.97648 4.9368,25.97648 C4.6328,25.97648 4.3888,26.22048 4.3888,26.52048 L4.3888,27.06448 C4.3888,27.36448 4.6328,27.60848 4.9368,27.60848 L4.9368,27.60848 Z M4.9368,24.88448 C5.2408,24.88448 5.4848,24.64448 5.4848,24.34048 L5.4848,18.89648 L7.7448,18.89648 C8.0488,18.89648 8.2928,18.65248 8.2928,18.35248 C8.2928,18.05248 8.0488,17.80848 7.7448,17.80848 L5.0008,17.80848 C4.7008,17.80848 4.3888,18.05248 4.3888,18.35248 L4.3888,24.34048 C4.3888,24.64448 4.6328,24.88448 4.9368,24.88448 L4.9368,24.88448 Z M24.6848,28.23648 C24.6848,31.42048 24.7488,31.42048 22.0048,31.42048 L6.1008,31.42048 C2.7608,31.42048 2.1928,31.00448 2.1928,28.23648 L2.1928,16.17648 L24.6848,16.17648 L24.6848,28.23648 Z M6.5808,9.43248 C6.5808,5.56848 10.0568,2.17648 13.9408,2.17648 L14.0088,2.17648 C17.7488,2.17648 20.8448,5.50048 20.8448,9.43248 L20.8448,13.99648 L6.5808,13.99648 L6.5808,9.43248 Z M25.8448,13.99648 L23.0368,13.99648 L23.0368,9.43248 C23.0368,4.23248 19.0248,0.00048 14.0088,0.00048 L13.9408,0.00048 C8.8848,0.00048 4.3888,4.40848 4.3888,9.43248 L4.3888,13.99648 L1.1608,13.99648 C0.5568,13.99648 0.0008,14.48448 0.0008,15.08848 L0.0008,28.23648 C0.0008,32.74448 2.1848,33.59648 6.1008,33.59648 L22.0048,33.59648 C26.5168,33.59648 26.8768,32.12848 26.8768,28.23648 L26.8768,15.08848 C26.8768,14.48448 26.4528,13.99648 25.8448,13.99648 L25.8448,13.99648 Z" id="Fill-1" fill="#404040" mask="url(#mask-2)"></path>
            </g>
        </g>
    </g>
</svg>