<?xml version="1.0" encoding="UTF-8" standalone="no"?>
<svg width="60px" height="60px" viewBox="0 0 60 60" version="1.1" xmlns="http://www.w3.org/2000/svg" xmlns:xlink="http://www.w3.org/1999/xlink">
    <!-- Generator: Sketch 3.8.1 (29687) - http://www.bohemiancoding.com/sketch -->
    <title>Artboard 2</title>
    <desc>Created with Sketch.</desc>
    <defs></defs>
    <g id="Page-1" stroke="none" stroke-width="1" fill="none" fill-rule="evenodd">
        <g id="Artboard-2" fill="#FF6969">
            <path d="M58.6876907,12.810343 C58.6876907,10.7055297 57.0338558,9 54.9940575,9 L46.7230053,9 L46.7230053,12.810343 L43.0293722,12.810343 L43.0293722,9 L5.69363315,9 C3.65383489,9 2,10.7055297 2,12.810343 L2,24.2422564 C5.05969739,24.2422564 7.54020489,26.8011897 7.54020489,29.9582132 C7.54020489,33.1148435 5.05969739,35.6741699 2,35.6741699 L2,47.1057885 C2,49.2108966 3.65383489,50.9165246 5.69363315,50.9165246 L43.0293722,50.9165246 L43.0293722,47.1057885 L46.7230053,47.1057885 L46.7230053,50.9165246 L54.9940575,50.9165246 C57.0338558,50.9165246 58.6876907,49.2105035 58.6876907,47.1057885 L58.6876907,35.6741699 C55.6276015,35.6741699 53.147094,33.1148435 53.147094,29.9582132 C53.147094,26.8011897 55.6276015,24.2422564 58.6876907,24.2422564 L58.6876907,12.810343 Z M34.5484012,28.3528238 C34.4079619,28.4522761 28.8830349,32.6788057 28.8830349,32.6788057 C28.8830349,32.6788057 31.0050989,39.5025951 31.0456442,39.6112852 C31.0773752,39.7107376 31.0999983,39.8201155 31.0999983,39.9333261 C31.0999983,40.4404153 30.706298,40.8572898 30.2220075,40.8572898 C30.0368117,40.8572898 29.8643475,40.7958692 29.7196969,40.6918962 C29.5930665,40.5970627 24.0631448,36.3797708 24.0631448,36.3797708 L18.4062009,40.6918962 C18.2612566,40.7958692 18.0894779,40.8572898 17.9039883,40.8572898 C17.4195998,40.8572898 17.0263893,40.4450342 17.0263893,39.9333261 C17.0263893,39.8201155 17.0489144,39.7107376 17.0799599,39.6112852 C17.1211907,39.5025951 19.2432547,32.6788057 19.2432547,32.6788057 C19.2432547,32.6788057 13.717936,28.4522761 13.5775946,28.3528238 C13.3514618,28.187037 13.2023062,27.9071552 13.2023062,27.594352 C13.2023062,27.0833318 13.5868005,26.641889 14.071091,26.641889 L21.0853214,26.641889 L23.2211943,19.7331917 C23.3255934,19.3447181 23.6599448,19.0607088 24.0631448,19.0607088 C24.4656593,19.0607088 24.8006962,19.3451112 24.9044098,19.7331917 L27.0493907,26.641889 L34.0640128,26.641889 C34.5484012,26.641889 34.9240814,27.0833318 34.9240814,27.5897331 C34.9240814,27.9071552 34.7748279,28.1866439 34.5484012,28.3528238 L34.5484012,28.3528238 Z M43.0293722,43.2953472 L46.7230053,43.2953472 L46.7230053,39.4846111 L43.0293722,39.4846111 L43.0293722,43.2953472 Z M43.0293722,35.6741699 L46.7230053,35.6741699 L46.7230053,31.8638269 L43.0293722,31.8638269 L43.0293722,35.6741699 Z M43.0293722,28.0530908 L46.7230053,28.0530908 L46.7230053,24.2418633 L43.0293722,24.2418633 L43.0293722,28.0530908 Z M43.0293722,20.4315204 L46.7230053,20.4315204 L46.7230053,16.6210791 L43.0293722,16.6210791 L43.0293722,20.4315204 Z" id="iconfont-iconcoupon"></path>
        </g>
    </g>
</svg>