<?xml version="1.0" encoding="UTF-8" standalone="no"?>
<svg width="36px" height="36px" viewBox="0 0 36 36" version="1.1" xmlns="http://www.w3.org/2000/svg" xmlns:xlink="http://www.w3.org/1999/xlink">
    <!-- Generator: Sketch 3.8.1 (29687) - http://www.bohemiancoding.com/sketch -->
    <title>Artboard 1</title>
    <desc>Created with Sketch.</desc>
    <defs>
        <polygon id="path-1" points="35.954087 35.6205006 35.954087 -0.000247741935 0 -0.000247741935 0 35.6205006"></polygon>
    </defs>
    <g id="Page-1" stroke="none" stroke-width="1" fill="none" fill-rule="evenodd">
        <g id="Artboard-1">
            <g id="Page-1">
                <mask id="mask-2" fill="white">
                    <use xlink:href="#path-1"></use>
                </mask>
                <g id="Clip-2"></g>
                <path d="M17.5742609,27.0692748 C14.7568696,27.0692748 12.098087,25.8429523 10.2824348,23.7082426 C10.0862609,23.4770168 9.73565217,23.4481135 9.50191304,23.6421781 C9.26817391,23.8362426 9.23895652,24.1830813 9.43513043,24.4143071 C11.4636522,26.7967587 14.4313043,28.1634684 17.5742609,28.1634684 C17.8789565,28.1634684 18.1293913,27.9198555 18.1293913,27.6184361 C18.1293913,27.3128877 17.8789565,27.0692748 17.5742609,27.0692748 L17.5742609,27.0692748 Z M8.85495652,21.4992103 C8.81321739,21.3794684 8.75478261,21.2225652 8.67130435,21.0119845 C8.56278261,20.7270813 8.2413913,20.5866942 7.95756522,20.694049 C7.67373913,20.8055329 7.53182609,21.1234684 7.64034783,21.4042426 C7.71965217,21.6106942 7.77391304,21.7593394 7.81565217,21.8749523 C7.90330435,22.1185652 7.9533913,22.2506942 8.06191304,22.4323716 C8.16626087,22.6016619 8.34991304,22.6966297 8.53773913,22.6966297 C8.63373913,22.6966297 8.73391304,22.6718555 8.82156522,22.6181781 C9.08452174,22.4612748 9.168,22.1268232 9.0093913,21.8666942 C8.95930435,21.7799845 8.93426087,21.7221781 8.85495652,21.4992103 L8.85495652,21.4992103 Z M17.7996522,7.28295226 C17.4949565,7.28295226 17.2445217,7.53069419 17.2445217,7.83211355 C17.2445217,8.1335329 17.4949565,8.38127484 17.7996522,8.38127484 C21.7189565,8.38127484 25.296,10.8132748 26.6984348,14.4385652 C26.786087,14.6574039 26.9947826,14.7895329 27.216,14.7895329 C27.2827826,14.7895329 27.3495652,14.7771458 27.4163478,14.7523716 C27.7001739,14.6450168 27.842087,14.3270813 27.7335652,14.0463071 C26.1641739,9.99985548 22.173913,7.28295226 17.7996522,7.28295226 L17.7996522,7.28295226 Z M33.7398261,17.878049 C33.7398261,19.1415329 32.6504348,20.1448877 31.2313043,20.2646297 C30.7638261,20.301791 30.3172174,20.6279845 30.1961739,21.07392 C29.9373913,22.0359845 29.5033043,23.0475974 28.9106087,24.0839845 C28.6852174,24.4762426 28.7269565,24.9675974 29.0149565,25.3185652 C29.9081739,26.4003716 29.8914783,27.8992103 28.9773913,28.8075974 L28.9064348,28.877791 C28.4890435,29.2906942 27.9631304,29.5054039 27.3746087,29.5054039 C26.7526957,29.5054039 26.109913,29.261791 25.5631304,28.8199845 C25.2,28.5309523 24.6991304,28.493791 24.2984348,28.7291458 C23.2758261,29.3278555 22.1822609,29.782049 21.0386087,30.0793394 C20.6128696,30.1908232 20.2914783,30.541791 20.2288696,30.9753394 C20.0410435,32.1934039 19.1895652,33.4279845 17.9290435,33.4279845 L17.8205217,33.4279845 C16.6685217,33.4279845 15.5833043,32.342049 15.3412174,30.9588232 C15.2702609,30.5335329 14.9530435,30.1908232 14.5314783,30.0834684 C13.4212174,29.7944361 12.3443478,29.3485006 11.3342609,28.7663071 C11.1631304,28.6672103 10.9711304,28.6176619 10.7791304,28.6176619 C10.5453913,28.6176619 10.3158261,28.6878555 10.1196522,28.8323716 C9.53113043,29.261791 8.82573913,29.5054039 8.1746087,29.5054039 C7.77808696,29.5054039 7.20626087,29.4104361 6.768,28.9810168 L6.67617391,28.88192 C5.86226087,28.0767587 5.87895652,26.5448877 6.70121739,25.3970168 C6.95582609,25.046049 6.98086957,24.5794684 6.76382609,24.2078555 C6.192,23.2416619 5.76626087,22.1722426 5.46156522,21.0243716 C5.35304348,20.6114684 5.04,20.2976619 4.61426087,20.2233394 C3.21182609,19.9797265 2.21426087,18.9722426 2.21426087,17.878049 L2.21426087,17.7706942 C2.21426087,16.6682426 3.21182609,15.6483716 4.61426087,15.3965006 C5.04,15.3221781 5.32382609,15.0083716 5.43234783,14.5954684 C5.75791304,13.3567587 6.20034783,12.2873394 6.77634783,11.3252748 C7.00591304,10.9495329 6.98086957,10.4746942 6.72208696,10.1195974 C5.99582609,9.13275871 5.72452174,7.67108129 6.6093913,6.79159742 L6.68452174,6.71727484 C7.07686957,6.32914581 7.64869565,6.11443613 8.29565217,6.11443613 C8.96347826,6.11443613 9.66469565,6.3415329 10.224,6.74204903 C10.5746087,6.99392 11.0462609,7.01869419 11.421913,6.80398452 C12.3902609,6.25069419 13.4253913,5.8295329 14.498087,5.54875871 C14.9405217,5.43314581 15.266087,5.05740387 15.312,4.60733935 C15.4622609,3.23237161 16.5433043,2.19185548 17.8205217,2.19185548 L17.9290435,2.19185548 C19.1603478,2.19185548 20.1161739,3.17869419 20.253913,4.59495226 C20.2998261,5.05327484 20.6253913,5.43314581 21.072,5.54875871 C22.1697391,5.83779097 23.2257391,6.27133935 24.2107826,6.84114581 C24.6073043,7.06824258 25.104,7.03108129 25.4629565,6.74617806 C25.9763478,6.33327484 26.6107826,6.10617806 27.2493913,6.10617806 C27.9088696,6.10617806 28.5182609,6.34979097 28.989913,6.81637161 L29.0483478,6.87004903 C29.9206957,7.73714581 29.8998261,9.10385548 28.9857391,10.198049 C28.6935652,10.5531458 28.6601739,11.0527587 28.8897391,11.4491458 C29.4866087,12.4648877 29.9457391,13.5054039 30.2253913,14.54592 C30.3422609,14.9918555 30.7638261,15.318049 31.2271304,15.3552103 C32.6504348,15.4749523 33.7398261,16.4906942 33.7398261,17.7706942 L33.7398261,17.878049 Z M32.1871304,13.2948232 C31.9325217,12.5103071 31.5401739,11.734049 31.1394783,10.9701781 C32.2998261,9.09559742 32.1161739,6.81637161 30.5843478,5.29688774 L30.525913,5.24321032 C29.661913,4.38850065 28.4973913,3.91779097 27.2452174,3.91779097 C26.3603478,3.91779097 25.4796522,4.15727484 24.7033043,4.60733935 C23.9394783,4.21508129 23.1464348,3.88888774 22.3325217,3.62875871 C21.8191304,1.48579097 20.061913,-0.000660645162 17.9290435,-0.000660645162 L17.8205217,-0.000660645162 C15.6584348,-0.000660645162 13.8052174,1.51469419 13.250087,3.62462968 C12.4486957,3.87650065 11.664,4.19856516 10.9085217,4.58669419 C10.1029565,4.15314581 9.2013913,3.92192 8.29982609,3.92192 C7.06434783,3.92192 5.9373913,4.36372645 5.12765217,5.16475871 L5.06086957,5.24321032 C3.65426087,6.63469419 3.49565217,8.88088774 4.56834783,10.8008877 C4.1426087,11.60192 3.81704348,12.4648877 3.52904348,13.4063071 C1.41286957,14.0463071 -0.00208695652,15.7970168 -0.00208695652,17.7706942 L-0.00208695652,17.878049 C-0.00208695652,19.8475974 1.41704348,21.58592 3.53321739,22.2176619 C3.80869565,23.1012748 4.09669565,23.9394684 4.51408696,24.7322426 C3.46643478,26.6687587 3.67930435,29.014049 5.08591304,30.4055329 L5.17773913,30.5046297 C5.95408696,31.2767587 7.01843478,31.69792 8.1746087,31.69792 C9.072,31.69792 9.99026087,31.4501781 10.8166957,30.9877265 C11.6264348,31.4088877 12.4653913,31.7515974 13.3293913,32.0199845 C13.9721739,34.1134039 15.8045217,35.6205006 17.8205217,35.6205006 L17.9290435,35.6205006 C19.9325217,35.6205006 21.6646957,34.1629523 22.2615652,32.0323716 C23.133913,31.7639845 23.9853913,31.4336619 24.7951304,31.0083716 C25.5965217,31.4832103 26.4855652,31.7846297 27.3704348,31.7846297 C28.5391304,31.7846297 29.6493913,31.2891458 30.48,30.4715974 L30.5593043,30.3559845 C32.1036522,28.8241135 32.3415652,26.4416619 31.197913,24.5546942 C31.5944348,23.8032103 31.9408696,23.0599845 32.1829565,22.3291458 C34.3450435,21.8254039 35.9561739,20.0251458 35.9561739,17.878049 L35.9561739,17.7706942 C35.9561739,15.6153394 34.3492174,13.8026942 32.1871304,13.2948232 L32.1871304,13.2948232 Z M17.7829565,20.6527587 C16.2010435,20.6527587 14.9154783,19.3768877 14.9154783,17.8119845 C14.9154783,16.2429523 16.2010435,14.9670813 17.7829565,14.9670813 C19.3648696,14.9670813 20.6504348,16.2429523 20.6504348,17.8119845 C20.6504348,19.3768877 19.3648696,20.6527587 17.7829565,20.6527587 L17.7829565,20.6527587 Z M17.7829565,12.7745652 C14.9822609,12.7745652 12.6991304,15.0331458 12.6991304,17.8119845 C12.6991304,20.5866942 14.9822609,22.8452748 17.7829565,22.8452748 C20.5836522,22.8452748 22.8667826,20.5866942 22.8667826,17.8119845 C22.8667826,15.0331458 20.5836522,12.7745652 17.7829565,12.7745652 L17.7829565,12.7745652 Z" id="Fill-1" fill="#404040" mask="url(#mask-2)"></path>
            </g>
        </g>
    </g>
</svg>