<?xml version="1.0" encoding="UTF-8" standalone="no"?>
<svg width="60px" height="60px" viewBox="0 0 60 60" version="1.1" xmlns="http://www.w3.org/2000/svg" xmlns:xlink="http://www.w3.org/1999/xlink">
    <!-- Generator: Sketch 3.8.1 (29687) - http://www.bohemiancoding.com/sketch -->
    <title>Artboard 2</title>
    <desc>Created with Sketch.</desc>
    <defs></defs>
    <g id="Page-1" stroke="none" stroke-width="1" fill="none" fill-rule="evenodd">
        <g id="Artboard-2" fill="#FFC800">
            <path d="M58.0081873,32.0972474 C57.5678932,27.2328982 55.2405647,22.5582246 51.3421757,19.1553371 C49.0656799,17.1660402 46.4280409,15.6110628 43.5959509,14.4809417 C43.2275359,15.0096118 42.8068897,15.5069708 42.3289081,15.9619555 C41.6952818,16.563476 40.9840429,17.0787867 40.2083366,17.4916754 C41.0290722,17.7482175 41.8170846,18.0433765 42.5744715,18.3809795 C43.3430457,18.7258883 43.6410501,19.6225679 43.214111,20.3232401 C42.8396827,20.9426428 42.0175488,21.1883303 41.3391029,20.8809251 C36.1794047,18.5660627 30.4179643,19.0017737 27.8910106,19.364843 C27.1469786,19.4689349 26.4354601,19.0199341 26.261496,18.3266374 L26.261496,18.3192619 C26.0610318,17.5340497 26.6165561,16.7534299 27.4570094,16.6311079 C27.9166717,16.563476 28.4721959,16.4957745 29.093586,16.4400408 C28.9051483,16.2861991 28.7240523,16.127765 28.5500882,15.9619555 C27.6574736,15.1139821 26.952248,14.1251784 26.4609114,13.0192017 C26.4100787,12.9028637 26.3576377,12.78082 26.3126084,12.6634383 C25.5429154,12.7868039 24.7805641,12.9393237 24.0374411,13.1170314 C19.7047714,10.7222213 14.5062668,10.716307 11.4163772,11.0057605 C10.0714421,11.1278041 9.27636769,12.4916449 9.8636362,13.6459798 L12.4829559,18.7441183 C9.5729736,21.1522182 7.37430013,24.0998427 6.14005036,27.3864617 L2.94576833,27.3744939 C1.87317647,27.3671184 1,28.197488 1,29.2161416 L1,36.0217078 C1,36.7102035 1.40015927,37.3358683 2.04091753,37.6552413 L6.18507964,39.7075778 C7.91786787,44.2468484 11.5065057,48.1409023 16.2392648,50.8248875 L16.2392648,56.8508775 C16.2392648,58.0356885 17.2545213,59 18.502126,59 L24.3085957,59 C25.2072235,59 26.0219458,58.4906732 26.3844176,57.7100534 L27.8388493,54.5349018 C29.093586,54.6824813 30.3669218,54.7561667 31.6730506,54.7561667 C33.7291546,54.7561667 35.7270842,54.5710835 37.6471914,54.221304 L37.6471914,56.8508775 C37.6471914,58.0356885 38.6627276,59 39.9103323,59 L45.6911409,59 C46.5241826,59 47.2938756,58.564289 47.6880217,57.8638951 C50.7656051,52.3736028 54.1084698,46.8629234 56.5783678,41.1138624 C57.8270912,38.2033938 58.2794118,35.1128517 58.0081873,32.0972474 L58.0081873,32.0972474 Z M16.6077498,30.5857576 C14.9976034,30.5857576 13.6988863,29.3515446 13.6988863,27.8221031 C13.6988863,26.2924527 14.9976034,25.0582398 16.6077498,25.0582398 C18.2175465,25.0582398 19.5176621,26.2924527 19.5176621,27.8221031 C19.5176621,29.3515446 18.2175465,30.5857576 16.6077498,30.5857576 L16.6077498,30.5857576 Z M32.5716085,16.311735 C33.4579301,16.6433541 34.4272483,16.8271153 35.4425047,16.8271153 C35.9398545,16.8271153 36.4252478,16.7849497 36.8909233,16.6988094 C38.8694847,16.3479167 40.5827649,15.2854276 41.7269561,13.8055271 C42.6779549,12.5772981 43.2395623,11.0601026 43.2395623,9.41411428 C43.246904,5.31702553 39.7486744,2 35.4425047,2 C31.1294828,2 27.6381054,5.31702553 27.6381054,9.41411428 C27.6381054,10.4768121 27.8715725,11.4835675 28.2985116,12.3995208 C29.1192471,14.1806338 30.6649261,15.5928328 32.5716085,16.311735 L32.5716085,16.311735 Z" id="iconfont-e634"></path>
        </g>
    </g>
</svg>