<?xml version="1.0" encoding="UTF-8" standalone="no"?>
<svg width="60px" height="60px" viewBox="0 0 60 60" version="1.1" xmlns="http://www.w3.org/2000/svg" xmlns:xlink="http://www.w3.org/1999/xlink">
    <!-- Generator: Sketch 3.8.1 (29687) - http://www.bohemiancoding.com/sketch -->
    <title>Artboard 2</title>
    <desc>Created with Sketch.</desc>
    <defs></defs>
    <g id="Page-1" stroke="none" stroke-width="1" fill="none" fill-rule="evenodd">
        <g id="Artboard-2" fill="#FF854E">
            <path d="M50.9395874,39.6780011 L50.9395874,12.956682 C50.9395874,8.39069041 48.4117951,6 43.2227108,6 L16.3056256,6 L16.3056256,6.01231326 L12.6457587,6.01231326 C10.6324497,6.01231326 9,7.63753971 9,9.64169278 L9,46.6424175 C9,46.8838564 9.02430091,47.1197884 9.06942231,47.347924 L9.06942231,51.2825981 C9.06942231,53.2887312 10.701872,54.9119776 12.715181,54.9119776 L47.3544878,54.9119776 C49.3658701,54.9119776 50.9999979,53.2887312 50.9999979,51.2825981 L50.9999979,40.334007 C51.0002465,40.1098933 50.9786802,39.8909153 50.9395874,39.6780011 L50.9395874,39.6780011 Z M17.0647961,15.0734488 L20.7105548,15.0734488 C22.2208784,15.0734488 23.4446874,16.2919046 23.4446874,17.7955453 C23.4446874,19.2991242 22.2208784,20.51758 20.7105548,20.51758 L17.0647961,20.51758 C15.5554669,20.51758 14.3306635,19.2993717 14.3306635,17.7955453 C14.3306635,16.2919046 15.5554669,15.0734488 17.0647961,15.0734488 L17.0647961,15.0734488 Z M42.964599,42.2941664 L17.1789048,42.2941664 C15.669327,42.2941664 14.4445236,41.0747825 14.4445236,39.5721318 C14.4445236,38.0692336 15.669327,36.8500972 17.1789048,36.8500972 L42.964599,36.8500972 C44.4741768,36.8500972 45.6989802,38.0692336 45.6989802,39.5721318 C45.6989802,41.0747825 44.4741768,42.2941664 42.964599,42.2941664 L42.964599,42.2941664 Z M42.964599,31.4057804 L17.1789048,31.4057804 C15.669327,31.4057804 14.4445236,30.1865821 14.4445236,28.6836839 C14.4445236,27.180105 15.669327,25.9616492 17.1789048,25.9616492 L42.964599,25.9616492 C44.4741768,25.9616492 45.6989802,27.180105 45.6989802,28.6836839 C45.6989802,30.1865821 44.4741768,31.4057804 42.964599,31.4057804 L42.964599,31.4057804 Z M42.964599,20.51758 L29.823895,20.51758 C28.3152495,20.51758 27.0904461,19.2991242 27.0904461,17.7955453 C27.0904461,16.2919046 28.3152495,15.0734488 29.823895,15.0734488 L42.964599,15.0734488 C44.4741768,15.0734488 45.6989802,16.2919046 45.6989802,17.7955453 C45.6989802,19.2991242 44.4741768,20.51758 42.964599,20.51758 L42.964599,20.51758 Z" id="iconfont-dingdan"></path>
        </g>
    </g>
</svg>