<?xml version="1.0" encoding="UTF-8" standalone="no"?>
<svg width="36px" height="36px" viewBox="0 0 36 36" version="1.1" xmlns="http://www.w3.org/2000/svg" xmlns:xlink="http://www.w3.org/1999/xlink">
    <!-- Generator: Sketch 3.8.1 (29687) - http://www.bohemiancoding.com/sketch -->
    <title>Artboard 1</title>
    <desc>Created with Sketch.</desc>
    <defs></defs>
    <g id="Page-1" stroke="none" stroke-width="1" fill="none" fill-rule="evenodd">
        <g id="Artboard-1" stroke="#404040" stroke-width="2">
            <path d="M34.3497977,11.4413461 C35.0344343,16.897605 30.09556,24.9684226 23.8756845,28.5590417 C17.6182782,32.1713266 7.07617772,32.108117 3.97860561,28.8502481 C3.64707377,28.525302 3.35368525,28.1504226 3.11021129,27.7287636 C3.06037748,27.6424592 3.0132866,27.5553239 2.96891161,27.4674588 C1.72863841,25.0116428 2.60999638,21.9856218 5.02247685,20.5929414 C7.52127202,19.1504332 10.716469,20.0064817 12.1591491,22.5049792 C12.8064894,23.626072 12.9909883,24.88736 12.7719267,26.0676304 C15.5652336,26.2531599 18.5646332,25.5931067 21.3190225,24.0030487 C24.1674965,22.3586773 26.2855151,19.9900926 27.5044874,17.3760119 C25.8335815,17.0959734 24.2960839,16.099395 23.3828291,14.5177797 C21.759814,11.70697 22.7229833,8.1128015 25.5341278,6.48997975 C28.3452724,4.86715799 31.939869,5.83021253 33.5628841,8.64102226 C34.0736025,9.5255071 34.3282398,10.4875592 34.3497977,11.4413461 L34.3497977,11.4413461 Z" id="Oval-152" transform="translate(18.411364, 18.491662) rotate(-20.000000) translate(-18.411364, -18.491662) "></path>
        </g>
    </g>
</svg>