<?xml version="1.0" encoding="UTF-8" standalone="no"?>
<svg width="36px" height="36px" viewBox="0 0 36 36" version="1.1" xmlns="http://www.w3.org/2000/svg" xmlns:xlink="http://www.w3.org/1999/xlink">
    <!-- Generator: Sketch 3.8.1 (29687) - http://www.bohemiancoding.com/sketch -->
    <title>Artboard 1</title>
    <desc>Created with Sketch.</desc>
    <defs></defs>
    <g id="Page-1" stroke="none" stroke-width="1" fill="none" fill-rule="evenodd">
        <g id="Artboard-1" fill="#404040">
            <g id="Page-1" transform="translate(2.000000, 1.000000)">
                <g id="Group-3" transform="translate(0.000000, 0.608166)">
                    <path d="M19.088397,28.9597828 C18.4918489,29.0969203 17.4107483,29.8626046 16.4964983,30.792854 C16.0462302,31.249979 15.4291114,31.9928071 15.0702683,31.8876684 C14.5994296,31.7505309 14.7548521,31.2088377 14.7959933,30.9139921 C14.8668477,30.4202971 14.9834146,29.6980396 15.0314127,29.3071978 C8.05339962,28.8249309 2.54275779,23.1337247 2.54275779,16.1808535 C2.54275779,8.91485168 8.35281649,3.02251047 15.7788121,3.02251047 C23.2048076,3.02251047 29.2228582,8.91485168 29.2228582,16.1808535 C29.2228582,22.3634691 24.9738814,27.6021215 19.088397,28.9597828 M15.7719552,0.677459244 C7.06143838,0.677459244 0.00114281249,7.58690356 0.00114281249,16.1122847 C0.00114281249,23.9176941 5.63063714,30.2785884 13.317194,31.3094052 C13.2280546,31.8648121 13.2600533,32.529929 13.4794733,33.2681858 C13.5800408,33.608744 13.9114564,34.0361558 14.1857314,34.1527227 C14.5422889,34.3058596 15.2714033,34.4247121 15.8839508,33.9127321 C17.1387589,32.8682015 18.5421327,31.6476777 20.3272058,30.8934215 C26.8183807,28.982639 31.5450532,23.0880122 31.5450532,16.1122847 C31.5450532,7.58690356 24.482472,0.677459244 15.7719552,0.677459244" id="Fill-1"></path>
                </g>
                <path d="M21.6686391,20.8487463 C21.3806503,20.8487463 21.1383741,21.0293107 21.0400922,21.2830151 C21.0378066,21.2807294 21.0332353,21.2807294 21.0286641,21.2784438 C20.2972641,22.5035388 18.2356303,23.7400619 15.7557272,23.7400619 C13.2895379,23.7400619 11.2484748,22.5035388 10.4827904,21.2235888 L10.4805048,21.2235888 C10.3685092,21.0041688 10.1445179,20.8487463 9.88167104,20.8487463 C9.50682855,20.8487463 9.20284042,21.1527344 9.20284042,21.5275769 C9.20284042,21.6441438 9.24169605,21.7515682 9.29655105,21.8475644 C10.1673742,23.4612157 12.8186991,25.1982907 15.7557272,25.1982907 C18.6904697,25.1982907 21.3897928,23.4475019 22.2629016,21.8475644 C22.2606159,21.8475644 22.2583303,21.8452788 22.2560447,21.8452788 C22.3086141,21.7492826 22.3474697,21.6441438 22.3474697,21.5275769 C22.3474697,21.1527344 22.0434816,20.8487463 21.6686391,20.8487463" id="Fill-4"></path>
            </g>
        </g>
    </g>
</svg>