<?xml version="1.0" encoding="UTF-8" standalone="no"?>
<svg width="36px" height="36px" viewBox="0 0 36 36" version="1.1" xmlns="http://www.w3.org/2000/svg" xmlns:xlink="http://www.w3.org/1999/xlink">
    <!-- Generator: Sketch 3.8.1 (29687) - http://www.bohemiancoding.com/sketch -->
    <title>iconfont-yueduhuizong2</title>
    <desc>Created with Sketch.</desc>
    <defs>
        <circle id="path-1" cx="17" cy="17" r="17"></circle>
        <mask id="mask-2" maskContentUnits="userSpaceOnUse" maskUnits="objectBoundingBox" x="0" y="0" width="34" height="34" fill="white">
            <use xlink:href="#path-1"></use>
        </mask>
        <path d="M26.8728209,33.9384656 C25.320775,34.5931248 21.341918,34.3981404 21.341918,34.3981404 C20.6220129,34.3981404 19.8445449,34.1205334 19.0972242,33.4850106 C18.3499036,32.8494878 11.3557863,25.8349196 11.3557863,25.8349196 C10.8053993,25.1712925 10.8949121,24.185425 11.5553955,23.6328082 C12.2161166,23.0801915 13.1976671,23.1700502 13.7478639,23.8334863 L15.8230103,26.3705863 C15.8519605,26.6126605 16.0567988,26.8004471 16.3056091,26.8004471 C16.57429,26.8004471 16.7921535,26.5816731 16.7921535,26.3118105 L16.7932469,11.0314851 C16.7932469,10.1679439 17.4901439,9.46798179 18.3499037,9.46798179 C19.2096636,9.46798179 19.9065606,10.1679439 19.9065606,11.0314851 L19.9065606,23.5285301 C19.9059902,23.8575505 20.1607902,24.1134234 20.4751544,24.1134234 C20.7893285,24.1134234 21.0443187,23.8575505 21.0443187,23.5417559 C21.0443187,23.5335912 21.0429876,17.2537949 21.0429876,17.2537949 C21.0429876,16.3904446 21.7399322,15.6902915 22.5996445,15.6902915 C23.4594044,15.6902915 24.1563489,16.3904446 24.1563489,17.2537949 L24.1563489,23.5352624 C24.1598667,23.8726384 24.4190876,24.1329994 24.7388236,24.1329994 C25.0586071,24.1329994 25.3176379,23.8726384 25.3176379,23.5514961 C25.3176379,23.5414217 25.3161643,18.1842765 25.3161643,18.1842765 C25.3161643,18.0376951 25.3366053,17.8959361 25.3743024,17.7614822 C25.6243962,17.4699905 25.857852,17.1635542 26.0722928,16.8433191 C26.3062715,16.7020853 26.5799913,16.6207732 26.8728212,16.6207732 C27.7323909,16.6207732 28.4292879,17.320783 28.4292879,18.1842765 L28.4292879,23.4774415 C28.4248669,23.8196876 28.649148,24.0450028 28.9258627,24.0450028 C29.20272,24.0450028 29.4268584,23.8196876 29.4268584,23.5417559 C29.4268584,23.5093361 29.4234833,23.4776325 29.4177313,23.4468361 L29.4177313,19.9356142 C29.4177313,19.0720729 30.1146283,18.3721108 30.9743881,18.3721108 C31.834148,18.3721108 32.531045,19.0720729 32.531045,19.9356142 L30.9743891,30.6869645 C30.9630752,32.8359341 28.4248667,33.2838063 26.8728209,33.9384656 Z" id="path-3"></path>
        <mask id="mask-4" maskContentUnits="userSpaceOnUse" maskUnits="objectBoundingBox" x="-2" y="-2" width="25.5359879" height="28.9573315">
            <rect x="8.99505711" y="7.46798179" width="25.5359879" height="28.9573315" fill="white"></rect>
            <use xlink:href="#path-3" fill="black"></use>
        </mask>
    </defs>
    <g id="Page-1" stroke="none" stroke-width="1" fill="none" fill-rule="evenodd">
        <g id="Artboard-1">
            <g id="iconfont-yueduhuizong2">
                <use id="Oval-313" stroke="#404040" mask="url(#mask-2)" stroke-width="4" xlink:href="#path-1"></use>
                <path d="M16.7052506,7.00416296 C21.2011649,7.00416296 25.0105088,9.94038558 26.3221902,14 L28.4109357,14 C27.0380559,8.8188193 22.3180369,5 16.7052506,5 C11.0925511,5 6.37253216,8.81916702 5,14 L7.08865858,14 C8.4000792,9.9407333 12.2094232,7.00416296 16.7052506,7.00416296 L16.7052506,7.00416296 Z" id="Fill-2" fill="#404040"></path>
                <path d="M28,21 L28.4109357,21 C28.2966716,21.4312272 28.1592214,21.853017 28,22.2639534 L28,21 Z M13,29.4225072 C9.09633535,28.1689652 6.05648678,24.9878712 5,21 L7.08865858,21 C8.01851929,23.8782166 10.2042101,26.191998 13,27.2947456 L13,29.4225072 Z" id="Combined-Shape" fill="#404040"></path>
                <g id="Fill-1" transform="translate(21.763051, 21.946648) rotate(-20.000000) translate(-21.763051, -21.946648) ">
                    <use fill="#FFFFFF" fill-rule="evenodd" xlink:href="#path-3"></use>
                    <use stroke="#404040" mask="url(#mask-4)" stroke-width="4" xlink:href="#path-3"></use>
                </g>
            </g>
        </g>
    </g>
</svg>