<?xml version="1.0" encoding="UTF-8" standalone="no"?>
<svg width="11px" height="20px" viewBox="0 0 11 20" version="1.1" xmlns="http://www.w3.org/2000/svg" xmlns:xlink="http://www.w3.org/1999/xlink">
    <!-- Generator: Sketch 3.6.1 (26313) - http://www.bohemiancoding.com/sketch -->
    <title>Imported Layers Copy 13 + Imported Layers Copy 14 Copy Copy Copy Copy Copy Copy Copy</title>
    <desc>Created with Sketch.</desc>
    <defs></defs>
    <g id="购物车" stroke="none" stroke-width="1" fill="none" fill-rule="evenodd">
        <g id="提交订单" transform="translate(-615.000000, -639.000000)" fill="#E62E46">
            <g id="address-copy" transform="translate(0.000000, 604.000000)">
                <g id="add" transform="translate(32.000000, 19.000000)">
                    <g id="Imported-Layers-Copy-13-+-Imported-Layers-Copy-14-Copy-Copy-Copy-Copy-Copy-Copy-Copy" transform="translate(576.000000, 14.000000)">
                        <path d="M17.9354784,12.3359112 C17.8885816,12.4699112 17.819733,12.5989112 17.7119701,12.7069112 C17.6730556,12.7449112 17.6241632,12.7629112 17.5812576,12.7939112 L8.65389404,21.7219112 C8.28171268,22.0939112 7.67404929,22.0889112 7.2958811,21.7109112 C6.91871072,21.3339112 6.91372169,20.7259112 7.28590305,20.3539112 L15.6365351,12.0029112 L7.27592499,3.64491117 C6.90374364,3.27291117 6.90873266,2.66591117 7.28690085,2.28691117 C7.66506904,1.90891117 8.27373024,1.90391117 8.6459116,2.27491117 L17.5263783,11.1529112 C17.594229,11.1939112 17.6650732,11.2259112 17.7229459,11.2849112 C17.927496,11.4889112 18.0133072,11.7599112 17.9983402,12.0249112 C17.9873643,12.1419112 17.9743928,12.2419112 17.9354784,12.3359112 Z" id="Imported-Layers-Copy-14" transform="translate(12.500000, 11.998847) scale(1, -1) translate(-12.500000, -11.998847) "></path>
                    </g>
                </g>
            </g>
        </g>
    </g>
</svg>