<?xml version="1.0" encoding="UTF-8" standalone="no"?>
<svg width="42px" height="42px" viewBox="0 0 42 42" version="1.1" xmlns="http://www.w3.org/2000/svg" xmlns:xlink="http://www.w3.org/1999/xlink">
    <!-- Generator: Sketch 3.8.1 (29687) - http://www.bohemiancoding.com/sketch -->
    <title>删除 icon</title>
    <desc>Created with Sketch.</desc>
    <defs></defs>
    <g id="购物车" stroke="none" stroke-width="1" fill="none" fill-rule="evenodd">
        <g id="购物车-－自营优惠信息" transform="translate(-551.000000, -269.000000)">
            <g id="优惠信息" transform="translate(32.000000, 190.000000)">
                <g id="删除-icon" transform="translate(520.000000, 80.000000)">
                    <path d="M20,40 C31.045695,40 40,31.045695 40,20 C40,8.954305 31.045695,0 20,0 C8.954305,0 0,8.954305 0,20 C0,31.045695 8.954305,40 20,40 Z" id="Oval-281" stroke="#FFFFFF" stroke-width="2"></path>
                    <path d="M21.2504719,21.2504719 L21.2504719,33.9645172 C21.2504719,34.4031517 20.8944787,34.759145 20.4558441,34.759145 C20.0172096,34.759145 19.6612163,34.4031517 19.6612163,33.9645172 L19.6612163,21.2504719 L6.94717109,21.2504719 C6.50853653,21.2504719 6.15254326,20.8944787 6.15254326,20.4558441 C6.15254326,20.0172096 6.50853653,19.6612163 6.94717109,19.6612163 L19.6612163,19.6612163 L19.6612163,6.94717109 C19.6612163,6.50853653 20.0172096,6.15254326 20.4558441,6.15254326 C20.8944787,6.15254326 21.2504719,6.50853653 21.2504719,6.94717109 L21.2504719,19.6612163 L33.9645172,19.6612163 C34.4031517,19.6612163 34.759145,20.0172096 34.759145,20.4558441 C34.759145,20.8944787 34.4031517,21.2504719 33.9645172,21.2504719 L21.2504719,21.2504719 Z" id="Imported-Layers" fill="#FFFFFF" transform="translate(20.455844, 20.455844) rotate(-315.000000) translate(-20.455844, -20.455844) "></path>
                </g>
            </g>
        </g>
    </g>
</svg>