<?xml version="1.0" encoding="UTF-8" standalone="no"?>
<svg width="30px" height="30px" viewBox="0 0 30 30" version="1.1" xmlns="http://www.w3.org/2000/svg" xmlns:xlink="http://www.w3.org/1999/xlink">
    <!-- Generator: Sketch 3.6.1 (26313) - http://www.bohemiancoding.com/sketch -->
    <title>Combined Shape</title>
    <desc>Created with Sketch.</desc>
    <defs></defs>
    <g id="购物车" stroke="none" stroke-width="1" fill="none" fill-rule="evenodd">
        <g transform="translate(-33.000000, -337.000000)" id="商品列表-copy-2" fill="#E62E46">
            <g transform="translate(0.000000, 144.000000)">
                <path d="M62.454205,198.09279 C61.2901819,195.114731 58.3915388,193 54.9999595,193 L41.0000405,193 C36.5889027,193 33,196.58174 33,201.00004 L33,214.99996 C33,219.411097 36.5817401,223 41.0000405,223 L54.9999595,223 C59.4110973,223 63,219.41826 63,214.99996 L63,201.00004 C63,200.983645 62.9999505,200.967262 62.9998517,200.95089 C62.9985797,200.955546 62.997246,200.960016 62.9958494,200.964294 L49.5178221,215.02893 C49.3890832,215.175531 48.8416661,216.001504 48.073242,216.003539 C47.32421,216.001504 46.9840086,215.601806 46.7213133,215.377319 L37.4085693,205.970703 C37.155885,205.692433 37.0412597,204.974487 37.5721435,204.456665 C38.1030273,203.938843 38.8557885,204.178395 39.1077881,204.456665 L47.9276209,213.172852 L62.454205,198.09279 Z" id="Combined-Shape"></path>
            </g>
        </g>
    </g>
</svg>