<?xml version="1.0" encoding="UTF-8" standalone="no"?>
<svg width="36px" height="36px" viewBox="0 0 36 36" version="1.1" xmlns="http://www.w3.org/2000/svg" xmlns:xlink="http://www.w3.org/1999/xlink">
    <!-- Generator: Sketch 3.6.1 (26313) - http://www.bohemiancoding.com/sketch -->
    <title>48_34 copy 4</title>
    <desc>Created with Sketch.</desc>
    <defs></defs>
    <g id="购物车" stroke="none" stroke-width="1" fill="none" fill-rule="evenodd">
        <g id="收货地址" transform="translate(-574.000000, -858.000000)" fill="#E62E46">
            <g id="add-adds" transform="translate(0.000000, 830.000000)">
                <g id="chose-amount">
                    <g>
                        <g id="Group" transform="translate(24.000000, 22.000000)">
                            <g id="48_34-copy-4" transform="translate(544.000000, 0.000000)">
                                <path d="M25,25 L25,41 C25,41.552 24.552,42 24,42 C23.448,42 23,41.552 23,41 L23,25 L7,25 C6.448,25 6,24.552 6,24 C6,23.448 6.448,23 7,23 L23,23 L23,7 C23,6.448 23.448,6 24,6 C24.552,6 25,6.448 25,7 L25,23 L41,23 C41.552,23 42,23.448 42,24 C42,24.552 41.552,25 41,25 L25,25 Z" id="Imported-Layers"></path>
                            </g>
                        </g>
                    </g>
                </g>
            </g>
        </g>
    </g>
</svg>