<?xml version="1.0" encoding="UTF-8" standalone="no"?>
<svg width="20px" height="23px" viewBox="0 0 20 23" version="1.1" xmlns="http://www.w3.org/2000/svg" xmlns:xlink="http://www.w3.org/1999/xlink">
    <!-- Generator: Sketch 3.6.1 (26313) - http://www.bohemiancoding.com/sketch -->
    <title>Group 4 Copy</title>
    <desc>Created with Sketch.</desc>
    <defs>
        <path id="path-1" d="M0,0.189 L19.708,0.189 L19.708,23 L0,23"></path>
    </defs>
    <g id="购物车" stroke="none" stroke-width="1" fill="none" fill-rule="evenodd">
        <g transform="translate(-548.000000, -341.000000)" id="商品列表-copy-2">
            <g transform="translate(0.000000, 144.000000)">
                <g id="Group-4-Copy" transform="translate(544.000000, 194.000000)">
                    <g id="Group-6">
                        <g id="Page-1" transform="translate(4.000000, 3.000000)">
                            <path d="M4.1466,9.5517 C4.1076,8.9627 4.5576,8.4487 5.1476,8.4097 C5.7366,8.3717 6.2496,8.8217 6.2886,9.4107 L6.9276,19.1137 C6.9666,19.7027 6.5166,20.2167 5.9276,20.2547 C5.3386,20.2937 4.8246,19.8437 4.7856,19.2547 L4.1466,9.5517 Z M14.8866,19.2547 C14.8476,19.8437 14.3346,20.2937 13.7446,20.2547 C13.1556,20.2167 12.7056,19.7027 12.7446,19.1137 L13.3836,9.4107 C13.4226,8.8217 13.9356,8.3717 14.5256,8.4097 C15.1146,8.4487 15.5646,8.9627 15.5256,9.5517 L14.8866,19.2547 Z M10.9276,19.1947 C10.9276,19.7847 10.4446,20.2677 9.8546,20.2677 C9.2636,20.2677 8.7806,19.7847 8.7806,19.1947 L8.7806,9.4707 C8.7806,8.8807 9.2636,8.3977 9.8546,8.3977 C10.4446,8.3977 10.9276,8.8807 10.9276,9.4707 L10.9276,19.1947 Z M17.8106,5.6657 L1.8996,5.6657 C1.3636,5.6657 0.9486,6.1337 1.0136,6.6657 C1.0866,7.2547 1.1746,7.9137 1.1966,8.0827 L2.0676,15.2717 C2.2706,16.8837 2.4536,18.4957 2.6556,20.1067 C2.7376,20.5617 2.6976,20.8097 2.8596,21.2427 C3.1626,22.0287 3.7916,22.6277 4.5826,22.8767 C4.7056,22.9167 5.0486,22.9597 5.1096,22.9997 L14.5786,22.9997 C14.6596,22.9597 14.9846,22.9167 15.1266,22.8767 C15.9166,22.6277 16.5466,22.0287 16.8506,21.2437 C17.0126,20.8097 16.9926,20.5617 17.0316,20.0877 L18.5116,8.0617 C18.5716,7.5917 18.6376,7.1287 18.6986,6.6647 C18.7676,6.1347 18.3456,5.6657 17.8106,5.6657 L17.8106,5.6657 Z" id="Fill-1" fill="#C0C0C0"></path>
                            <g id="Group-5">
                                <mask id="mask-2" fill="white">
                                    <use xlink:href="#path-1"></use>
                                </mask>
                                <g id="Clip-4"></g>
                                <path d="M0,3.2266 L0,3.2266 C0,4.0716 0.685,4.7556 1.529,4.7556 L18.179,4.7556 C19.024,4.7556 19.708,4.0716 19.708,3.2266 L19.708,3.2266 C19.669,3.1226 19.648,2.9566 19.588,2.8126 C19.425,2.4616 19.141,2.1726 18.735,2.0686 C18.37,1.9666 17.194,2.0076 16.728,2.0076 L14.62,2.0076 C14.324,2.0076 14.012,2.0156 13.698,2.0206 C13.049,2.0316 12.477,1.6206 12.243,1.0156 C12.171,0.8316 12.095,0.6626 12.024,0.5396 C11.883,0.2926 11.883,0.3336 11.72,0.1886 L8.009,0.1886 C7.907,0.2506 7.888,0.2506 7.807,0.3336 C7.682,0.4696 7.557,0.7346 7.45,1.0226 C7.225,1.6316 6.639,2.0316 5.99,2.0206 C5.675,2.0146 5.363,2.0076 5.07,2.0076 L2.981,2.0076 C2.514,2.0076 1.338,1.9666 0.953,2.0686 C0.669,2.1516 0.467,2.3386 0.325,2.5026 C0.06,2.7936 0.06,3.0816 0,3.2266" id="Fill-3" fill="#C0C0C0" mask="url(#mask-2)"></path>
                            </g>
                        </g>
                    </g>
                </g>
            </g>
        </g>
    </g>
</svg>