<?xml version="1.0" encoding="UTF-8" standalone="no"?>
<svg width="110px" height="32px" viewBox="0 0 110 32" version="1.1" xmlns="http://www.w3.org/2000/svg" xmlns:xlink="http://www.w3.org/1999/xlink">
    <!-- Generator: Sketch 3.8.2 (29753) - http://www.bohemiancoding.com/sketch -->
    <title>未认证icon</title>
    <desc>Created with Sketch.</desc>
    <defs></defs>
    <g id="我的" stroke="none" stroke-width="1" fill="none" fill-rule="evenodd">
        <g id="管理收货地址－零售商" transform="translate(-32.000000, -424.000000)">
            <g id="address-copy" transform="translate(0.000000, 410.000000)">
                <g id="未认证icon" transform="translate(32.000000, 14.000000)">
                    <path d="M16.0072229,0 L12.2970431,2.14641487 L8.01264013,2.14641487 L5.86502144,5.85900233 L2.14761869,8.00180573 L2.14761869,12.291024 L0,16.0024076 L2.14761869,19.7174028 L2.14761869,24.0030096 L5.86502144,26.145813 L8.01264013,29.8632157 L12.2970431,29.8632157 L16.0072229,32 L19.729441,29.8632157 L24.0150478,29.8632157 L26.1566474,26.145813 L29.8740501,24.0030096 L29.8740501,19.7174028 L32.0168535,16.0024076 L29.8740501,12.291024 L29.8740501,8.00180573 L26.1566474,5.85900233 L24.0150478,2.14641487 L19.729441,2.14641487 L16.0072229,0 Z M20.8610338,10.9403356 L24.7553984,10.9403356 L24.7553984,12.2380558 L23.4552705,12.2380558 L17.631179,23.8910541 L14.3941013,23.8910541 L8.56639831,12.2380558 L7.25904748,12.2380558 L7.25904748,10.9403356 L11.1510044,10.9403356 L16.0072229,20.6575878 L20.8610338,10.9403356 Z" id="Page-1" fill="#C0C0C0"></path>
                    <text id="认证中" font-family="STXihei, STHeiti" font-size="24" font-weight="300" fill="#909090">
                        <tspan x="41" y="25">认证中</tspan>
                    </text>
                </g>
            </g>
        </g>
    </g>
</svg>