<?xml version="1.0" encoding="UTF-8" standalone="no"?>
<svg width="136px" height="32px" viewBox="0 0 136 32" version="1.1" xmlns="http://www.w3.org/2000/svg" xmlns:xlink="http://www.w3.org/1999/xlink">
    <!-- Generator: Sketch 3.8.1 (29687) - http://www.bohemiancoding.com/sketch -->
    <title>Group 7</title>
    <desc>Created with Sketch.</desc>
    <defs></defs>
    <g id="我的" stroke="none" stroke-width="1" fill="none" fill-rule="evenodd">
        <g id="Group-7">
            <path d="M18.3914691,23.0004 L18.3814308,23.0004 L18.5499706,23.2729113 L18.723087,23.57055 L18.734051,23.57055 L18.9999,24.0004 L23.0384742,24.0004 L23.0384742,23.0004 L22.0751251,23.0004 L17.6313515,15.4575754 L21.1822897,10.0004 L22.5312721,10.0004 L22.5312721,9.0004 L19.1065895,9.0004 L18.6639674,9.71649751 L16.2842322,13.4580776 L13.9890012,9.35237398 L13.7987281,9.0004 L9.48183359,9.0004 L9.48183359,10.0004 L10.6763402,10.0004 L14.3549346,16.1946784 L9.9570135,23.0004 L8.97206797,23.0004 L8.97206797,24.0004 L12.090232,24.0004 L12.3661294,23.57055 L12.3687507,23.57055 L12.6490879,23.1296988 L12.7320777,23.0004 L12.7313089,23.0004 L15.6875298,18.3515217 L18.3914691,23.0004 Z M12.297,2.147 L8.012,2.147 L5.865,5.859 L2.148,8.002 L2.148,12.292 L0,16.002 L2.148,19.718 L2.148,24.003 L5.865,26.146 L8.012,29.863 L12.297,29.863 L16.007,32 L19.729,29.863 L24.015,29.863 L26.156,26.146 L29.874,24.003 L29.874,19.718 L32,16.032 L32,15.973 L29.874,12.292 L29.874,8.002 L26.156,5.859 L24.015,2.147 L19.729,2.147 L16.007,0 L12.297,2.147 Z" id="Combined-Shape" fill="#C0C0C0"></path>
            <text id="认证失败" font-family="STXihei, STHeiti" font-size="24" font-weight="300" fill="#909090">
                <tspan x="40" y="25">认证失败</tspan>
            </text>
        </g>
    </g>
</svg>