<?xml version="1.0" encoding="UTF-8" standalone="no"?>
<svg width="110px" height="32px" viewBox="0 0 110 32" version="1.1" xmlns="http://www.w3.org/2000/svg" xmlns:xlink="http://www.w3.org/1999/xlink">
    <!-- Generator: Sketch 3.8.2 (29753) - http://www.bohemiancoding.com/sketch -->
    <title>去认证icon</title>
    <desc>Created with Sketch.</desc>
    <defs>
        <polygon id="path-1" points="18.6503571 3.98115714 18.6503571 0.6253 -7.84260687e-05 0.6253 -7.84260687e-05 3.98115714 18.6503571 3.98115714"></polygon>
    </defs>
    <g id="我的" stroke="none" stroke-width="1" fill="none" fill-rule="evenodd">
        <g id="管理收货地址－零售商" transform="translate(-32.000000, -426.000000)">
            <g id="address-copy" transform="translate(0.000000, 410.000000)">
                <g id="去认证icon" transform="translate(32.000000, 16.000000)">
                    <rect id="Rectangle-153" fill="#EF4444" x="0" y="0" width="110" height="32" rx="4"></rect>
                    <g transform="translate(6.000000, 3.000000)">
                        <path d="M4.72132143,23.1568786 L4.72132143,21.4185929 C4.80025,21.4130214 4.88196429,21.40095 4.96275,21.40095 C10.3456786,21.4000214 15.7286071,21.40095 21.1106071,21.3963071 C21.3056071,21.3963071 21.3696786,21.4473786 21.3641071,21.64795 C21.34925,22.1447357 21.3594643,22.6433786 21.3594643,23.1568786 L4.72132143,23.1568786 Z" id="Fill-7" fill="#FFFFFF"></path>
                        <g id="Group-6" transform="translate(3.714286, 16.656879)">
                            <mask id="mask-2" fill="white">
                                <use xlink:href="#path-1"></use>
                            </mask>
                            <g id="Clip-5"></g>
                            <path d="M18.6498929,3.98115714 L0.0134642857,3.98115714 C0.00882142857,3.89015714 0.00139285714,3.80751429 0.00139285714,3.72487143 C0.000464285714,3.16215714 -0.00139285714,2.59851429 0.00139285714,2.0358 C0.00603571429,1.2168 0.600321429,0.626228571 1.42489286,0.6253 C6.67782143,0.6253 11.9316786,0.6253 17.1855357,0.626228571 C18.06025,0.626228571 18.6471071,1.21308571 18.6489643,2.08872857 C18.65175,2.71365714 18.6498929,3.33951429 18.6498929,3.98115714" id="Fill-4" fill="#FFFFFF" mask="url(#mask-2)"></path>
                        </g>
                        <g id="Group-3" transform="translate(6.500000, 0.871164)" fill="#FFFFFF">
                            <path d="M6.53017857,15.3689714 L3.02389286,15.3689714 C2.48160714,15.3689714 2.04889286,15.1535429 1.77960714,14.6809 C1.50196429,14.1934 1.50567857,13.6817571 1.78796429,13.1961143 C1.90775,12.9899714 2.08325,12.8135429 2.24389286,12.6334 C2.38967857,12.4690429 2.55960714,12.3241857 2.70446429,12.1579714 C3.05732143,11.7512571 3.06010714,11.4123286 2.71932143,10.9916857 C2.52617857,10.7539714 2.31725,10.5292571 2.12689286,10.2896857 C1.41746429,9.39547143 0.92625,8.39911429 0.830607143,7.24954286 C0.677392857,5.41932857 1.22432143,3.81475714 2.56796429,2.55004286 C4.20039286,1.01325714 6.14017857,0.532257143 8.27867857,1.22311429 C10.4301786,1.91954286 11.7320357,3.45075714 12.1721786,5.66447143 C12.48325,7.23282857 12.11275,8.67675714 11.1776786,9.97025714 C10.94925,10.2878286 10.6948214,10.5868286 10.4394643,10.8839714 C9.97610714,11.4206857 9.97982143,11.7577571 10.4691786,12.2759 C10.7133929,12.5340429 10.9826786,12.7754714 11.1925357,13.0596143 C11.7951786,13.8702571 11.4451071,15.0114714 10.5193214,15.2984 C10.3726071,15.3439 10.2119643,15.3643286 10.0578214,15.3652571 C8.88225,15.3708286 7.70575,15.3680429 6.53017857,15.3680429 L6.53017857,15.3689714 Z" id="Fill-1"></path>
                        </g>
                    </g>
                    <text id="编辑--删除" font-family="STXihei, STHeiti" font-size="22" font-weight="300" fill="#FFFFFF">
                        <tspan x="35" y="24">去认证 </tspan>
                    </text>
                </g>
            </g>
        </g>
    </g>
</svg>