<?xml version="1.0" encoding="UTF-8" standalone="no"?>
<svg width="30px" height="38px" viewBox="0 0 30 38" version="1.1" xmlns="http://www.w3.org/2000/svg" xmlns:xlink="http://www.w3.org/1999/xlink">
    <!-- Generator: Sketch 3.8.2 (29753) - http://www.bohemiancoding.com/sketch -->
    <title>keyword</title>
    <desc>Created with Sketch.</desc>
    <defs></defs>
    <g id="登陆／注册" stroke="none" stroke-width="1" fill="none" fill-rule="evenodd">
        <g id="登录_新用户设置密码" transform="translate(-33.000000, -184.000000)">
            <g id="新密码" transform="translate(0.000000, 160.000000)">
                <g id="keyword" transform="translate(24.000000, 20.000000)">
                    <g id="bg"></g>
                    <g transform="translate(9.000000, 4.000000)">
                        <path d="M7,10 L7,13 L4.9995,13 L4.9995,9.607 C4.9995,4.309 9.4865,0 14.9995,0 C20.5135,0 24.9995,4.309 24.9995,9.607 L24.9995,13 L23,13 L23,10 C23,5.581722 19.418278,2 15,2 C10.581722,2 7,5.581722 7,10 Z M14.9995,24.25 C14.3105,24.25 13.7495,24.81 13.7495,25.5 L13.7495,28 C13.7495,28.69 14.3105,29.25 14.9995,29.25 C15.6895,29.25 16.2495,28.69 16.2495,28 L16.2495,25.5 C16.2495,24.81 15.6895,24.25 14.9995,24.25 M14.9995,30.7361114 C13.360411,30.7361114 12.0242665,29.4087363 12.0099165,27.772039 L12.0099165,25.7534722 C12.0099165,24.1048165 13.3516416,22.7638886 14.9995,22.7638886 C16.6481557,22.7638886 17.9890835,24.1048165 17.9890835,25.7534722 L17.9890835,27.772039 C17.9755307,29.4087363 16.6393862,30.7361114 14.9995,30.7361114 M2.4995,19.939 L2.4995,22.637 C2.4995,29.36 8.2195,35.455 14.9425,35.455 C22.0125,35.455 27.4995,30.101 27.4995,23 L27.4995,19.939 C27.4995,18.868 26.6315,18 25.5605,18 L4.4395,18 C3.3685,18 2.4995,18.868 2.4995,19.939 M0.697417056,22.7597197 L0.697417056,18.7970893 C0.697417056,17.2648594 1.93979133,16.0234386 3.47106768,16.0234386 L26.5288858,16.0234386 C28.0601621,16.0234386 29.3015829,17.2648594 29.3015829,18.7970893 L29.3015829,23.1744801 C29.3015829,31.2999702 23.1507338,37.4574936 14.9642215,37.4765631 C7.27256132,37.494679 0.697417056,30.4513799 0.697417056,22.7597197 Z" id="Fill-1" fill="#E62E46"></path>
                        <circle id="Oval-57" fill="#25AD94" cx="6" cy="13" r="1"></circle>
                        <circle id="Oval-57-Copy" fill="#25AD94" cx="24" cy="13" r="1"></circle>
                    </g>
                </g>
            </g>
        </g>
    </g>
</svg>