<?xml version="1.0" encoding="UTF-8" standalone="no"?>
<svg width="100px" height="100px" viewBox="0 0 100 100" version="1.1" xmlns="http://www.w3.org/2000/svg" xmlns:xlink="http://www.w3.org/1999/xlink">
    <!-- Generator: Sketch 3.8.1 (29687) - http://www.bohemiancoding.com/sketch -->
    <title>账号密码登陆</title>
    <desc>Created with Sketch.</desc>
    <defs></defs>
    <g id="登陆／注册" stroke="none" stroke-width="1" fill="none" fill-rule="evenodd">
        <g id="登录" transform="translate(-457.000000, -916.000000)">
            <g id="Group-2-Copy" transform="translate(61.000000, 836.000000)">
                <g id="账号密码登陆" transform="translate(396.000000, 80.000000)">
                    <path d="M50,100 C77.6142375,100 100,77.6142375 100,50 C100,22.3857625 77.6142375,0 50,0 C22.3857625,0 0,22.3857625 0,50 C0,77.6142375 22.3857625,100 50,100 Z" id="Oval-20" fill="#F95F6F"></path>
                    <g id="Group" transform="translate(24.000000, 19.000000)" fill="#FFFFFF">
                        <path d="M55.0765556,41.9733056 C55.0765556,41.9733056 51.3200775,41.2352694 51.258751,40.9846157 C51.1867222,40.7049919 51.1110322,40.4327155 51.0318217,40.1711455 C51.4716688,39.361524 53.5839484,37.5809865 53.5839484,37.5809865 L49.3519257,31.9738853 C49.3519257,31.9738853 46.6048357,34.2201826 45.9236255,34.5427716 C45.6062203,34.4208036 45.2709311,34.3098217 44.9178284,34.2095462 C44.5500805,34.1199071 43.5297086,30.5229344 43.5297086,30.5229344 L37.8303557,30.4761905 C37.8303557,30.4761905 37.2139925,33.9586126 36.2909968,34.1953411 C35.9845754,34.2847004 35.6746336,34.4030297 35.3646917,34.5427716 C34.6795386,34.213115 31.9363211,31.9309201 31.9363211,31.9309201 L27.7040872,37.6274505 C27.7040872,37.6274505 29.8273507,39.7556984 29.9678877,40.4649744 C29.877975,40.6907867 29.7913716,40.9165991 29.7156815,41.149479 C28.8036696,41.4646505 26.2114801,41.9768743 26.2114801,41.9768743 L26.2224639,47.6307195 C26.2224639,47.6307195 29.2360532,48.2539251 29.8091851,48.7555125 C29.9283177,49.0816004 30.0616729,49.3967719 30.2093917,49.7086547 C29.513818,50.5721576 27.6570538,52.015971 27.6570538,52.015971 L32.0263042,57.6695362 C32.0263042,57.6695362 35.4546044,55.4625654 36.020625,55.3370985 C36.3019806,55.4589966 36.5866455,55.5699784 36.8751829,55.6702539 C37.39417,55.8493223 37.7547361,59.1420397 37.7547361,59.1420397 L43.4540186,59.1491072 C43.4540186,59.1491072 43.6451799,55.9211876 44.0632704,55.792222 C44.4779813,55.6631864 44.8817788,55.5125282 45.274522,55.3405973 C45.7541503,55.5270132 48.0037281,57.7553267 48.0037281,57.7553267 L53.6345023,52.0552974 C53.6345023,52.0552974 51.5436975,50.6221904 50.9669747,49.8483266 C51.1253957,49.5258076 51.2662144,49.196151 51.3956971,48.8593568 C51.5868584,48.347133 55.0619808,47.6268708 55.0619808,47.6268708 L55.0765556,41.9733056 Z M41.0594749,52.3443258 C37.094022,52.3443258 33.8746966,49.1483852 33.8746966,45.2037721 C33.8746966,41.259159 37.094022,38.0632184 41.0594749,38.0632184 C45.0249279,38.0632184 48.2439716,41.259159 48.2439716,45.2037721 C48.2403807,49.1483852 45.0249279,52.3443258 41.0594749,52.3443258 L41.0594749,52.3443258 Z M11.328179,33.3426177 C8.3979538,33.4449434 4.0783785,35.6322989 2.82799621,41.781877 C1.57736153,47.9314639 1.57736153,47.9314639 0.323286929,54.0766198 C-0.302991496,57.1664063 12.4529771,58.5574614 23.1191515,58.1375415 C26.659258,57.9964725 22.7739421,53.0280928 22.7045502,46.2649238 C22.6303041,39.0286443 23.364109,37.9584872 24.0893564,35.4827889 C24.5470058,33.9205609 24.381067,32.8868008 22.2399869,32.961569 L11.328179,33.3426177 Z" id="iconfont-password"></path>
                        <ellipse id="Oval-22" cx="24.6779661" cy="15.2380952" rx="15.1864407" ry="15.2380952"></ellipse>
                    </g>
                </g>
            </g>
        </g>
    </g>
</svg>