<?xml version="1.0" encoding="UTF-8" standalone="no"?>
<svg width="48px" height="48px" viewBox="0 0 48 48" version="1.1" xmlns="http://www.w3.org/2000/svg" xmlns:xlink="http://www.w3.org/1999/xlink">
    <!-- Generator: Sketch 3.8.1 (29687) - http://www.bohemiancoding.com/sketch -->
    <title>Artboard 1</title>
    <desc>Created with Sketch.</desc>
    <defs></defs>
    <g id="Page-1" stroke="none" stroke-width="1" fill="none" fill-rule="evenodd">
        <g id="Artboard-1" fill="#E62E46">
            <g id="手机icon">
                <path d="M32.6603571,8.84969125 L15.3439286,8.84969125 C13.9917857,8.84969125 12.8914286,9.95712636 12.8914286,11.3203725 L12.8914286,28.3798383 C12.8914286,29.7430845 13.9917857,30.8505196 15.3439286,30.8505196 L32.6603571,30.8505196 C34.0125,30.8505196 35.1128571,29.7430845 35.1128571,28.3798383 L35.1128571,11.3203725 C35.1128571,9.95712636 34.0125,8.84969125 32.6603571,8.84969125 M32.6603571,10.5183995 C33.0975,10.5183995 33.4564286,10.8745921 33.4564286,11.3203725 L33.4564286,28.3798383 C33.4564286,28.8202219 33.1017857,29.1818113 32.6603571,29.1818113 L15.3439286,29.1818113 C14.9067857,29.1818113 14.5478571,28.8245394 14.5478571,28.3798383 L14.5478571,11.3203725 C14.5478571,10.879989 14.9025,10.5183995 15.3439286,10.5183995 L32.6603571,10.5183995 M27.4842857,6.87983835 L20.52,6.87983835 C20.0646429,6.87983835 19.6917857,6.50421708 19.6917857,6.04548421 C19.6917857,5.58675134 20.0646429,5.21113008 20.52,5.21113008 L27.4842857,5.21113008 C27.9407143,5.21113008 28.3125,5.58675134 28.3125,6.04548421 C28.3125,6.50421708 27.9407143,6.87983835 27.4842857,6.87983835 M31.5428571,45 C31.4003571,45 31.2525,44.962222 31.1196429,44.8834279 C29.265,43.7759928 26.2660714,43.7813896 26.2339286,43.7813896 L26.2285714,43.7813896 L13.4260714,43.7813896 C10.9832143,43.7813896 9,41.7791556 9,39.3225061 L9,6.45780411 C9,3.99683719 10.9875,2 13.4260714,2 L34.5739286,2 C37.0167857,2 39,4.00223405 39,6.45780411 L39,39.3225061 C39,41.7834731 37.0125,43.7813896 34.5739286,43.7813896 C34.1185714,43.7813896 33.7457143,43.4057684 33.7457143,42.9470355 C33.7457143,42.4883026 34.1185714,42.1126814 34.5739286,42.1126814 C36.1017857,42.1126814 37.3435714,40.8606105 37.3435714,39.3225061 L37.3435714,6.45780411 C37.3435714,4.91969978 36.1017857,3.66870827 34.5739286,3.66870827 L13.4260714,3.66870827 C11.8982143,3.66870827 10.6564286,4.91969978 10.6564286,6.45780411 L10.6564286,39.3225061 C10.6564286,40.8606105 11.8982143,42.1126814 13.4260714,42.1126814 L26.2242857,42.1126814 C26.4128571,42.1126814 29.73,42.1072845 31.9660714,43.4467845 C32.3571429,43.6831668 32.49,44.1937095 32.2553571,44.5919976 C32.0989286,44.8564436 31.8278571,45 31.5428571,45 M24.0021429,34.9747979 C23.0592857,34.9747979 22.2953571,35.7443898 22.2953571,36.6942367 C22.2953571,37.6451629 23.0592857,38.4136754 24.0021429,38.4136754 C24.945,38.4136754 25.7089286,37.6451629 25.7089286,36.6942367 C25.7089286,35.7443898 24.9407143,34.9747979 24.0021429,34.9747979 M24.0021429,40.0823837 C22.1485714,40.0823837 20.6389286,38.5626286 20.6389286,36.6942367 C20.6389286,34.826924 22.1485714,33.3060897 24.0021429,33.3060897 C25.8557143,33.3060897 27.3653571,34.826924 27.3653571,36.6942367 C27.3653571,38.5626286 25.8557143,40.0823837 24.0021429,40.0823837" id="Fill-1"></path>
            </g>
        </g>
    </g>
</svg>