<?xml version="1.0" encoding="UTF-8" standalone="no"?>
<svg width="48px" height="48px" viewBox="0 0 48 48" version="1.1" xmlns="http://www.w3.org/2000/svg" xmlns:xlink="http://www.w3.org/1999/xlink">
    <!-- Generator: Sketch 3.8.1 (29687) - http://www.bohemiancoding.com/sketch -->
    <title>Artboard 1</title>
    <desc>Created with Sketch.</desc>
    <defs></defs>
    <g id="Page-1" stroke="none" stroke-width="1" fill="none" fill-rule="evenodd">
        <g id="Artboard-1">
            <g id="手机icon"></g>
            <g id="Page-1" fill="#E62E46">
                <path d="M20,17 C20,18.105 19.105,19 18,19 L12,19 C10.895,19 10,18.105 10,17 L10,11 C10,9.895 10.895,9 12,9 L18,9 C19.105,9 20,9.895 20,11 L20,17 Z M19,7 L11,7 C9.343,7 8,8.343 8,10 L8,18 C8,19.657 9.343,21 11,21 L19,21 C20.657,21 22,19.657 22,18 L22,10 C22,8.343 20.657,7 19,7 L19,7 Z" id="Fill-1"></path>
                <path d="M38,17 C38,18.105 37.105,19 36,19 L30,19 C28.895,19 28,18.105 28,17 L28,11 C28,9.895 28.895,9 30,9 L36,9 C37.105,9 38,9.895 38,11 L38,17 Z M37,7 L29,7 C27.343,7 26,8.343 26,10 L26,18 C26,19.657 27.343,21 29,21 L37,21 C38.657,21 40,19.657 40,18 L40,10 C40,8.343 38.657,7 37,7 L37,7 Z" id="Fill-3"></path>
                <path d="M38,37.2857143 C38,38.2328571 37.105,39 36,39 L12,39 C10.895,39 10,38.2328571 10,37.2857143 L10,28.7142857 C10,27.7671429 10.895,27 12,27 L36,27 C37.105,27 38,27.7671429 38,28.7142857 L38,37.2857143 Z M11,25 C9.343,25 8,26.343 8,28 L8,38 C8,39.657 9.343,41 11,41 L37,41 C38.657,41 40,39.657 40,38 L40,28 C40,26.343 38.657,25 37,25 L11,25 Z" id="Fill-5"></path>
            </g>
        </g>
    </g>
</svg>