<?xml version="1.0" encoding="UTF-8" standalone="no"?>
<svg width="21px" height="12px" viewBox="0 0 21 12" version="1.1" xmlns="http://www.w3.org/2000/svg" xmlns:xlink="http://www.w3.org/1999/xlink">
    <!-- Generator: Sketch 40.3 (33839) - http://www.bohemiancoding.com/sketch -->
    <title>Imported Layers Copy 14</title>
    <desc>Created with Sketch.</desc>
    <defs></defs>
    <g id="我的" stroke="none" stroke-width="1" fill="none" fill-rule="evenodd">
        <g id="我的优惠券－未使用" transform="translate(-583.000000, -496.000000)" fill="#909090">
            <g id="Group-Copy" transform="translate(20.000000, 395.000000)">
                <g id="详情" transform="translate(517.000000, 97.000000)">
                    <path d="M61.9354784,10.3359112 C61.8885816,10.4699112 61.819733,10.5989112 61.7119701,10.7069112 C61.6730556,10.7449112 61.6241632,10.7629112 61.5812576,10.7939112 L52.653894,19.7219112 C52.2817127,20.0939112 51.6740493,20.0889112 51.2958811,19.7109112 C50.9187107,19.3339112 50.9137217,18.7259112 51.285903,18.3539112 L59.6365351,10.0029112 L51.275925,1.64491117 C50.9037436,1.27291117 50.9087327,0.665911173 51.2869009,0.286911173 C51.665069,-0.0910888273 52.2737302,-0.0960888273 52.6459116,0.274911173 L61.5263783,9.15291117 C61.594229,9.19391117 61.6650732,9.22591117 61.7229459,9.28491117 C61.927496,9.48891117 62.0133072,9.75991117 61.9983402,10.0249112 C61.9873643,10.1419112 61.9743928,10.2419112 61.9354784,10.3359112 Z" id="Imported-Layers-Copy-14" transform="translate(56.500000, 9.998847) scale(1, -1) rotate(-270.000000) translate(-56.500000, -9.998847) "></path>
                </g>
            </g>
        </g>
    </g>
</svg>